<?xml version="1.0" encoding="utf-8"?>
<!-- Generator: Adobe Illustrator 24.1.2, SVG Export Plug-In . SVG Version: 6.00 Build 0)  -->
<svg version="1.1" id="Layer_1" xmlns="http://www.w3.org/2000/svg" xmlns:xlink="http://www.w3.org/1999/xlink" x="0px" y="0px"
	 viewBox="0 0 120 120" style="enable-background:new 0 0 120 120;" xml:space="preserve">
<path d="M77,13.1c-0.3,0.8-0.8,1.4-1.6,1.8c-0.8,0.3-1.6,0.4-2.4,0.1c-0.6-0.2-1.2-0.5-1.6-1c-0.4-0.5-0.7-1-0.8-1.6
	c-0.1-0.7-0.1-1.4,0.1-2.1L71,9.5c0.2-0.7,0.5-1.4,1-1.9c0.4-0.5,1-0.8,1.6-1c0.6-0.2,1.3-0.2,1.9,0C76.3,6.8,77,7.3,77.4,8
	c0.4,0.7,0.6,1.5,0.4,2.4L76.4,10c0.1-0.5,0.1-1-0.2-1.4c-0.3-0.4-0.7-0.6-1.1-0.7c-0.5-0.2-1.2-0.1-1.6,0.2
	c-0.6,0.5-0.9,1.2-1.1,1.9l-0.2,0.7c-0.2,0.7-0.3,1.4-0.1,2.2c0.2,0.6,0.6,1,1.2,1.1c0.4,0.2,0.9,0.2,1.4,0c0.4-0.2,0.7-0.6,0.9-1.1
	L77,13.1z"/>
<path d="M87.1,11.5l-2.5,5.1c-0.3,0.7-0.9,1.3-1.7,1.6c-0.8,0.2-1.7,0.1-2.4-0.3c-0.8-0.3-1.4-0.9-1.8-1.7c-0.3-0.8-0.2-1.6,0.2-2.3
	l2.5-5.1l1.3,0.6l-2.5,5.1c-0.2,0.4-0.3,0.9-0.2,1.4c0.2,0.5,0.5,0.8,1,1c0.7,0.4,1.7,0.2,2.1-0.5c0.1-0.1,0.1-0.2,0.1-0.3l2.5-5.1
	L87.1,11.5z"/>
<path d="M90,21c0.2-0.3,0.3-0.6,0.2-0.9c-0.2-0.5-0.5-0.9-0.8-1.3c-0.4-0.5-0.7-1-0.9-1.5c-0.4-0.7-0.3-1.6,0.1-2.3
	c0.4-0.5,1-0.9,1.7-0.9c0.8,0,1.5,0.2,2.2,0.7c0.4,0.3,0.8,0.7,1.1,1.2c0.2,0.4,0.4,0.9,0.3,1.4c0,0.5-0.2,0.9-0.5,1.3l-1.2-0.9
	c0.2-0.3,0.3-0.7,0.3-1.1c-0.1-0.4-0.4-0.8-0.8-1c-0.3-0.3-0.7-0.4-1.1-0.4c-0.3,0-0.6,0.2-0.8,0.5c-0.2,0.3-0.2,0.6-0.1,0.9
	c0.2,0.5,0.5,0.9,0.8,1.3c0.4,0.5,0.7,0.9,0.9,1.5c0.2,0.4,0.2,0.8,0.2,1.2c-0.1,0.4-0.2,0.8-0.4,1.1c-0.4,0.6-1,0.9-1.7,0.9
	c-0.8,0-1.6-0.3-2.2-0.8c-0.5-0.3-0.9-0.8-1.2-1.3c-0.3-0.4-0.4-1-0.4-1.5c0-0.5,0.2-1,0.5-1.4l1.2,0.9c-0.3,0.3-0.4,0.8-0.3,1.2
	c0.1,0.5,0.4,0.9,0.8,1.1c0.3,0.3,0.7,0.4,1.1,0.4C89.5,21.5,89.8,21.3,90,21z"/>
<path d="M100.7,24l-1.9-1.9l-5.2,5.2l-1-1l5.2-5.2L96,19.3l0.8-0.8l4.8,4.8L100.7,24z"/>
<path d="M103.6,33.4c-0.6,0.4-1.3,0.8-2,0.9c-0.6,0.1-1.3,0.1-1.9-0.2c-1.8-0.7-2.6-2.7-1.9-4.4c0.1-0.1,0.1-0.3,0.2-0.4
	c0.4-0.6,0.9-1.2,1.5-1.6l0.4-0.3c0.6-0.5,1.3-0.8,2.1-0.9c0.6-0.1,1.3-0.1,1.9,0.2c0.6,0.3,1.1,0.7,1.5,1.2
	c0.4,0.5,0.6,1.2,0.7,1.8c0,0.6-0.1,1.3-0.4,1.9c-0.4,0.7-1,1.2-1.6,1.6L103.6,33.4z M103.2,32c0.6-0.4,1.2-1,1.5-1.7
	c0.2-0.6,0.1-1.2-0.3-1.7c-0.3-0.5-0.9-0.8-1.5-0.8c-0.7,0-1.5,0.3-2.1,0.8l-0.4,0.3c-0.6,0.4-1.1,1-1.4,1.7c-0.3,1,0.2,2.1,1.2,2.4
	c0.2,0.1,0.4,0.1,0.5,0.1c0.8-0.1,1.5-0.4,2.1-0.8L103.2,32z"/>
<path d="M109.9,35.7l-5,4.9l7-0.3l0.8,1.8l-7.8,3.4l-0.6-1.3l2.6-1.1l3.5-1.4l-7,0.3l-0.4-1l5-4.9l-3.4,1.6l-2.6,1.1l-0.6-1.4
	l7.8-3.4L109.9,35.7z"/>
<path d="M106.1,50.8l8.5-1.1l0.3,2.5c0.1,0.7,0,1.4-0.2,2c-0.3,0.6-0.7,1.2-1.2,1.5c-0.6,0.4-1.3,0.7-2,0.8l-0.4,0.1
	c-0.7,0.1-1.5,0-2.2-0.2c-0.6-0.2-1.2-0.6-1.6-1.2c-0.4-0.6-0.7-1.3-0.8-2L106.1,50.8z M113.6,51.4l-6.1,0.8l0.1,1
	c0,0.7,0.4,1.3,0.9,1.7c0.7,0.4,1.4,0.5,2.2,0.4l0.5-0.1c0.7-0.1,1.5-0.4,2-0.9c0.4-0.5,0.6-1.2,0.5-1.8L113.6,51.4z"/>
<path d="M110.6,64.1l0.1-3.5l-2.6-0.1l-0.1,4.1h-1.2L107,59l8.5,0.3l-0.2,5.5h-1.2l0.1-4l-2.4-0.1l-0.1,3.5L110.6,64.1z"/>
<path d="M107.9,71c0.3,0.1,0.7,0,0.9-0.2c0.4-0.4,0.7-0.8,0.9-1.3c0.3-0.5,0.6-1,1-1.5c0.5-0.6,1.3-0.9,2.1-0.8
	c0.7,0.1,1.2,0.5,1.5,1.2c0.3,0.7,0.4,1.5,0.2,2.3c-0.1,0.5-0.3,1.1-0.6,1.5c-0.3,0.4-0.7,0.7-1.1,0.9c-0.4,0.2-0.9,0.2-1.4,0.1
	l0.3-1.4c0.4,0.1,0.8,0,1.1-0.2c0.3-0.3,0.5-0.7,0.6-1.1c0.1-0.4,0.1-0.8-0.1-1.2c-0.1-0.3-0.4-0.5-0.8-0.6c-0.3-0.1-0.6,0-0.8,0.3
	c-0.4,0.4-0.7,0.8-0.9,1.3c-0.3,0.5-0.6,1-1,1.4c-0.3,0.3-0.6,0.6-1,0.7c-0.4,0.1-0.8,0.2-1.2,0.1c-0.7-0.1-1.2-0.5-1.5-1.1
	c-0.3-0.7-0.4-1.5-0.2-2.3c0.1-0.6,0.3-1.1,0.7-1.6c0.3-0.4,0.7-0.8,1.2-1c0.5-0.2,1-0.3,1.5-0.2l-0.3,1.5c-0.4-0.1-0.9,0-1.2,0.3
	c-0.4,0.3-0.6,0.8-0.7,1.3c-0.1,0.4-0.1,0.8,0.1,1.2C107.3,70.8,107.6,70.9,107.9,71z"/>
<path d="M104.4,75.2l0.4-1.4l8.2,2.6l-0.5,1.4L104.4,75.2z"/>
<path d="M101.9,83.8c-0.2-0.5-0.3-1-0.3-1.6c0.1-0.6,0.2-1.2,0.5-1.8c0.3-0.6,0.7-1.1,1.3-1.5c0.5-0.4,1.2-0.6,1.8-0.6
	c0.7,0,1.5,0.2,2.1,0.5l0.6,0.3c1,0.4,1.8,1.2,2.3,2.2c0.4,0.9,0.3,1.9-0.1,2.8c-0.3,0.8-0.9,1.4-1.6,1.7c-0.7,0.3-1.5,0.3-2.3,0
	l0.6-1.3c0.8,0.3,1.8-0.1,2.1-0.9c0,0,0,0,0,0c0.3-0.5,0.3-1.2,0-1.7c-0.4-0.6-1-1.1-1.7-1.4l-0.6-0.3c-0.7-0.4-1.4-0.5-2.2-0.4
	c-0.6,0.1-1.1,0.6-1.4,1.2c-0.3,0.5-0.4,1.1-0.2,1.7l1.5,0.7l0.8-1.6l1,0.5l-1.4,2.9L101.9,83.8z"/>
<path d="M95.8,90.4l0.9-1.2l7.1,0.5L99,86.2l0.8-1.2l6.9,5l-0.9,1.2l-7.2-0.5l4.9,3.6l-0.9,1.2L95.8,90.4z"/>
<path d="M89.1,102c-0.5-0.6-0.8-1.3-1-2c-0.2-0.6-0.2-1.3,0-1.9c0.5-1.2,1.6-2.1,2.9-2.3c0.6-0.1,1.3,0,1.9,0.3
	c0.7,0.3,1.3,0.8,1.7,1.4l0.3,0.4c0.5,0.6,0.8,1.3,1,2c0.4,1.3-0.1,2.7-1.2,3.5c-0.5,0.4-1.1,0.7-1.8,0.8c-0.6,0.1-1.3-0.1-1.9-0.3
	c-0.7-0.3-1.3-0.8-1.7-1.4L89.1,102z M90.6,101.4c0.4,0.6,1.1,1.1,1.8,1.4c1,0.3,2-0.3,2.3-1.4c0-0.2,0.1-0.4,0.1-0.5
	c-0.1-0.7-0.4-1.4-0.9-2l-0.3-0.4c-0.4-0.6-1.1-1.1-1.8-1.3c-1-0.3-2.1,0.3-2.3,1.4c0,0.2-0.1,0.3-0.1,0.5c0.1,0.8,0.5,1.4,1,2
	L90.6,101.4z"/>
<path d="M83.6,110.3l-2.7-5c-0.4-0.7-0.5-1.5-0.3-2.3c0.3-0.8,0.9-1.4,1.7-1.8c0.7-0.4,1.6-0.6,2.4-0.4c0.8,0.2,1.4,0.8,1.8,1.5
	l2.7,5l-1.3,0.7l-2.7-5c-0.2-0.4-0.6-0.8-1-0.9c-0.5-0.1-0.9,0-1.3,0.2c-0.8,0.3-1.2,1.3-0.8,2.1c0.1,0.1,0.1,0.2,0.2,0.4l2.7,5
	L83.6,110.3z"/>
<path d="M74.2,112.5l2.5-0.8l-2.4-7l1.4-0.5l2.4,7l2.5-0.8l0.4,1.1l-6.4,2.2L74.2,112.5z"/>
<path d="M69.1,107.3l-3.8,0.7l-0.2-1.2l5.3-0.9l1.4,8.4l-1.5,0.3L69.1,107.3z"/>
<path d="M61.9,106.9l1.5-0.1l0.5,8.5l-1.5,0.1L61.9,106.9z"/>
<path d="M52.9,106.5l1.5,0.1l3.3,6.4l0.5-6l1.5,0.1l-0.6,8.4l-1.5-0.1l-3.3-6.4l-0.5,6.1l-1.5-0.1L52.9,106.5z"/>
<path d="M45,108.5l3.4,0.9l0.7-2.5l-4-1l0.3-1.1l5.4,1.4l-2.1,8.3l-5.3-1.4l0.3-1.2l3.9,1l0.6-2.3l-3.4-0.9L45,108.5z"/>
<path d="M32,106.6l2.4,1.2l3.4-6.5l1.3,0.7l-3.4,6.5l2.3,1.2l-0.5,1.1l-6-3.1L32,106.6z"/>
<path d="M26.4,98.5c0.4-0.6,1-1.1,1.7-1.5c0.6-0.3,1.2-0.5,1.9-0.4c1.9,0.2,3.3,1.8,3.1,3.7c0,0.1,0,0.3-0.1,0.4
	c-0.2,0.7-0.5,1.4-1,2l-0.3,0.4c-0.4,0.6-1,1.1-1.7,1.5c-0.6,0.3-1.2,0.5-1.9,0.4c-1.3-0.2-2.4-1-3-2.2c-0.2-0.6-0.3-1.3-0.1-1.9
	c0.2-0.7,0.5-1.4,1-2L26.4,98.5z M27.3,99.7c-0.5,0.6-0.8,1.3-0.9,2c0,1,0.9,1.9,1.9,1.9c0.2,0,0.3,0,0.5-0.1
	c0.7-0.3,1.3-0.7,1.7-1.4l0.3-0.4c0.5-0.6,0.8-1.3,0.9-2.1c0-0.6-0.2-1.1-0.7-1.5c-0.5-0.4-1.1-0.5-1.7-0.3
	c-0.7,0.3-1.3,0.8-1.8,1.4L27.3,99.7z"/>
<path d="M19.8,92l-4.4,1l-1-1.3l6-1.1l2.5-2l0.9,1.2l-2.5,2l-2.4,5.6l-1-1.3L19.8,92z"/>
<path d="M13.6,81.4c0.7-0.4,1.4-0.6,2.1-0.7c0.6-0.1,1.3,0.1,1.9,0.4c0.6,0.3,1.1,0.8,1.4,1.4c0.3,0.6,0.5,1.2,0.4,1.9
	c0,0.7-0.3,1.3-0.7,1.8c-0.4,0.6-1,1.1-1.7,1.4l-0.4,0.2c-0.7,0.4-1.4,0.6-2.1,0.7c-0.7,0.1-1.3-0.1-1.9-0.4c-0.6-0.3-1-0.8-1.3-1.4
	c-0.3-0.6-0.5-1.2-0.4-1.9c0-0.6,0.3-1.3,0.7-1.8c0.5-0.6,1-1.1,1.7-1.4L13.6,81.4z M13.9,82.9c-0.7,0.3-1.3,0.9-1.6,1.5
	C12,85,12,85.6,12.4,86.1c0.3,0.5,0.8,0.9,1.4,1c0.8,0,1.5-0.1,2.1-0.5l0.4-0.2c0.7-0.3,1.3-0.9,1.6-1.5c0.3-0.5,0.2-1.2-0.1-1.7
	c-0.3-0.6-0.8-0.9-1.4-1c-0.8,0-1.5,0.2-2.2,0.6L13.9,82.9z"/>
<path d="M6.4,74.5l5.4-1.8c0.8-0.3,1.6-0.2,2.3,0.1c0.7,0.4,1.3,1.2,1.5,2c0.3,0.8,0.3,1.7,0,2.4c-0.3,0.7-1,1.3-1.8,1.5l-5.4,1.8
	l-0.5-1.4l5.4-1.8c0.5-0.1,0.9-0.4,1.1-0.8c0.2-0.4,0.2-0.9,0-1.4c-0.2-0.8-1-1.3-1.9-1.1c-0.1,0-0.3,0.1-0.4,0.1l-5.4,1.7L6.4,74.5
	z"/>
<path d="M10.3,67.3l0.2,1.6l3.3-0.5l0.2,1.5l-8.4,1.3l-0.4-3c-0.2-0.8-0.1-1.6,0.3-2.3c0.4-0.6,1.1-1,1.8-1.1c0.5-0.1,1,0,1.5,0.2
	c0.4,0.2,0.8,0.6,1,1l3.3-2.4h0.1l0.2,1.6L10.3,67.3z M9.4,69.1l-0.2-1.5c0-0.4-0.2-0.8-0.5-1.1c-0.3-0.2-0.7-0.3-1.1-0.3
	c-0.4,0-0.8,0.2-1,0.5c-0.2,0.4-0.3,0.8-0.2,1.3l0.2,1.6L9.4,69.1z"/>
<path d="M13,58.5l-8.5-0.8l0.3-2.9c0-0.8,0.3-1.5,0.8-2.1C6,52.2,6.7,52,7.4,52.1c0.4,0,0.7,0.2,1,0.4c0.3,0.3,0.5,0.6,0.6,1
	c0.1-0.4,0.4-0.8,0.8-1c0.4-0.2,0.8-0.3,1.3-0.3c0.7,0,1.4,0.4,1.8,0.9c0.4,0.7,0.6,1.5,0.4,2.3L13,58.5z M8.2,56.6l0.1-1.4
	c0.1-0.4,0-0.8-0.2-1.1c-0.2-0.3-0.5-0.5-0.8-0.5c-0.3-0.1-0.7,0-0.9,0.3C6.1,54.1,6,54.5,6,54.9l-0.1,1.4L8.2,56.6z M9.3,56.7
	l2.7,0.3l0.1-1.6c0.1-0.4,0-0.8-0.2-1.1c-0.2-0.3-0.6-0.5-0.9-0.5c-0.7-0.1-1.3,0.3-1.4,0.9c0,0.1,0,0.2,0,0.3L9.3,56.7z"/>
<path d="M7.3,42.4l5.5,1.5c0.8,0.2,1.5,0.7,1.9,1.4c0.4,0.8,0.4,1.6,0.2,2.4c-0.2,0.8-0.7,1.5-1.4,2c-0.7,0.4-1.5,0.5-2.3,0.3
	l-5.5-1.5L6,47.1l5.5,1.5c0.4,0.2,0.9,0.1,1.4-0.1c0.4-0.2,0.7-0.7,0.8-1.1c0.3-0.8-0.1-1.7-0.9-2c-0.1-0.1-0.3-0.1-0.4-0.1
	l-5.4-1.5L7.3,42.4z"/>
<path d="M16.2,37.8c-0.3-0.2-0.7-0.2-0.9,0c-0.4,0.3-0.8,0.6-1.2,1c-0.4,0.5-0.8,0.9-1.3,1.2c-0.6,0.5-1.5,0.6-2.2,0.3
	c-0.6-0.3-1.1-0.8-1.2-1.5c-0.2-0.8,0-1.6,0.3-2.3c0.2-0.5,0.6-0.9,1-1.3c0.4-0.3,0.8-0.5,1.3-0.6c0.5-0.1,1,0,1.4,0.2l-0.6,1.3
	c-0.3-0.2-0.8-0.2-1.1-0.1c-0.4,0.2-0.7,0.5-0.8,0.9c-0.2,0.4-0.3,0.8-0.2,1.2c0.1,0.3,0.3,0.6,0.6,0.7c0.3,0.1,0.6,0.1,0.9-0.1
	c0.4-0.3,0.8-0.6,1.2-1c0.4-0.4,0.8-0.8,1.3-1.2c0.3-0.2,0.7-0.4,1.2-0.4c0.4,0,0.8,0.1,1.2,0.2c0.6,0.2,1,0.8,1.2,1.4
	c0.1,0.8,0,1.6-0.4,2.3c-0.2,0.5-0.6,1-1,1.4c-0.4,0.3-0.9,0.6-1.4,0.7c-0.5,0.1-1,0-1.5-0.3l0.6-1.3c0.4,0.2,0.8,0.2,1.2,0
	c0.5-0.2,0.8-0.6,1-1.1c0.2-0.4,0.3-0.8,0.2-1.2C16.7,38.1,16.5,37.9,16.2,37.8z"/>
<path d="M20.6,34.5l-0.8,1.3l-7.2-4.5l0.8-1.3L20.6,34.5z"/>
<path d="M26.1,27.4l-1,1.1l-7.1-1l4.6,3.9l-1,1.1l-6.6-5.5l0.9-1.1l7.1,1l-4.7-3.9l0.9-1.1L26.1,27.4z"/>
<path d="M29,19.8l-2.7,2.3l1.7,2l3.1-2.7l0.8,0.9l-4.2,3.6l-5.5-6.5l4.2-3.6l0.8,0.9L24,19.4l1.5,1.8l2.7-2.3L29,19.8z"/>
<path d="M35.9,17.2c-0.2-0.3-0.5-0.5-0.8-0.5c-0.5,0-1,0.1-1.5,0.2c-0.6,0.2-1.2,0.3-1.8,0.3c-0.8,0.1-1.6-0.3-2-1
	c-0.4-0.6-0.4-1.3-0.2-1.9c0.3-0.7,0.8-1.3,1.5-1.7c0.5-0.3,1-0.5,1.5-0.5c0.5-0.1,1,0,1.4,0.2c0.4,0.2,0.8,0.5,1,0.9l-1.3,0.8
	c-0.2-0.3-0.5-0.6-0.9-0.7c-0.4-0.1-0.9,0.1-1.2,0.3c-0.4,0.2-0.6,0.5-0.8,0.9c-0.1,0.3-0.1,0.7,0.1,1c0.2,0.3,0.5,0.4,0.8,0.4
	c0.5,0,1-0.1,1.5-0.2c0.6-0.2,1.1-0.2,1.7-0.3c0.4,0,0.8,0.1,1.2,0.3c0.4,0.2,0.6,0.5,0.8,0.8c0.4,0.6,0.4,1.3,0.2,1.9
	c-0.3,0.7-0.9,1.3-1.5,1.6c-0.5,0.3-1.1,0.5-1.6,0.6c-0.5,0.1-1,0-1.5-0.2c-0.5-0.2-0.9-0.6-1.1-1l1.3-0.8c0.2,0.4,0.6,0.6,1,0.7
	c0.5,0,1-0.1,1.4-0.4c0.4-0.2,0.7-0.5,0.8-0.9C36.1,17.8,36.1,17.5,35.9,17.2z"/>
<path d="M43.2,13.8c-0.1-0.3-0.4-0.6-0.7-0.6c-0.5-0.1-1-0.1-1.5,0c-0.6,0.1-1.2,0.1-1.8,0c-0.8-0.1-1.5-0.6-1.8-1.3
	c-0.3-0.6-0.2-1.3,0.1-1.9c0.4-0.7,1-1.2,1.8-1.4c0.5-0.2,1.1-0.3,1.6-0.3c0.5,0,1,0.2,1.4,0.5c0.4,0.3,0.7,0.7,0.9,1.1l-1.4,0.6
	c-0.1-0.4-0.4-0.7-0.8-0.8c-0.4-0.1-0.9-0.1-1.3,0.1c-0.4,0.1-0.7,0.4-0.9,0.7c-0.2,0.3-0.2,0.7,0,1c0.1,0.3,0.4,0.5,0.7,0.6
	c0.5,0.1,1,0.1,1.5,0c0.6-0.1,1.2-0.1,1.7,0c0.4,0.1,0.8,0.2,1.1,0.5c0.3,0.2,0.6,0.6,0.7,0.9c0.3,0.6,0.2,1.3-0.1,1.9
	c-0.4,0.7-1.1,1.2-1.8,1.4c-0.5,0.2-1.1,0.3-1.7,0.3c-0.5,0-1-0.2-1.5-0.4c-0.4-0.3-0.7-0.7-0.9-1.1l1.4-0.6
	c0.1,0.4,0.5,0.7,0.9,0.9c0.5,0.1,1,0.1,1.4-0.1c0.4-0.1,0.8-0.4,1-0.7C43.3,14.5,43.3,14.1,43.2,13.8z"/>
</svg>
