<svg width="21" height="23" viewBox="0 0 21 23" fill="none" xmlns="http://www.w3.org/2000/svg">
<path d="M2.18623 20.1372C-0.549057 17.4021 -0.549057 12.9514 2.18623 10.2157L10.6906 1.71127C12.6445 -0.242405 15.8237 -0.242277 17.7774 1.71153C18.7544 2.68851 19.2429 3.97142 19.2428 5.25483C19.2426 6.53791 18.7543 7.8215 17.7774 8.79831L9.98173 16.5938C9.41387 17.1618 8.65883 17.4746 7.85574 17.4747C7.05261 17.4747 6.29761 17.162 5.72959 16.5939C4.55731 15.4215 4.55736 13.5139 5.7298 12.3418L10.8276 7.24383C11.219 6.85244 11.8536 6.85244 12.245 7.24374C12.6365 7.63509 12.6363 8.26968 12.245 8.66111L7.14712 13.7591C6.75634 14.1499 6.75625 14.7857 7.14704 15.1765C7.33632 15.3658 7.58802 15.4701 7.8557 15.4701C8.12338 15.4701 8.37499 15.3658 8.56436 15.1765L16.36 7.38095C17.5323 6.20859 17.5324 4.30117 16.3601 3.12889C15.1878 1.95662 13.2802 1.95653 12.1079 3.12868L3.6036 11.6331C1.64971 13.5871 1.64971 16.7662 3.6036 18.7199C4.55003 19.6664 5.80845 20.1877 7.14695 20.1877C8.48545 20.1877 9.74388 19.6664 10.6904 18.7199L19.1949 10.2156C19.5863 9.82425 20.2209 9.82425 20.6123 10.2157C20.8081 10.4114 20.9058 10.6679 20.9058 10.9243C20.9058 11.1808 20.8079 11.4373 20.6123 11.633L12.1078 20.1372C10.7828 21.4624 9.02099 22.1921 7.14699 22.1922C5.27305 22.1922 3.51127 21.4624 2.18623 20.1372Z" fill="white"/>
</svg>
