<?xml version="1.0" encoding="utf-8"?>
<!-- Generator: Adobe Illustrator 24.1.2, SVG Export Plug-In . SVG Version: 6.00 Build 0)  -->
<svg version="1.1" id="Layer_1" xmlns="http://www.w3.org/2000/svg" xmlns:xlink="http://www.w3.org/1999/xlink" x="0px" y="0px"
	 viewBox="0 0 120 120" style="enable-background:new 0 0 120 120;" xml:space="preserve">
<style type="text/css">
	.st0{fill:#FFFFFF;}
</style>
<circle cx="60.2" cy="59.6" r="39.3"/>
<path class="st0" d="M50,55.4h3.5v1.7H48v-10h2V55.4z"/>
<path class="st0" d="M57.6,57.2c-0.9,0.1-1.7-0.3-2.3-0.9c-0.6-0.7-0.9-1.6-0.8-2.5v-0.6c-0.1-1,0.2-1.9,0.8-2.7
	c0.5-0.6,1.4-1,2.2-1c0.8-0.1,1.6,0.3,2.1,0.9c0.5,0.8,0.8,1.7,0.7,2.6V54h-3.8c0,0.4,0.1,0.9,0.4,1.2c0.3,0.3,0.6,0.4,1,0.4
	c0.6,0,1.2-0.2,1.6-0.6l0.8,1.2c-0.3,0.4-0.6,0.6-1,0.8C58.6,57.2,58.1,57.3,57.6,57.2z M56.4,52.7h1.9v-0.2c0-0.3-0.1-0.7-0.2-1
	c-0.2-0.2-0.4-0.4-0.7-0.3c-0.3,0-0.6,0.1-0.7,0.4C56.5,51.9,56.4,52.3,56.4,52.7z"/>
<path class="st0" d="M63.6,47.9v1.8h1v1.5h-1v3.7c0,0.2,0,0.4,0.1,0.6c0.1,0.1,0.3,0.2,0.5,0.2c0.2,0,0.3,0,0.5,0V57
	c-0.3,0.1-0.7,0.2-1.1,0.2c-1.3,0-1.9-0.7-1.9-2.2v-3.9h-0.9v-1.5h0.9v-1.8H63.6z"/>
<path class="st0" d="M66.4,50.2l-0.9-0.5c0.3-0.6,0.5-1.2,0.5-1.9v-1.2h1.5v1.1c0,0.5-0.1,0.9-0.3,1.3
	C67.1,49.5,66.8,49.9,66.4,50.2z"/>
<path class="st0" d="M70.6,55.1c0-0.2-0.1-0.3-0.2-0.5c-0.3-0.2-0.7-0.4-1.1-0.6c-0.6-0.2-1.2-0.5-1.7-1c-0.3-0.4-0.5-0.8-0.4-1.3
	c0-0.6,0.3-1.2,0.8-1.6c0.5-0.4,1.2-0.7,1.8-0.6c0.7,0,1.4,0.2,2,0.6c0.5,0.4,0.8,1,0.7,1.7h-2c0-0.6-0.3-0.9-0.8-0.9
	c-0.2,0-0.4,0.1-0.5,0.2c-0.1,0.1-0.2,0.3-0.2,0.5c0,0.2,0.1,0.3,0.2,0.4c0.3,0.2,0.6,0.4,1,0.5c0.6,0.2,1.2,0.5,1.7,1
	c0.8,0.9,0.6,2.2-0.3,3c-0.6,0.4-1.3,0.6-2,0.6c-0.5,0-1-0.1-1.4-0.3c-0.4-0.2-0.8-0.5-1-0.9c-0.2-0.4-0.3-0.8-0.3-1.2h1.8
	c0,0.3,0.1,0.5,0.2,0.8c0.2,0.2,0.5,0.3,0.7,0.3C70.4,55.8,70.6,55.6,70.6,55.1z"/>
<path class="st0" d="M52.5,64.7v1.8h1V68h-1v3.7c0,0.2,0,0.4,0.1,0.6c0.1,0.1,0.2,0.2,0.5,0.2c0.1,0,0.3,0,0.5,0V74
	c-0.3,0.1-0.7,0.2-1.1,0.2c-1.2,0-1.9-0.7-1.9-2.2v-4h-0.8v-1.5h0.8v-1.8H52.5z"/>
<path class="st0" d="M58.1,73.9c-0.1-0.2-0.1-0.4-0.2-0.6c-0.3,0.5-0.9,0.7-1.4,0.7c-0.6,0-1.1-0.2-1.5-0.6c-0.4-0.4-0.6-1-0.6-1.6
	c-0.1-0.7,0.2-1.4,0.7-1.8c0.6-0.5,1.4-0.7,2.1-0.7h0.6v-0.6c0-0.2,0-0.5-0.2-0.7c-0.1-0.1-0.3-0.2-0.5-0.2c-0.5,0-0.7,0.3-0.7,0.8
	h-1.9c0-0.7,0.3-1.3,0.8-1.7c0.6-0.5,1.3-0.7,2-0.7c0.7,0,1.4,0.2,1.9,0.6c0.5,0.5,0.7,1.1,0.7,1.8v3.5c0,0.5,0.1,1,0.3,1.5v0.1
	L58.1,73.9z M56.9,72.5c0.2,0,0.4,0,0.5-0.1c0.1-0.1,0.3-0.2,0.3-0.3v-1.5h-0.5c-0.3,0-0.6,0.1-0.8,0.3c-0.2,0.2-0.3,0.5-0.3,0.8
	C56.3,72.2,56.5,72.5,56.9,72.5z"/>
<path class="st0" d="M63.2,73.9h-1.9V63.4h1.9V73.9z"/>
<path class="st0" d="M67.1,71l-0.5,0.6v2.3h-1.9V63.4h1.9v5.7l0.2-0.4l1.3-2.2h2.3l-2.2,3l2.4,4.3h-2.2L67.1,71z"/>
</svg>
