<?xml version="1.0" encoding="utf-8"?>
<!-- Generator: Adobe Illustrator 24.1.2, SVG Export Plug-In . SVG Version: 6.00 Build 0)  -->
<svg version="1.1" id="Layer_1" xmlns="http://www.w3.org/2000/svg" xmlns:xlink="http://www.w3.org/1999/xlink" x="0px" y="0px"
	 viewBox="0 0 120 120" style="enable-background:new 0 0 120 120;" xml:space="preserve">
<g>
	<path d="M75.1,13.2c0.1-0.4,0.1-0.7-0.1-0.9c-0.2-0.3-0.6-0.6-1.2-1c-0.6-0.4-1.1-0.8-1.4-1.1c-0.6-0.7-0.8-1.4-0.6-2.2
		C72,7.3,72.4,6.8,73,6.6c0.7-0.3,1.4-0.3,2.3,0c0.6,0.2,1,0.4,1.4,0.8s0.7,0.7,0.8,1.2c0.1,0.5,0.1,0.9,0,1.4l-1.4-0.4
		c0.1-0.4,0.1-0.8-0.1-1.1c-0.2-0.3-0.5-0.6-1-0.7c-0.5-0.1-0.9-0.1-1.2,0S73.3,8,73.2,8.4c-0.1,0.3,0,0.6,0.2,0.9
		c0.2,0.3,0.6,0.6,1.2,1c0.6,0.4,1,0.7,1.3,1.1c0.3,0.4,0.5,0.7,0.6,1.1c0.1,0.4,0.1,0.8,0,1.2c-0.2,0.7-0.6,1.2-1.3,1.4
		c-0.6,0.3-1.4,0.2-2.3,0c-0.6-0.2-1.1-0.4-1.5-0.8c-0.4-0.4-0.7-0.8-0.9-1.2s-0.2-1,0-1.5l1.4,0.4c-0.1,0.5-0.1,0.9,0.1,1.2
		c0.2,0.3,0.6,0.6,1.2,0.8c0.5,0.1,0.9,0.2,1.2,0C74.8,13.7,75,13.5,75.1,13.2z"/>
	<path d="M84.5,16.7c-0.5,0.8-1.1,1.3-1.8,1.5c-0.8,0.2-1.6,0.1-2.4-0.3c-0.6-0.3-1.1-0.7-1.4-1.2c-0.3-0.5-0.5-1.1-0.5-1.8
		c0-0.7,0.2-1.3,0.5-2.1l0.3-0.7c0.4-0.7,0.8-1.3,1.3-1.7c0.5-0.4,1.1-0.7,1.7-0.7c0.6-0.1,1.3,0.1,1.9,0.4c0.8,0.4,1.4,1,1.7,1.7
		s0.3,1.5,0,2.4l-1.3-0.6c0.2-0.6,0.2-1.1,0.1-1.4c-0.1-0.4-0.5-0.7-1-0.9c-0.6-0.3-1.1-0.3-1.6,0c-0.5,0.3-1,0.8-1.4,1.6l-0.3,0.7
		c-0.4,0.8-0.6,1.5-0.5,2.1s0.4,1,1,1.3c0.5,0.3,1,0.3,1.4,0.2s0.7-0.4,1.1-0.9L84.5,16.7z"/>
	<path d="M89.2,19.3l-1.3-1L86,21l-1.2-0.9l5-6.9l2.4,1.8c0.8,0.6,1.3,1.2,1.5,1.9c0.2,0.7,0,1.3-0.5,2c-0.3,0.5-0.7,0.8-1.2,0.9
		c-0.4,0.1-0.9,0.2-1.5,0l-0.5,4l0,0.1L88.7,23L89.2,19.3z M88.6,17.4l1.2,0.9c0.4,0.3,0.8,0.4,1.2,0.4c0.4,0,0.7-0.2,0.9-0.6
		c0.3-0.4,0.4-0.7,0.3-1.1c-0.1-0.4-0.3-0.7-0.7-1L90.3,15L88.6,17.4z"/>
	<path d="M98.7,27c-0.6,0.6-1.2,1-1.9,1.2s-1.3,0.3-1.9,0.1c-0.6-0.2-1.2-0.5-1.6-1c-0.5-0.5-0.8-1.1-0.9-1.7
		c-0.1-0.6-0.1-1.3,0.2-1.9c0.2-0.6,0.7-1.3,1.3-1.8l0.3-0.3c0.6-0.6,1.2-1,1.9-1.2c0.7-0.2,1.3-0.3,1.9-0.1c0.6,0.2,1.2,0.5,1.6,1
		c0.5,0.5,0.8,1.1,0.9,1.7c0.1,0.6,0.1,1.3-0.2,1.9s-0.7,1.3-1.3,1.8L98.7,27z M98,25.6c0.7-0.7,1.1-1.3,1.2-1.9s-0.1-1.1-0.5-1.6
		c-0.4-0.5-1-0.6-1.6-0.6c-0.6,0.1-1.3,0.4-1.9,1.1l-0.4,0.3c-0.7,0.6-1.1,1.3-1.2,1.9c-0.1,0.6,0,1.2,0.5,1.6
		c0.5,0.5,1,0.7,1.6,0.6c0.6-0.1,1.3-0.5,1.9-1.1L98,25.6z"/>
	<path d="M98.7,31.9l2.2,3.2l-1,0.7l-3-4.4l7.1-4.8l0.8,1.2L98.7,31.9z"/>
	<path d="M102.3,37.9l1.7,3.5l-1.1,0.5l-2.3-4.8l7.7-3.7l0.6,1.3L102.3,37.9z"/>
	<path d="M104.6,46.7l8.4-1.7l0.5,2.5c0.2,0.7,0.1,1.4-0.1,2.1c-0.2,0.6-0.6,1.2-1.1,1.6c-0.5,0.4-1.2,0.7-2,0.9l-0.4,0.1
		c-0.8,0.2-1.5,0.2-2.2,0c-0.7-0.2-1.2-0.5-1.7-1.1c-0.4-0.5-0.7-1.2-0.9-1.9L104.6,46.7z M112,46.7l-6,1.2l0.2,0.9
		c0.2,0.8,0.5,1.3,1.1,1.6c0.6,0.3,1.3,0.4,2.2,0.2l0.5-0.1c0.9-0.2,1.6-0.5,2-1c0.4-0.5,0.5-1.1,0.4-1.9L112,46.7z"/>
	<path d="M110.2,61.5c-0.8,0-1.6-0.1-2.2-0.4c-0.6-0.3-1.1-0.7-1.5-1.2c-0.3-0.5-0.5-1.1-0.5-1.8c0-0.7,0.1-1.3,0.5-1.9
		s0.8-1,1.4-1.3s1.3-0.5,2.2-0.5l0.5,0c0.8,0,1.6,0.1,2.2,0.4c0.6,0.3,1.1,0.7,1.5,1.2c0.3,0.5,0.5,1.1,0.5,1.8
		c0,0.7-0.1,1.3-0.5,1.9c-0.3,0.5-0.8,1-1.4,1.3c-0.6,0.3-1.3,0.5-2.2,0.5L110.2,61.5z M110.7,60c0.9,0,1.7-0.2,2.2-0.6
		c0.5-0.4,0.7-0.9,0.7-1.5c0-0.6-0.3-1.1-0.8-1.5s-1.2-0.5-2.1-0.5l-0.5,0c-0.9,0-1.7,0.2-2.2,0.6s-0.7,0.9-0.7,1.5
		c0,0.7,0.3,1.2,0.8,1.5s1.2,0.5,2.2,0.5L110.7,60z"/>
	<path d="M107,70.4l6.1,2.5l-0.3,1.4l-8-3.5l0.3-1.4l6.4-0.4l-5.8-2.8l0.3-1.4l8.7-0.3l-0.3,1.4l-6.5,0.1l6,2.8l-0.2,1.2L107,70.4z"
		/>
	<path d="M101.2,80.3l0.6-1.4l7.1-1.1l-5.6-2.4l0.6-1.4l7.9,3.3l-0.6,1.4l-7.1,1.1l5.6,2.4l-0.6,1.4L101.2,80.3z"/>
	<path d="M96.9,90.1l2-2.6l-1.1-1.8l1-1.2l4.7,7.8l-0.8,1l-8.7-2.7l1-1.2L96.9,90.1z M99.6,88.6l-1.5,1.9l3.5,1.2L99.6,88.6z"/>
	<path d="M87.9,96l1.1-1l6.9,2l-4-4.5l1.1-1l5.6,6.4l-1.1,1l-6.9-2l4,4.6l-1.1,1L87.9,96z"/>
	<path d="M86.1,97.3l4.4,7.3l-2.2,1.3c-0.6,0.4-1.3,0.6-2,0.6c-0.7,0-1.3-0.2-1.9-0.5c-0.6-0.4-1.1-0.9-1.5-1.6l-0.2-0.4
		c-0.4-0.7-0.6-1.4-0.7-2.1c0-0.7,0.1-1.3,0.5-1.9s0.8-1.1,1.5-1.5L86.1,97.3z M88.6,104.3L85.5,99l-0.8,0.5
		c-0.7,0.4-1.1,0.9-1.2,1.5s0.1,1.3,0.5,2.1l0.2,0.4c0.5,0.8,1,1.3,1.6,1.5c0.6,0.2,1.2,0.1,1.9-0.3L88.6,104.3z"/>
	<path d="M72,106c0.1,0.4,0.3,0.6,0.6,0.7c0.3,0.1,0.8,0.2,1.5,0.2s1.3,0.1,1.8,0.2c0.9,0.3,1.4,0.8,1.7,1.5
		c0.2,0.7,0.1,1.3-0.3,1.9c-0.4,0.6-1,1-1.9,1.3c-0.6,0.2-1.1,0.2-1.6,0.1c-0.5-0.1-0.9-0.3-1.3-0.6c-0.4-0.3-0.6-0.7-0.8-1.2
		l1.4-0.4c0.1,0.4,0.4,0.7,0.7,0.9s0.8,0.2,1.3,0c0.5-0.1,0.8-0.3,1-0.6c0.2-0.3,0.2-0.6,0.1-0.9c-0.1-0.3-0.3-0.5-0.6-0.6
		c-0.3-0.1-0.9-0.2-1.5-0.2c-0.7,0-1.3-0.1-1.7-0.2c-0.5-0.1-0.8-0.3-1.1-0.6c-0.3-0.3-0.5-0.6-0.6-1c-0.2-0.7-0.1-1.3,0.3-1.9
		s1.1-1,2-1.2c0.6-0.2,1.2-0.2,1.7-0.2c0.6,0.1,1,0.3,1.4,0.6c0.4,0.3,0.7,0.7,0.8,1.2l-1.4,0.4c-0.1-0.5-0.4-0.8-0.8-0.9
		c-0.4-0.2-0.9-0.2-1.4,0c-0.5,0.1-0.8,0.4-1,0.6C72,105.4,71.9,105.7,72,106z"/>
	<path d="M63.1,112.6l2.6-0.3l-0.9-7.3l1.5-0.2l0.9,7.3l2.6-0.3l0.1,1.2l-6.7,0.8L63.1,112.6z"/>
	<path d="M56.5,107.2l3.3,0.1l0.8-2l1.5,0.1l-3.5,8.4l-1.3,0l-2.9-8.6l1.5,0.1L56.5,107.2z M59.3,108.5l-2.5-0.1L58,112L59.3,108.5z
		"/>
	<path d="M49.2,107.4l1.6,0.3l0.7-3.2l1.4,0.3l-1.8,8.3l-2.9-0.6c-1-0.2-1.7-0.6-2.1-1.1s-0.6-1.2-0.4-2c0.1-0.6,0.4-1,0.7-1.3
		s0.8-0.5,1.3-0.6l-1.1-3.9l0-0.1l1.6,0.3L49.2,107.4z M50.6,108.9l-1.5-0.3c-0.5-0.1-0.9-0.1-1.2,0.1c-0.3,0.2-0.5,0.5-0.6,0.9
		c-0.1,0.4,0,0.8,0.2,1.1c0.2,0.3,0.6,0.5,1.1,0.6l1.5,0.3L50.6,108.9z"/>
	<path d="M37.2,107.6l2.5,1l2.7-6.8l1.4,0.5l-2.7,6.8l2.5,1l-0.4,1.1l-6.3-2.5L37.2,107.6z"/>
	<path d="M29.1,96.3l-4.9,4.3L23,99.7l6.7-5.6l1.1,0.9l-2.5,5.9l5.1-4l1.1,0.9l-3.6,8l-1.2-0.9l2.8-5.9l-5.2,4.1l-1-0.7L29.1,96.3z"
		/>
	<path d="M19.8,89.3c0.6-0.5,1.3-0.9,1.9-1.1c0.7-0.2,1.3-0.2,1.9,0s1.1,0.5,1.6,1.1c0.5,0.5,0.7,1.1,0.8,1.7c0.1,0.6,0,1.3-0.3,1.9
		s-0.7,1.2-1.3,1.8l-0.4,0.3c-0.6,0.5-1.3,0.9-2,1.1c-0.7,0.2-1.3,0.2-1.9,0c-0.6-0.2-1.1-0.5-1.6-1.1c-0.5-0.5-0.7-1.1-0.8-1.7
		c-0.1-0.6,0-1.3,0.3-1.9c0.3-0.6,0.7-1.2,1.4-1.8L19.8,89.3z M20.4,90.7c-0.7,0.6-1.1,1.2-1.3,1.8c-0.1,0.6,0,1.1,0.4,1.6
		c0.4,0.5,0.9,0.7,1.6,0.6c0.6-0.1,1.3-0.4,2-1l0.4-0.3c0.7-0.6,1.1-1.2,1.3-1.8s0-1.2-0.4-1.7c-0.4-0.5-0.9-0.7-1.6-0.7
		c-0.6,0.1-1.3,0.4-2,1L20.4,90.7z"/>
	<path d="M17.3,84.1l0.8,1.4l2.8-1.7l0.8,1.3l-7.3,4.4l-1.5-2.6c-0.5-0.8-0.7-1.6-0.6-2.3s0.5-1.2,1.2-1.7c0.5-0.3,1-0.4,1.4-0.4
		c0.5,0,0.9,0.2,1.4,0.5l2.1-3.5l0.1,0l0.8,1.4L17.3,84.1z M17.2,86.1l-0.8-1.3c-0.3-0.4-0.6-0.7-0.9-0.8s-0.7-0.1-1.1,0.2
		c-0.4,0.2-0.6,0.5-0.7,0.9s0,0.8,0.3,1.2l0.8,1.3L17.2,86.1z"/>
	<path d="M13.6,77.3l1.3,0.5l2.5-0.9l0.5,1.4l-8,3l-0.5-1.4l3.7-1.4l-1.2-0.4l-3.7-1.3l-0.6-1.7l4.7,1.6l3.2-4.8l0.6,1.6L13.6,77.3z
		"/>
	<path d="M15,69.2l0.3,1.4l-8.3,2l-0.3-1.4L15,69.2z"/>
	<path d="M13.8,60.2l0.1,1.5L8.2,66l6-0.6l0.1,1.5l-8.5,0.8l-0.1-1.5l5.7-4.4l-6,0.6L5.3,61L13.8,60.2z"/>
	<path d="M13.3,51.5c0.4,0.3,0.6,0.8,0.8,1.4c0.2,0.6,0.2,1.2,0.1,1.9c-0.1,0.7-0.3,1.3-0.7,1.8c-0.4,0.5-0.9,0.9-1.5,1.1
		c-0.6,0.2-1.3,0.3-2.1,0.3l-0.7-0.1c-1.3-0.1-2.3-0.5-2.9-1.2c-0.7-0.7-0.9-1.6-0.8-2.7c0.1-0.9,0.4-1.7,0.9-2.2s1.2-0.8,2.1-0.8
		l-0.1,1.4c-1,0.1-1.6,0.6-1.7,1.6c-0.1,0.7,0.1,1.2,0.6,1.6s1.1,0.6,2,0.7l0.7,0.1c0.9,0.1,1.6,0,2.2-0.4s0.8-0.9,0.9-1.5
		c0.1-0.8-0.1-1.3-0.4-1.7L11,52.8l-0.2,1.8l-1.1-0.1l0.3-3.2L13.3,51.5z"/>
	<path d="M16,39.2l-5.5-3.6l0.5-1.4l7.2,5l-0.5,1.3l-6.4-0.8l5.2,3.8L16,44.9l-8.7-1.3l0.5-1.4l6.4,1.1L9,39.5l0.5-1.2L16,39.2z"/>
	<path d="M20.8,34.9L20,36.1l-7.3-4.4l0.8-1.3L20.8,34.9z"/>
	<path d="M19.9,23.6l-1.6,2.1l5.8,4.5l-0.9,1.2l-5.8-4.5L15.7,29l-0.9-0.7l4.2-5.3L19.9,23.6z"/>
	<path d="M31.7,22.5l-1.1,1l-2.5-2.8l-2.8,2.5l2.5,2.8l-1.1,1L21,20.7l1.1-1l2.4,2.6l2.8-2.5l-2.4-2.6l1.1-1L31.7,22.5z"/>
	<path d="M38.1,8.9l2.6,5.1c0.4,0.8,0.5,1.6,0.2,2.3s-0.8,1.3-1.7,1.8c-0.9,0.4-1.7,0.6-2.4,0.4c-0.7-0.2-1.3-0.7-1.8-1.5l-2.6-5.1
		l1.3-0.7l2.6,5.1c0.3,0.5,0.6,0.8,1,1c0.4,0.1,0.8,0.1,1.3-0.2c1-0.5,1.3-1.3,0.7-2.4l-2.6-5L38.1,8.9z"/>
	<path d="M47.4,12.4c-0.1-0.4-0.3-0.6-0.6-0.7c-0.3-0.1-0.8-0.2-1.5-0.2c-0.7,0-1.3-0.1-1.8-0.2c-0.9-0.2-1.4-0.7-1.7-1.5
		c-0.2-0.7-0.1-1.3,0.3-1.9s1-1,1.9-1.3c0.6-0.2,1.1-0.2,1.6-0.2s0.9,0.3,1.3,0.6s0.6,0.7,0.8,1.2l-1.4,0.4
		c-0.1-0.4-0.4-0.7-0.7-0.9c-0.3-0.2-0.8-0.2-1.3,0c-0.5,0.1-0.8,0.4-1,0.6c-0.2,0.3-0.2,0.6-0.1,0.9c0.1,0.3,0.3,0.5,0.6,0.6
		c0.3,0.1,0.9,0.2,1.5,0.2c0.7,0,1.3,0.1,1.7,0.2s0.8,0.3,1.1,0.6s0.5,0.6,0.6,1c0.2,0.7,0.1,1.3-0.3,1.9c-0.4,0.6-1,1-1.9,1.3
		c-0.6,0.2-1.2,0.2-1.7,0.2c-0.6-0.1-1-0.3-1.4-0.6c-0.4-0.3-0.7-0.7-0.8-1.2l1.4-0.4c0.1,0.5,0.4,0.8,0.8,0.9
		c0.4,0.2,0.9,0.2,1.4,0c0.5-0.2,0.8-0.4,1-0.6C47.5,13.1,47.5,12.8,47.4,12.4z"/>
</g>
</svg>
