<svg width="166" height="161" viewBox="0 0 166 161" fill="none" xmlns="http://www.w3.org/2000/svg">
<path d="M52.7503 150.951L55.3738 152.03L56.6855 150.294L58.6999 151.138L51.7665 159.441L49.9863 158.69L50.9701 147.902L53.0314 148.746L52.7503 150.951ZM54.2963 153.437L52.5161 152.686L52.0008 156.439L54.2963 153.437Z" fill="white" fill-opacity="0.3"/>
<path d="M34.5269 142.319L37.1035 144.29L39.6333 140.912L41.3198 142.179L35.136 150.435L30.5449 147.01L31.5756 145.603L34.4801 147.808L36.0729 145.697L33.4963 143.727L34.5269 142.319Z" fill="white" fill-opacity="0.3"/>
<path d="M29.28 134.627L31.2944 136.644L33.1683 135.518L34.7142 137.066L25.1574 142.132L23.7988 140.772L28.7646 131.155L30.3575 132.703L29.28 134.627ZM29.7484 137.535L28.3899 136.175L26.4691 139.458L29.7484 137.535Z" fill="white" fill-opacity="0.3"/>
<path d="M15.9743 131.578L20.987 125.714L13.7725 128.388L12.2266 126.136L20.7059 120.226L21.924 121.961L19.6284 123.556L15.9743 125.855L22.9546 123.462L23.751 124.635L19.1131 130.405L22.533 127.778L24.8285 126.183L25.9997 127.872L17.5203 133.782L15.9743 131.578Z" fill="white" fill-opacity="0.3"/>
<path d="M17.3344 113.752L18.2713 115.629L8.99554 120.226L8.05859 118.349L17.3344 113.752Z" fill="white" fill-opacity="0.3"/>
<path d="M12.8839 107.607L11.6659 104.136L13.3055 103.573L15.1794 109.015L5.43516 112.392L4.7793 110.422L12.8839 107.607Z" fill="white" fill-opacity="0.3"/>
<path d="M6.37184 99.1171L1.49972 98.5542L1.03125 96.3495L8.05834 97.6629L11.7124 96.8655L12.1341 98.9294L8.47996 99.7269L2.62406 103.808L2.15559 101.603L6.37184 99.1171Z" fill="white" fill-opacity="0.3"/>
<path d="M10.3532 80.7291L10.3064 82.7931L0 82.6055L0.0468466 80.5415L10.3532 80.7291Z" fill="white" fill-opacity="0.3"/>
<path d="M8.57271 70.8314C8.15108 70.7845 7.82315 70.8314 7.58891 71.019C7.35468 71.2066 7.07359 71.5819 6.74566 72.0979C6.23034 73.083 5.66818 73.7397 5.05916 74.1149C4.497 74.4902 3.84113 74.6309 3.09157 74.5371C2.24832 74.3964 1.59246 74.0211 1.12399 73.3175C0.702363 72.6139 0.514974 71.8164 0.655516 70.8783C0.749211 70.2685 0.9366 69.7056 1.31138 69.2365C1.68616 68.7674 2.06094 68.4391 2.57626 68.2514C3.09158 68.0638 3.65374 68.0169 4.26275 68.0638L3.98167 70.1277C3.5132 70.0808 3.13842 70.1277 2.85734 70.2685C2.57626 70.4092 2.38887 70.6906 2.34202 71.1128C2.29517 71.4881 2.34202 71.7695 2.52941 72.0041C2.7168 72.2386 2.99788 72.3793 3.32581 72.4262C3.60689 72.4732 3.88798 72.3793 4.12222 72.1917C4.4033 72.0041 4.68438 71.6288 5.01231 71.1128C5.52763 70.1747 6.04295 69.5179 6.65197 69.1427C7.26098 68.7674 7.91684 68.6267 8.76009 68.7674C9.65019 68.9081 10.3061 69.2834 10.7277 69.8932C11.1493 70.5499 11.2898 71.3474 11.1493 72.3324C11.0556 72.9891 10.8214 73.5989 10.4934 74.068C10.1655 74.584 9.69704 74.9593 9.13487 75.1938C8.57271 75.4284 7.96369 75.4753 7.26098 75.3815L7.54206 73.3175C8.15108 73.4113 8.5727 73.3644 8.85379 73.1768C9.13487 72.9891 9.32226 72.6139 9.41595 72.0979C9.65019 71.3474 9.32226 70.9252 8.57271 70.8314Z" fill="white" fill-opacity="0.3"/>
<path d="M14.5692 52.5373L13.4449 55.1641L15.1782 56.4776L14.335 58.4946L6.08984 51.5053L6.8394 49.7228L17.6143 50.7548L16.771 52.8187L14.5692 52.5373ZM12.0394 54.0383L12.789 52.2558L9.04122 51.6929L12.0394 54.0383Z" fill="white" fill-opacity="0.3"/>
<path d="M19.3486 44.2813L21.2693 41.1854L22.7216 42.0766L19.7233 46.9551L10.9629 41.5137L12.0404 39.7312L19.3486 44.2813Z" fill="white" fill-opacity="0.3"/>
<path d="M26.4689 31.2409L22.2058 26.2217L23.5644 24.6737L30.1699 32.8357L28.8113 34.4306L23.4239 31.3347L27.2185 36.2131L25.8599 37.808L16.8652 32.4136L18.2238 30.8187L23.7518 34.3368L19.6292 29.1769L20.7536 27.8635L26.4689 31.2409Z" fill="white" fill-opacity="0.3"/>
<path d="M36.9158 23.9232L34.7139 25.7057L35.604 27.6758L33.8707 29.0831L29.8887 18.9978L31.3878 17.7782L40.4293 23.7824L38.6959 25.1897L36.9158 23.9232ZM33.9644 24.0639L35.4635 22.8443L32.4184 20.5927L33.9644 24.0639Z" fill="white" fill-opacity="0.3"/>
<path d="M43.0064 15.4797L41.9758 10.695L43.9434 9.52234L44.9272 16.6055L46.8479 19.8421L45.0209 20.921L43.1001 17.6844L37.3848 13.4157L39.3524 12.243L43.0064 15.4797Z" fill="white" fill-opacity="0.3"/>
<path d="M56.0303 12.4776C55.8897 12.1023 55.6555 11.8209 55.3744 11.7271C55.0933 11.5863 54.6717 11.5394 54.0158 11.5394C52.8915 11.5394 52.0482 11.3987 51.4392 11.0703C50.8302 10.742 50.3617 10.2729 50.1275 9.56928C49.7996 8.77184 49.8464 7.9744 50.2212 7.27077C50.596 6.56715 51.2518 6.00425 52.0951 5.67589C52.7041 5.44135 53.2663 5.34753 53.8284 5.44135C54.3906 5.53516 54.9059 5.7228 55.3276 6.05116C55.7492 6.42642 56.0771 6.8486 56.3114 7.4584L54.3906 8.20894C54.2032 7.73986 53.969 7.45841 53.6879 7.31769C53.4068 7.17696 53.0789 7.13005 52.7041 7.31769C52.3762 7.45841 52.1419 7.64604 52.0482 7.92749C51.9545 8.20894 51.9545 8.49039 52.0951 8.86565C52.1888 9.1471 52.423 9.33473 52.7041 9.47546C52.9852 9.61618 53.4537 9.66309 54.1095 9.71C55.187 9.66309 56.0303 9.80383 56.6393 10.1322C57.2483 10.4605 57.7168 10.9765 58.0447 11.774C58.3726 12.6183 58.3726 13.3689 58.0447 14.0725C57.7168 14.7761 57.0609 15.2921 56.1708 15.6204C55.5618 15.855 54.9528 15.9488 54.3438 15.9019C53.7347 15.855 53.1726 15.6674 52.7041 15.2921C52.2356 14.9168 51.8608 14.4477 51.5798 13.791L53.5005 12.9936C53.7347 13.5565 53.969 13.8848 54.2969 14.0725C54.6248 14.2601 54.9996 14.2132 55.5149 14.0256C56.124 13.6972 56.3113 13.1812 56.0303 12.4776Z" fill="white" fill-opacity="0.3"/>
<path d="M74.2525 8.06827C74.2056 7.6461 74.0651 7.36465 73.8309 7.17702C73.5966 6.98939 73.175 6.80175 72.566 6.66103C71.4885 6.37958 70.6921 6.05123 70.1768 5.58214C69.6615 5.11306 69.3335 4.50325 69.2867 3.79963C69.193 2.95528 69.3804 2.20475 69.9425 1.59494C70.5047 0.985136 71.2543 0.609868 72.1912 0.516052C72.8002 0.422235 73.4092 0.516056 73.9246 0.703689C74.4399 0.891322 74.8615 1.21968 75.1894 1.68876C75.5174 2.15784 75.7048 2.67384 75.7985 3.28364L73.7372 3.56509C73.6903 3.096 73.5498 2.72074 73.2687 2.4862C72.9876 2.25166 72.7065 2.15784 72.3318 2.20475C71.957 2.25166 71.7227 2.39238 71.5353 2.62692C71.348 2.86146 71.3011 3.18983 71.348 3.51818C71.3948 3.79963 71.5353 4.03417 71.7696 4.22181C72.0038 4.40944 72.4723 4.59707 73.0345 4.7847C74.0651 5.01925 74.8615 5.3476 75.3768 5.81668C75.8922 6.28577 76.2201 6.94248 76.3138 7.73993C76.4075 8.63118 76.2201 9.3817 75.7516 9.9446C75.2363 10.5075 74.4867 10.8828 73.5498 10.9766C72.8939 11.0704 72.2849 11.0235 71.6759 10.789C71.0669 10.5544 70.5984 10.273 70.2705 9.80388C69.8957 9.3348 69.6614 8.7719 69.5678 8.06827L71.629 7.78684C71.7227 8.39664 71.8633 8.7719 72.1444 9.05335C72.4254 9.28789 72.8002 9.38171 73.3155 9.28789C74.0183 9.28789 74.3462 8.86571 74.2525 8.06827Z" fill="white" fill-opacity="0.3"/>
<path d="M88.3532 1.87633L85.8234 1.82942L85.5892 10.4136L83.4811 10.3667L83.7153 1.78251L81.1855 1.7356L81.2324 0L88.4 0.18763L88.3532 1.87633Z" fill="white" fill-opacity="0.3"/>
<path d="M96.4587 7.83359L95.428 7.64596L94.7253 11.3517L92.6641 10.9764L94.538 0.797363L97.8173 1.40717C98.8479 1.5948 99.5975 2.01697 100.066 2.62678C100.534 3.23659 100.675 4.08093 100.488 5.06601C100.253 6.42634 99.5506 7.27069 98.4731 7.64596L99.5038 12.1491V12.243L97.3019 11.8208L96.4587 7.83359ZM95.756 5.95727L96.9272 6.19181C97.3488 6.28562 97.6767 6.19181 97.9109 5.95727C98.1452 5.72273 98.3326 5.39437 98.4263 4.92529C98.6137 3.89331 98.3326 3.3304 97.5362 3.18968L96.3181 2.95514L95.756 5.95727Z" fill="white" fill-opacity="0.3"/>
<path d="M112.105 11.9147C111.637 13.2282 110.981 14.1194 110.091 14.6354C109.2 15.1514 108.217 15.1983 107.139 14.7761C106.062 14.4009 105.312 13.6972 104.937 12.7591C104.563 11.8209 104.609 10.6951 105.078 9.42859L105.687 7.7868C106.155 6.47337 106.858 5.5352 107.748 4.9723C108.638 4.45631 109.622 4.3625 110.746 4.78467C111.824 5.15994 112.527 5.86356 112.901 6.80173C113.276 7.7868 113.182 8.91259 112.714 10.226L112.105 11.9147ZM110.7 9.56931C111.027 8.67806 111.121 7.97443 111.027 7.45844C110.934 6.94245 110.606 6.56719 110.091 6.37956C109.575 6.19192 109.107 6.23883 108.732 6.56719C108.357 6.89554 107.982 7.45844 107.654 8.30278L107.045 10.0384C106.718 10.8827 106.624 11.5395 106.764 12.0554C106.858 12.5714 107.186 12.8998 107.701 13.0874C108.217 13.2751 108.685 13.2282 109.06 12.8998C109.435 12.6184 109.809 12.0085 110.091 11.2111L110.7 9.56931Z" fill="white" fill-opacity="0.3"/>
<path d="M121.334 21.5309L119.507 20.4989L120.21 13.0874L116.884 18.9978L115.057 17.9658L120.163 8.95947L121.99 9.99145L121.287 17.403L124.613 11.4925L126.441 12.5245L121.334 21.5309Z" fill="white" fill-opacity="0.3"/>
<path d="M131.688 27.9104C131.079 28.0042 130.517 27.9573 129.908 27.7228C129.299 27.5352 128.737 27.2068 128.221 26.7846C127.284 26.0341 126.816 25.1898 126.769 24.1578C126.722 23.1727 127.144 22.1407 127.987 21.0149L129.158 19.5608C130.048 18.435 130.985 17.7783 131.969 17.5906C132.953 17.403 133.89 17.6375 134.827 18.435C135.717 19.1386 136.185 19.8891 136.279 20.6866C136.373 21.484 136.092 22.3753 135.389 23.3134L133.796 22.0469C134.171 21.484 134.358 21.0618 134.312 20.7335C134.312 20.4051 134.124 20.1237 133.749 19.7953C133.328 19.42 132.859 19.3262 132.391 19.5139C131.922 19.7015 131.407 20.0768 130.845 20.7804L129.674 22.2345C129.065 22.9851 128.737 23.5949 128.69 24.1109C128.643 24.6269 128.877 25.0959 129.346 25.4712C129.674 25.7526 129.955 25.8934 130.283 25.8934H130.517L131.688 24.4392L130.564 23.5011L131.548 22.2814L134.312 24.533L131.688 27.9104Z" fill="white" fill-opacity="0.3"/>
<path d="M141.338 33.2109L139.183 30.8186L137.168 32.648L139.745 35.5094L138.48 36.6821L134.498 32.2727L142.181 25.3303L146.163 29.7397L144.851 30.9124L142.275 28.051L140.448 29.6928L142.603 32.0851L141.338 33.2109Z" fill="white" fill-opacity="0.3"/>
<path d="M146.069 40.8102L145.507 39.9658L142.368 42.0298L141.244 40.2942L149.864 34.6183L151.691 37.3859C152.253 38.2771 152.487 39.0746 152.347 39.872C152.206 40.6695 151.738 41.3262 150.895 41.8421C149.77 42.5927 148.693 42.6865 147.662 42.1705L145.132 46.017L145.039 46.0639L143.821 44.1876L146.069 40.8102ZM146.96 38.9808L147.615 39.9658C147.85 40.2942 148.131 40.4818 148.459 40.5287C148.787 40.5756 149.161 40.4349 149.536 40.2004C150.379 39.6375 150.614 39.0277 150.145 38.324L149.489 37.2921L146.96 38.9808Z" fill="white" fill-opacity="0.3"/>
<path d="M160.123 59.4327L159.28 57.0404L151.175 59.8549L150.473 57.8847L158.577 55.0702L157.734 52.6779L159.374 52.115L161.716 58.8698L160.123 59.4327Z" fill="white" fill-opacity="0.3"/>
<path d="M154.409 73.8335L154.035 71.7695L158.391 71.019L157.876 67.97L153.519 68.7205L153.145 66.6565L163.31 64.874L163.685 66.938L159.563 67.6416L160.078 70.6906L164.2 69.987L164.575 72.051L154.409 73.8335Z" fill="white" fill-opacity="0.3"/>
<path d="M156.985 83.8719L156.938 81.0105L154.83 80.4945L154.783 78.2898L165.136 81.3388L165.183 83.2621L154.924 86.6864L154.877 84.4348L156.985 83.8719ZM158.672 81.4327L158.718 83.3559L162.372 82.3239L158.672 81.4327Z" fill="white" fill-opacity="0.3"/>
<path d="M153.285 98.179L153.613 96.115L160.781 94.1918L154.082 93.066L154.409 91.0021L164.575 92.6908L164.247 94.7547L157.08 96.6779L163.779 97.8037L163.451 99.8677L153.285 98.179Z" fill="white" fill-opacity="0.3"/>
<path d="M149.678 114.925L150.849 112.345L149.163 110.985L150.1 108.968L158.157 116.192L157.361 117.927L146.633 116.567L147.57 114.55L149.678 114.925ZM152.254 113.471L151.458 115.207L155.206 115.863L152.254 113.471Z" fill="white" fill-opacity="0.3"/>
<path d="M143.259 136.315L144.851 134.345L138.152 128.951L139.464 127.309L146.163 132.703L147.756 130.733L149.115 131.812L144.617 137.394L143.259 136.315Z" fill="white" fill-opacity="0.3"/>
<path d="M132.484 141.147L134.873 138.942L133.046 136.925L130.189 139.505L129.018 138.239L133.374 134.251L140.355 141.897L135.998 145.885L134.827 144.618L137.637 142.038L135.998 140.256L133.609 142.46L132.484 141.147Z" fill="white" fill-opacity="0.3"/>
<path d="M122.459 145.603L124.848 144.008L124.145 141.944L125.972 140.725L128.971 151.138L127.378 152.217L118.945 145.415L120.819 144.196L122.459 145.603ZM125.41 145.697L123.817 146.776L126.675 149.309L125.41 145.697Z" fill="white" fill-opacity="0.3"/>
<path d="M116.791 158.034L112.059 151.936L113.184 159.582L110.701 160.661L106.672 151.138L108.593 150.294L109.67 152.874L111.169 156.908L110.279 149.543L111.591 148.981L116.276 154.703L114.402 150.81L113.324 148.23L115.245 147.433L119.274 156.955L116.791 158.034Z" fill="white" fill-opacity="0.3"/>
</svg>
