<svg width="72" height="39" viewBox="0 0 72 39" fill="none" xmlns="http://www.w3.org/2000/svg">
<g clip-path="url(#clip0_657_461)">
<path d="M10.9666 38.7699V26.0405C10.9666 21.4579 6.93007 17.639 2.13673 17.639H0.623047V38.7699H10.9666Z" fill="white" fill-opacity="0.3"/>
<path d="M27.1134 38.7699V25.7858C27.1134 21.2032 23.0769 17.3844 18.2835 17.3844H16.5176V38.7699H27.1134Z" fill="white" fill-opacity="0.3"/>
<path d="M43.0056 38.7699V25.7858C43.0056 21.2032 38.9691 17.3844 34.4281 17.3844H32.6621V38.7699H43.0056Z" fill="white" fill-opacity="0.3"/>
<path d="M71.0096 38.7699V25.2767C71.0096 20.9487 66.9731 17.1298 62.6844 17.1298H58.9002V9.49216C58.9002 4.65497 54.6114 0.581543 49.5658 0.581543L48.5566 0.581543V38.7699H71.0096Z" fill="white" fill-opacity="0.3"/>
</g>
<defs>
<clipPath id="clip0_657_461">
<rect width="70.3864" height="38.1883" fill="white" transform="translate(0.623047 0.581543)"/>
</clipPath>
</defs>
</svg>
