<svg width="187" height="73" viewBox="0 0 187 73" fill="none" xmlns="http://www.w3.org/2000/svg">
<g clip-path="url(#clip0_2_101)">
<path d="M64.46 41.03H58.59L50.57 30.09L46.56 34.5V41.02H41.68V15.51H46.56V28.23L58.08 15.51H63.84L54.03 26.3L64.46 41.03Z" fill="white"/>
<path d="M97.41 15.51H102.66L110.17 35.59L117.75 15.51H122.78L112.57 41.03H107.5L97.41 15.51Z" fill="white"/>
<path d="M95.66 41.03H90.41L82.9 20.94L75.32 41.02H70.29L80.5 15.51H85.57L95.66 41.03Z" fill="white"/>
<path d="M147.73 16.9C149.81 18.04 151.44 19.61 152.63 21.6C153.82 23.59 154.42 25.8 154.42 28.23C154.42 30.66 153.82 32.88 152.63 34.88C151.44 36.88 149.81 38.47 147.73 39.64C145.65 40.81 143.35 41.39 140.82 41.39C138.29 41.39 135.99 40.81 133.91 39.64C131.83 38.47 130.2 36.89 129.01 34.88C127.82 32.87 127.22 30.66 127.22 28.23C127.22 25.8 127.82 23.59 129.01 21.6C130.2 19.61 131.83 18.04 133.91 16.9C135.99 15.76 138.29 15.19 140.82 15.19C143.35 15.18 145.65 15.76 147.73 16.9ZM136.55 20.71C135.21 21.48 134.16 22.52 133.38 23.84C132.6 25.17 132.21 26.63 132.21 28.23C132.21 29.83 132.6 31.3 133.39 32.64C134.18 33.98 135.24 35.03 136.56 35.81C137.88 36.59 139.32 36.98 140.88 36.98C142.41 36.98 143.83 36.59 145.14 35.81C146.45 35.03 147.49 33.98 148.26 32.64C149.03 31.3 149.41 29.83 149.41 28.23C149.41 26.63 149.03 25.16 148.26 23.84C147.49 22.52 146.46 21.47 145.14 20.71C143.83 19.94 142.41 19.56 140.88 19.56C139.34 19.56 137.89 19.94 136.55 20.71Z" fill="white"/>
<path d="M180.55 17.13C182.57 18.21 184.15 19.72 185.29 21.67C186.43 23.61 187 25.81 187 28.27C187 30.73 186.42 32.92 185.27 34.85C184.12 36.78 182.52 38.29 180.48 39.39C178.44 40.48 176.12 41.03 173.52 41.03H163.1V15.51H173.71C176.25 15.51 178.53 16.05 180.55 17.13ZM178.01 35.65C179.26 34.93 180.24 33.94 180.94 32.66C181.64 31.38 182 29.93 182 28.3C182 26.67 181.64 25.21 180.91 23.91C180.18 22.61 179.18 21.6 177.9 20.89C176.62 20.17 175.2 19.81 173.62 19.81H167.97V36.72H173.8C175.36 36.73 176.76 36.37 178.01 35.65Z" fill="white"/>
<path d="M41.68 48.02H43.1V57.12H41.68V48.02Z" fill="white"/>
<path d="M58.99 48.02H60.39V57.12H59.55L54.34 50.95V57.12H52.94V48.02H53.68L58.99 54.24V48.02Z" fill="white"/>
<path d="M76.28 48.02H77.68V57.12H76.84L71.63 50.95V57.12H70.23V48.02H70.97L76.28 54.24V48.02Z" fill="white"/>
<path d="M97.54 56.39L96.79 57.25L95.36 55.98C94.46 56.83 93.5 57.25 92.47 57.25C91.61 57.25 90.89 56.99 90.31 56.48C89.73 55.96 89.45 55.33 89.45 54.58C89.45 53.47 90 52.58 91.1 51.93C90.74 51.4 90.57 50.83 90.57 50.23C90.57 49.59 90.8 49.04 91.27 48.58C91.75 48.12 92.33 47.89 93.02 47.89C93.61 47.89 94.12 48.07 94.55 48.44C94.98 48.81 95.19 49.26 95.19 49.82C95.25 50.45 94.82 51 94.46 51.32C94.35 51.42 94.18 51.54 93.94 51.68C93.71 51.81 93.53 51.9 93.42 51.96C93.31 52.02 93.11 52.11 92.83 52.24C92.93 52.33 93.27 52.66 93.46 52.81L95.27 54.39C95.6 53.98 95.9 53.55 96.17 53.11L97.06 53.82C96.72 54.36 96.41 54.81 96.12 55.14L97.54 56.39ZM94.51 55.2L92.48 53.39C92.18 53.13 91.98 52.92 91.84 52.79C91.14 53.26 90.79 53.82 90.79 54.49C90.79 54.95 90.96 55.33 91.29 55.64C91.63 55.95 92.07 56.1 92.58 56.1C93.24 56.09 93.88 55.79 94.51 55.2ZM91.75 50.23C91.75 50.66 91.86 51.06 92.09 51.41L92.68 51.14C92.79 51.09 92.94 51 93.15 50.89C93.36 50.78 93.51 50.68 93.59 50.59C93.75 50.41 93.95 50.13 93.95 49.84C93.95 49.3 93.54 48.89 92.96 48.89C92.28 48.9 91.75 49.48 91.75 50.23Z" fill="white"/>
<path d="M108.29 55.46L109.25 54.54C109.75 55.46 110.61 55.93 111.5 55.93C112.44 55.93 113.05 55.38 113.05 54.69C113.05 54.23 112.75 53.84 112.15 53.52C112 53.45 111.69 53.31 111.23 53.11C110.77 52.9 110.42 52.73 110.18 52.59C109.26 52.04 108.8 51.3 108.8 50.39C108.8 49.68 109.06 49.07 109.59 48.59C110.12 48.11 110.81 47.86 111.66 47.86C112.81 47.86 113.73 48.29 114.43 49.17L113.56 50.14C113.06 49.51 112.43 49.2 111.68 49.2C110.89 49.2 110.32 49.63 110.32 50.31C110.32 50.74 110.58 51.11 111.08 51.39C111.24 51.48 111.57 51.65 112.1 51.89C112.63 52.12 113 52.31 113.22 52.43C114.14 52.93 114.61 53.66 114.61 54.6C114.61 55.38 114.31 56.02 113.74 56.52C113.16 57.01 112.41 57.26 111.5 57.26C110.18 57.27 108.95 56.63 108.29 55.46Z" fill="white"/>
<path d="M124.69 56.41C124.06 55.83 123.75 55.02 123.75 53.97V48.02H125.17V53.79C125.17 55.17 125.9 55.9 127.13 55.9C128.35 55.9 129.08 55.12 129.08 53.79V48.02H130.51V53.97C130.51 55.02 130.2 55.84 129.57 56.42C128.94 57 128.13 57.28 127.13 57.28C126.13 57.28 125.32 56.99 124.69 56.41Z" fill="white"/>
<path d="M140.25 48.02H141.67V57.12H140.25V48.02Z" fill="white"/>
<path d="M153.23 49.4H150.57V48.02H157.33V49.4H154.67V57.12H153.23V49.4Z" fill="white"/>
<path d="M166.24 57.12V48.02H172.05V49.36H167.65V51.84H171.73V53.18H167.65V55.78H172.06V57.12H166.24V57.12Z" fill="white"/>
<path d="M180.67 55.46L181.63 54.54C182.13 55.46 182.99 55.93 183.88 55.93C184.82 55.93 185.43 55.38 185.43 54.69C185.43 54.23 185.13 53.84 184.53 53.52C184.38 53.45 184.07 53.31 183.61 53.11C183.15 52.9 182.8 52.73 182.56 52.59C181.64 52.04 181.18 51.3 181.18 50.39C181.18 49.68 181.44 49.07 181.97 48.59C182.5 48.11 183.19 47.86 184.04 47.86C185.19 47.86 186.11 48.29 186.81 49.17L185.94 50.14C185.44 49.51 184.81 49.2 184.06 49.2C183.27 49.2 182.71 49.63 182.71 50.31C182.71 50.74 182.97 51.11 183.47 51.39C183.63 51.48 183.96 51.65 184.49 51.89C185.02 52.12 185.39 52.31 185.61 52.43C186.53 52.93 187 53.66 187 54.6C187 55.38 186.7 56.02 186.13 56.52C185.55 57.01 184.8 57.26 183.89 57.26C182.55 57.27 181.32 56.63 180.67 55.46Z" fill="white"/>
<path d="M8.41129 19.0256H20.8113V15.8656L8.41129 15.8656V19.0256Z" fill="white"/>
<path d="M8.41129 57.506H20.8113V54.346H8.41129V57.506Z" fill="white"/>
<path d="M16.18 19.98H13.03V20.73H16.19C16.18 20.5 16.18 20.25 16.18 19.98Z" fill="white"/>
<path d="M16.18 17.46V17.45H13.03V57.3H16.18V17.46Z" fill="white"/>
<path d="M35.38 16.2L35.43 16.15H33.58H30.73L30.52 16.36L16.11 30.66L16.2 35.37L21.27 30.3H21.28L21.57 30.01V30V29.99L35.38 16.2Z" fill="white"/>
<path d="M64.87 26.97C64.86 26.98 64.86 26.99 64.86 26.99C64.86 26.98 64.87 26.97 64.87 26.97Z" fill="white"/>
<path d="M11.14 32.87C5.98001 29.81 0.840004 24.4 1.28 18C1.42 16.03 2.12 14.09 3.31 12.41C4.46 10.78 6.04 9.42 7.86 8.47C9.63 7.55 11.58 7.07 13.51 7.07H13.67C16.12 7.1 18.66 8.04 20.64 9.63C21.12 10.02 21.57 10.45 21.99 10.91C20.04 9.5 17.68 8.73 15.33 8.73C15.02 8.73 14.71 8.74 14.41 8.77C13.3 8.87 12.27 9.11 11.35 9.48L11.14 9.57C9.92001 10.05 8.75 10.77 7.67 11.7C5.7 13.39 4.43 15.83 4.26 18.23C4 21.97 6.57 26.11 11.15 29.34V32.87H11.14Z" fill="white"/>
<path d="M29.21 51.26L29.17 51.22C29.23 50.11 29.17 48.96 28.93 47.79C27.64 41.4 21.49 36.45 16.3 32.43C16.08 32.67 15.85 32.91 15.63 33.16C15.21 33.62 14.79 34.07 14.38 34.52C14.31 34.59 14.16 34.76 14.12 34.83C14.15 34.88 14.25 35 14.57 35.22C18.84 38.25 25.28 42.84 26.37 49.73C26.47 50.36 26.51 50.99 26.51 51.62C26.49 51.91 26.35 53.44 25.7 55.35C23.42 62.01 15.32 65.84 8.78 63.03C5.08 61.44 2.17 57.67 1.07 53.84C0.409999 51.52 0.289999 49.75 0.289999 49.75C0.0599992 50.82 -0.0200008 51.83 -7.89063e-07 52.79C-7.89063e-07 52.89 0.00999921 52.98 0.0199992 53.07C0.0399992 53.42 0.0599992 53.77 0.109999 54.1C0.169999 54.64 0.279999 55.17 0.409999 55.69V55.72C0.409999 55.72 0.429999 55.79 0.459999 55.91C0.469999 55.96 0.489999 56.01 0.499999 56.06C0.539999 56.2 0.589999 56.37 0.659999 56.57C0.719999 56.76 0.799999 56.95 0.869999 57.14C1.43 58.58 2.56 60.84 4.58 62.67C4.58 62.67 4.64 62.73 4.76 62.84C4.77 62.85 4.78 62.86 4.79 62.86C4.91 62.96 5.08 63.11 5.31 63.27C5.88 63.71 6.52 64.11 7.22 64.45C9.9 65.81 14.47 67.01 20.3 64.28C20.85 64.04 21.4 63.75 21.95 63.42C21.96 63.41 21.98 63.41 21.99 63.4V63.39C24 62.17 25.9 60.32 27.33 57.54C29.13 54.27 29.21 51.26 29.21 51.26Z" fill="white"/>
</g>
<defs>
<clipPath id="clip0_2_101">
<rect width="187" height="73" fill="white"/>
</clipPath>
</defs>
</svg>
