<svg width="187" height="73" viewBox="0 0 187 73" fill="none" xmlns="http://www.w3.org/2000/svg">
<mask id="mask0_2514_183" style="mask-type:alpha" maskUnits="userSpaceOnUse" x="0" y="0" width="187" height="73">
<rect width="187" height="73" fill="#D9D9D9"/>
</mask>
<g mask="url(#mask0_2514_183)">
<path d="M12.375 19.8572H0V30.9465L12.375 19.8572Z" fill="white"/>
<path d="M12.5346 53.9288L0.320312 42.5181V53.9288H12.5346Z" fill="white"/>
<path d="M42.75 16H26.3571L3.375 36.4107L26.3571 57.625H45L19.9286 35.9286L42.75 16Z" fill="white"/>
<path d="M58.5869 27.3025H61.0196V36.3798H61.1043C61.6006 35.6657 62.1089 34.9879 62.5809 34.3707L68.342 27.3025H71.3556L64.5416 35.2905L71.8881 46.1348H69.0076L62.8109 36.8881L61.0196 38.9577V46.1348H58.5869V27.3025Z" fill="white"/>
<path d="M91.8693 37.3117H84.547V44.1015H92.7044V46.1469H82.1143V27.3025H92.2808V29.3479H84.5349V35.3026H91.8572V37.3117H91.8693Z" fill="white"/>
<path d="M108.525 46.1348V38.1468L102.57 27.3025H105.342L107.992 32.4947C108.719 33.9228 109.275 35.0605 109.868 36.3798H109.929C110.461 35.1453 111.103 33.9228 111.829 32.4947L114.54 27.3025H117.312L110.994 38.1105V46.1348H108.525V46.1348Z" fill="white"/>
<path d="M127.646 46.1348V27.3025H130.297L136.336 36.8276C137.728 39.0303 138.818 41.0152 139.713 42.9517L139.774 42.9275C139.556 40.4101 139.495 38.1226 139.495 35.1937V27.3025H141.783V46.1348H139.326L133.347 36.5734C132.04 34.4796 130.781 32.3252 129.825 30.2919L129.74 30.3161C129.886 32.6883 129.934 34.9516 129.934 38.0863V46.1348H127.646Z" fill="white"/>
<path d="M164.161 37.3117H156.839V44.1015H164.996V46.1469H154.406V27.3025H164.573V29.3479H156.827V35.3026H164.149V37.3117H164.161Z" fill="white"/>
<path d="M176.216 43.1817C177.305 43.8474 178.903 44.4163 180.573 44.4163C183.054 44.4163 184.506 43.1091 184.506 41.209C184.506 39.4419 183.502 38.4374 180.96 37.4691C177.886 36.3556 175.986 34.7701 175.986 32.1075C175.986 29.1785 178.419 27 182.086 27C184.01 27 185.414 27.4478 186.249 27.9198L185.584 29.9047C184.966 29.5658 183.708 29.0091 182.001 29.0091C179.435 29.0091 178.455 30.5462 178.455 31.8291C178.455 33.584 179.605 34.4555 182.195 35.46C185.378 36.6945 187 38.2316 187 40.9911C187 43.8958 184.845 46.4133 180.404 46.4133C178.588 46.4133 176.603 45.8807 175.599 45.2151L176.216 43.1817Z" fill="white"/>
</g>
</svg>
