<svg width="187" height="73" viewBox="0 0 187 73" fill="none" xmlns="http://www.w3.org/2000/svg">
<path d="M11.98 52.38L6.75 63.79H5.65L0.410004 52.38H1.71L6.19 62.21L10.67 52.38H11.98Z" fill="white"/>
<path d="M19.56 53.46V57.53H25.58V58.63H19.56V62.63H26.24V63.71H18.37V52.38H26.24V53.46H19.56Z" fill="white"/>
<path d="M42.74 52.38V63.71H41.72L34.32 54.53V63.71H33.14V52.38H34.11L41.56 61.68V52.38H42.74V52.38Z" fill="white"/>
<path d="M58.8 53.46H54.58V63.71H53.4V53.46H49.18V52.38H58.8V53.46Z" fill="white"/>
<path d="M74.78 52.38V58.9C74.78 60.39 74.34 61.61 73.45 62.57C72.57 63.5 71.41 63.97 69.97 63.97C68.51 63.97 67.35 63.5 66.47 62.57C65.59 61.63 65.15 60.4 65.15 58.9V52.38H66.33V58.9C66.33 60.04 66.66 60.99 67.33 61.75C68.01 62.49 68.89 62.87 69.96 62.87C71.04 62.87 71.92 62.5 72.59 61.75C73.27 61.01 73.61 60.06 73.61 58.9V52.38H74.78V52.38Z" fill="white"/>
<path d="M86.35 59.59H83.53V63.71H82.35V52.38H86.57C87.84 52.38 88.87 52.71 89.69 53.36C90.49 54.02 90.89 54.89 90.89 55.99C90.89 56.89 90.61 57.65 90.05 58.27C89.49 58.89 88.72 59.3 87.74 59.49L91.37 63.71H89.89L86.35 59.59ZM83.53 58.51H86.53C87.47 58.51 88.24 58.28 88.82 57.83C89.4 57.38 89.7 56.76 89.7 56C89.7 55.23 89.41 54.62 88.82 54.16C88.24 53.7 87.47 53.47 86.53 53.47H83.53V58.51Z" fill="white"/>
<path d="M99.19 53.46V57.53H105.21V58.63H99.19V62.63H105.87V63.71H98V52.38H105.87V53.46H99.19Z" fill="white"/>
<path d="M116.36 52.13C117.54 52.13 118.54 52.41 119.36 52.98C120.17 53.55 120.64 54.37 120.78 55.45H119.61C119.33 53.93 118.27 53.17 116.43 53.17C115.56 53.17 114.87 53.36 114.36 53.75C113.84 54.14 113.58 54.66 113.58 55.32C113.58 56.31 114.36 56.95 115.91 57.25L117.63 57.58C119.73 57.98 120.78 58.96 120.78 60.53C120.78 61.56 120.39 62.4 119.61 63.03C118.83 63.65 117.81 63.96 116.56 63.96C115.2 63.96 114.11 63.62 113.28 62.94C112.45 62.26 111.97 61.31 111.84 60.09H113.01C113.15 60.99 113.53 61.68 114.15 62.17C114.77 62.65 115.59 62.89 116.61 62.89C117.51 62.89 118.23 62.69 118.76 62.28C119.29 61.87 119.56 61.33 119.56 60.66C119.56 59.66 118.85 59.02 117.43 58.73L115.46 58.35C113.37 57.95 112.33 56.96 112.33 55.38C112.33 54.4 112.7 53.62 113.43 53.03C114.18 52.43 115.16 52.13 116.36 52.13Z" fill="white"/>
<path d="M10.36 34.61L6.67 38.52V43.3H0V9.04H6.67V29.78L15.55 20.18H23.85L14.93 29.73L24.86 43.29H16.46L10.36 34.61Z" fill="white"/>
<path d="M39.07 19.46C42.11 19.46 44.54 20.47 46.36 22.5C48.21 24.49 49.14 27.2 49.14 30.61V43.3H42.47V31.18C42.47 29.35 42.04 27.95 41.17 26.98C40.31 26.01 39.09 25.53 37.52 25.53C35.76 25.53 34.08 26.49 32.48 28.42V43.28H25.81V20.18H32.48V21.82C34.45 20.25 36.64 19.46 39.07 19.46Z" fill="white"/>
<path d="M62.58 19.7C66.07 19.7 68.98 20.84 71.31 23.13C73.64 25.38 74.81 28.26 74.81 31.77C74.81 35.31 73.64 38.23 71.31 40.55C69.01 42.87 66.1 44.02 62.58 44.02C59.03 44.02 56.09 42.86 53.75 40.55C51.41 38.23 50.25 35.31 50.25 31.77C50.25 28.26 51.42 25.39 53.75 23.13C56.12 20.84 59.06 19.7 62.58 19.7ZM62.58 38.03C64.24 38.03 65.6 37.44 66.66 36.24C67.72 35.05 68.24 33.56 68.24 31.75C68.24 29.98 67.72 28.53 66.68 27.38C65.64 26.24 64.27 25.67 62.58 25.67C60.88 25.67 59.5 26.24 58.43 27.38C57.36 28.52 56.82 29.98 56.82 31.75C56.82 33.55 57.35 35.05 58.43 36.24C59.5 37.44 60.89 38.03 62.58 38.03Z" fill="white"/>
<path d="M109.89 20.18L101.49 43.29H95.59L91.42 30.55L87.2 43.29H81.35L72.95 20.18H80.1L84.32 33.06L88.64 20.18H94.16L98.53 33.11L102.75 20.18H109.89Z" fill="white"/>
<path d="M132.58 31.28C132.58 32.6 132.53 33.56 132.44 34.17H115.7C116.5 36.9 118.42 38.27 121.46 38.27C123.31 38.27 124.61 37.69 125.35 36.53H132.31C131.7 38.75 130.4 40.52 128.4 41.84C126.4 43.16 124.04 43.82 121.32 43.82C117.71 43.82 114.73 42.68 112.4 40.39C110.13 38.11 108.99 35.23 108.99 31.75C108.99 28.24 110.11 25.37 112.35 23.11C114.62 20.83 117.58 19.68 121.23 19.68C124.49 19.68 127.2 20.76 129.34 22.91C131.49 25.12 132.58 27.9 132.58 31.28ZM121.02 25.2C118.14 25.2 116.33 26.63 115.6 29.49H125.96C125.77 28.14 125.24 27.09 124.38 26.33C123.51 25.58 122.39 25.2 121.02 25.2Z" fill="white"/>
<path d="M151.94 37.21L152.8 42.95C150.59 43.66 148.53 44.01 146.61 44.01C143.83 44.01 141.6 43.1 139.92 41.28C138.24 39.46 137.4 37.06 137.4 34.07V25.82H132.55V20.18H137.4V11.93H144.02V20.18H152.32V25.82H144.02V34.02C144.02 36.56 145.36 37.83 148.05 37.83C149.11 37.84 150.4 37.63 151.94 37.21Z" fill="white"/>
<path d="M160.77 20.18H154.1V43.29H160.77V20.18Z" fill="white"/>
<path d="M175.44 37.84C176.72 37.84 177.79 37.52 178.65 36.88C179.51 36.24 180.07 35.35 180.33 34.23H187C186.68 37.06 185.43 39.38 183.26 41.18C181.12 42.95 178.51 43.83 175.44 43.83C171.95 43.83 169.03 42.69 166.66 40.4C164.29 38.08 163.11 35.21 163.11 31.76C163.11 28.32 164.29 25.46 166.66 23.17C169.03 20.85 171.95 19.7 175.44 19.7C178.48 19.7 181.08 20.6 183.26 22.4C185.43 24.2 186.68 26.5 187 29.3H180.33C180.07 28.17 179.52 27.28 178.65 26.62C177.79 25.96 176.71 25.63 175.44 25.63C173.74 25.63 172.36 26.21 171.29 27.37C170.22 28.53 169.68 29.99 169.68 31.76C169.68 33.53 170.21 34.98 171.29 36.13C172.36 37.27 173.74 37.84 175.44 37.84Z" fill="white"/>
<path d="M160.939 13.7504L157.05 9.86133L153.161 13.7504L157.05 17.6394L160.939 13.7504Z" fill="white"/>
</svg>
