<svg width="187" height="73" viewBox="0 0 187 73" fill="none" xmlns="http://www.w3.org/2000/svg">
<mask id="mask0_2514_167" style="mask-type:alpha" maskUnits="userSpaceOnUse" x="0" y="0" width="187" height="73">
<rect width="187" height="73" fill="#D9D9D9"/>
</mask>
<g mask="url(#mask0_2514_167)">
<path d="M41.0559 29.8169C41.0559 30.3034 40.9277 30.7813 40.684 31.2026C40.4403 31.6239 40.0897 31.9738 39.6676 32.217L13.9863 47.1227V53.5145L39.6469 38.7325C40.0687 38.4888 40.419 38.1389 40.6627 37.7176C40.9063 37.2964 41.0348 36.8187 41.0352 36.3323L41.0559 29.8169Z" fill="white"/>
<path d="M17.62 14.556C16.9857 14.1917 16.2668 14 15.535 14C14.8032 14 14.0842 14.1917 13.4499 14.556L9.97656 16.5595L37.0409 32.1502L38.8473 31.1201C39.2208 30.8859 39.5271 30.559 39.7362 30.1714C39.9453 29.7837 40.05 29.3486 40.0401 28.9085C40.0302 28.4683 39.9061 28.0383 39.6798 27.6604C39.4535 27.2825 39.1329 26.9696 38.7492 26.7524L17.62 14.556Z" fill="white"/>
<path d="M1.53223 21.4732C1.9545 21.2305 2.43325 21.1027 2.92054 21.1027C3.40784 21.1027 3.88659 21.2305 4.30886 21.4732L30.083 36.214L35.6156 33.0001L9.96018 18.2181C9.53842 17.9738 9.05947 17.8452 8.57186 17.8452C8.08425 17.8452 7.6053 17.9738 7.18355 18.2181L1.53223 21.4732Z" fill="white"/>
<path d="M0.0156241 49.3527C0.0132981 50.0814 0.202765 50.798 0.56505 51.4307C0.927335 52.0634 1.44974 52.5901 2.08002 52.958L5.55338 54.9616V23.77L3.73671 22.7399C3.34687 22.5335 2.90995 22.4319 2.46886 22.445C2.02776 22.458 1.59764 22.5854 1.22076 22.8145C0.843875 23.0436 0.533189 23.3666 0.319191 23.7517C0.105193 24.1369 -0.00475164 24.5709 0.000157476 25.0113L0.0156241 49.3527Z" fill="white"/>
<path d="M14.0021 59.793C13.579 59.5504 13.2274 59.2008 12.9827 58.7795C12.7381 58.3581 12.6091 57.8798 12.6086 57.3929L12.5105 27.7567L6.95215 24.5789V54.148C6.95312 54.6343 7.08183 55.1118 7.32543 55.533C7.56902 55.9541 7.919 56.3041 8.34046 56.5482L14.0021 59.793Z" fill="white"/>
<path d="M38.9499 47.164C39.5805 46.7964 40.1032 46.2698 40.4656 45.637C40.8279 45.0042 41.0171 44.2874 41.0143 43.5586V39.5566L13.9551 55.1473V57.2384C13.9719 57.6782 14.1028 58.106 14.3348 58.4803C14.5669 58.8545 14.8923 59.1622 15.2792 59.3734C15.666 59.5847 16.1012 59.6921 16.5422 59.6853C16.9831 59.6785 17.4147 59.5577 17.7949 59.3347L38.9499 47.164Z" fill="white"/>
<path d="M118.095 36.1263H112.634V39.536H116.505C116.613 39.5283 116.721 39.5438 116.822 39.5815C116.923 39.6192 117.015 39.6781 117.091 39.7543C117.168 39.8305 117.227 39.9222 117.265 40.0231C117.302 40.1241 117.318 40.232 117.31 40.3394C117.31 42.1988 114.843 43.8212 112.345 43.8212C109.022 43.8212 106.384 41.2202 106.384 37.0689C106.384 32.9175 109.022 30.5122 112.433 30.5122C114.616 30.5122 116.221 31.5423 116.856 33.1287H121.263C120.572 29.3534 117.135 26.8245 112.459 26.8245C107.153 26.8245 102.281 30.229 102.281 37.0689C102.281 43.9088 107.024 47.3287 112.154 47.3287C113.352 47.3522 114.538 47.1002 115.622 46.5922C116.278 46.2717 116.912 45.9104 117.522 45.5106V47.1021H121.336V39.3763C121.341 38.9495 121.26 38.526 121.099 38.1305C120.938 37.7351 120.7 37.3755 120.398 37.073C120.096 36.7705 119.737 36.5309 119.342 36.3684C118.946 36.2058 118.522 36.1236 118.095 36.1263V36.1263Z" fill="white"/>
<path d="M61.1318 47.0868V27.0513H69.3895C73.6628 27.0513 76.1556 29.6832 76.1556 33.3761C76.1556 37.069 73.6628 39.701 69.3895 39.701H65.4619V47.0868H61.1318ZM65.4619 36.1265H69.1314C71.1391 36.1265 72.0009 34.8389 72.0009 33.3761C72.0009 31.9134 71.1391 30.6309 69.1314 30.6309H65.4619V36.1265Z" fill="white"/>
<path d="M93.8952 47.0868L92.3159 42.7089H85.0595L83.4854 47.0868H79.0107L86.6388 27.0513H90.7676L98.3956 47.0868H93.8952ZM86.3497 39.088H91.0256L88.7032 32.5881L86.3497 39.088Z" fill="white"/>
<path d="M141.773 47.0869L140.194 42.6935H132.937L131.363 47.0714H126.889L134.517 27.0359H138.646L146.274 47.0714L141.773 47.0869ZM134.228 39.0881H138.904L136.581 32.5882L134.228 39.0881Z" fill="white"/>
<path d="M154.748 47.0868V38.7842L147.925 27.0513H152.539L156.931 34.7771L161.318 27.0513H165.937L159.083 38.7842V47.0868H154.748Z" fill="white"/>
<path d="M182.499 47.0868L180.92 42.7089H173.664L172.115 47.0868H167.641L175.269 27.0513H179.366L187 47.0868H182.499ZM174.954 39.088H179.63L177.307 32.5881L174.954 39.088Z" fill="white"/>
</g>
</svg>
