<svg width="187" height="73" viewBox="0 0 187 73" fill="none" xmlns="http://www.w3.org/2000/svg">
<path d="M11.28 28.15C13.7432 28.15 15.74 26.1532 15.74 23.69C15.74 21.2268 13.7432 19.23 11.28 19.23C8.81682 19.23 6.82001 21.2268 6.82001 23.69C6.82001 26.1532 8.81682 28.15 11.28 28.15Z" fill="white"/>
<path d="M24.73 12.18C22.54 12.18 20.77 13.95 20.77 16.14V40.99V46.25V57.67C20.77 59.86 22.54 61.63 24.73 61.63C26.92 61.63 28.69 59.86 28.69 57.67V46.25V40.99V16.13C28.68 13.95 26.91 12.18 24.73 12.18Z" fill="white"/>
<path d="M41.82 31.56H49.89C49.9 31.35 49.91 31.14 49.91 30.93C49.91 20.15 41.14 11.37 30.35 11.37C30.21 11.37 30.08 11.38 29.94 11.39L30.03 19.45C30.14 19.45 30.25 19.43 30.36 19.43C36.7 19.43 41.86 24.59 41.86 30.93C41.85 31.14 41.83 31.35 41.82 31.56Z" fill="white"/>
<path d="M45.49 32.94H20.64H15.38H3.96C1.77 32.94 0 34.72 0 36.9C0 39.08 1.77 40.86 3.96 40.86H15.38H20.64H45.49C47.68 40.86 49.45 39.09 49.45 36.9C49.45 34.71 47.68 32.94 45.49 32.94Z" fill="white"/>
<path d="M20.77 32.82C20.73 32.86 20.68 32.9 20.64 32.95H20.77V32.82Z" fill="white"/>
<path d="M28.81 32.94C28.77 32.9 28.73 32.85 28.68 32.81V32.94H28.81Z" fill="white"/>
<path d="M28.68 40.99C28.72 40.95 28.77 40.91 28.81 40.86H28.68V40.99Z" fill="white"/>
<path d="M20.64 40.86C20.68 40.9 20.72 40.95 20.77 40.99V40.86H20.64Z" fill="white"/>
<path d="M100.31 35.23C100.31 44.25 93.24 51.14 84.52 51.14C78.61 51.14 73.91 48.09 71.41 43.4V62.67H68.36V19.99H71.41V27.06C73.91 22.37 78.6 19.32 84.52 19.32C93.24 19.32 100.31 26.21 100.31 35.23ZM97.26 35.23C97.26 27.97 91.59 22.24 84.34 22.24C77.09 22.24 71.42 27.97 71.42 35.23C71.42 42.48 77.09 48.21 84.34 48.21C91.59 48.21 97.26 42.49 97.26 35.23Z" fill="white"/>
<path d="M133.05 19.99V50.47H129.94V43.58C127.38 48.15 122.69 51.14 116.83 51.14C108.17 51.14 101.04 44.25 101.04 35.23C101.04 26.21 108.17 19.32 116.83 19.32C122.68 19.32 127.38 22.31 129.94 26.88V19.99H133.05V19.99ZM129.94 35.23C129.94 27.97 124.33 22.24 117.08 22.24C109.83 22.24 104.16 27.97 104.16 35.23C104.16 42.48 109.83 48.21 117.08 48.21C124.33 48.21 129.94 42.49 129.94 35.23Z" fill="white"/>
<path d="M151.1 19.56V22.49C145.86 22.49 140.92 25.72 140.92 33.53V50.48H137.87V19.99H140.92V25.96C142.99 21.15 146.95 19.56 151.1 19.56Z" fill="white"/>
<path d="M172.01 42.49C172.01 47.49 167.62 51.15 161.1 51.15C155 51.15 150.98 48.28 149.52 44.38L152.14 42.86C153.24 46.15 156.53 48.23 161.1 48.23C165.37 48.23 168.97 46.34 168.97 42.5C168.97 34.21 150.5 38.96 150.5 27.99C150.5 23.17 154.64 19.33 160.86 19.33C165.8 19.33 169.58 21.71 171.23 25.43L168.67 26.89C167.39 23.72 164.22 22.26 160.87 22.26C156.91 22.26 153.55 24.33 153.55 27.99C153.53 36.15 172.01 31.33 172.01 42.49Z" fill="white"/>
<path d="M174.51 5.97H177.56V50.48H174.51V5.97Z" fill="white"/>
<path d="M181.46 10.18C181.46 8.9 182.56 7.8 183.9 7.8C185.24 7.8 186.34 8.9 186.34 10.18C186.34 11.52 185.24 12.62 183.9 12.62C182.55 12.61 181.46 11.52 181.46 10.18ZM182.37 19.99H185.42V50.47H182.37V19.99Z" fill="white"/>
<path d="M118.85 63.76L119.98 59.85H120.91L119.32 64.98H118.41L117.21 61.19L116.01 64.98H115.1L113.51 59.85H114.44L115.57 63.75L116.78 59.85H117.64L118.85 63.76Z" fill="white"/>
<path d="M127.82 63.76L128.95 59.85H129.88L128.29 64.98H127.38L126.18 61.19L124.98 64.98H124.07L122.48 59.85H123.41L124.54 63.75L125.75 59.85H126.61L127.82 63.76Z" fill="white"/>
<path d="M136.79 63.76L137.92 59.85H138.85L137.26 64.98H136.35L135.15 61.19L133.95 64.98H133.04L131.45 59.85H132.38L133.51 63.75L134.72 59.85H135.58L136.79 63.76Z" fill="white"/>
<path d="M140.48 65.09C140.29 65.09 140.14 65.02 140.01 64.89C139.88 64.76 139.82 64.6 139.82 64.42C139.82 64.24 139.89 64.08 140.01 63.95C140.14 63.82 140.3 63.75 140.48 63.75C140.67 63.75 140.83 63.82 140.96 63.95C141.09 64.08 141.15 64.24 141.15 64.42C141.15 64.6 141.09 64.76 140.96 64.89C140.83 65.03 140.67 65.09 140.48 65.09Z" fill="white"/>
<path d="M146.31 59.72C147.03 59.72 147.64 59.98 148.14 60.51C148.65 61.04 148.9 61.67 148.9 62.42C148.9 63.17 148.65 63.81 148.14 64.34C147.64 64.86 147.03 65.12 146.31 65.12C145.46 65.12 144.82 64.78 144.37 64.1V67.03H143.48V59.85H144.37V60.73C144.82 60.06 145.46 59.72 146.31 59.72ZM146.2 64.25C146.71 64.25 147.14 64.08 147.49 63.73C147.84 63.37 148.01 62.93 148.01 62.42C148.01 61.9 147.84 61.47 147.49 61.12C147.14 60.76 146.71 60.59 146.2 60.59C145.68 60.59 145.25 60.77 144.9 61.12C144.55 61.47 144.38 61.9 144.38 62.42C144.38 62.93 144.55 63.37 144.9 63.73C145.24 64.08 145.68 64.25 146.2 64.25Z" fill="white"/>
<path d="M155.29 60.74V59.86H156.18V64.99H155.29V64.1C154.85 64.78 154.21 65.12 153.35 65.12C152.62 65.12 152.01 64.86 151.51 64.34C151.01 63.81 150.75 63.18 150.75 62.42C150.75 61.68 151 61.04 151.51 60.51C152.02 59.98 152.63 59.72 153.35 59.72C154.21 59.72 154.85 60.06 155.29 60.74ZM153.46 64.25C153.98 64.25 154.41 64.08 154.76 63.73C155.11 63.37 155.28 62.93 155.28 62.42C155.28 61.9 155.11 61.47 154.76 61.12C154.41 60.76 153.98 60.59 153.46 60.59C152.95 60.59 152.52 60.77 152.17 61.12C151.82 61.47 151.65 61.9 151.65 62.42C151.65 62.93 151.82 63.37 152.17 63.73C152.52 64.08 152.95 64.25 153.46 64.25Z" fill="white"/>
<path d="M159.5 59.86V60.72C159.79 60.08 160.33 59.77 161.1 59.77V60.7C160.66 60.68 160.29 60.8 159.97 61.05C159.66 61.3 159.5 61.71 159.5 62.27V64.99H158.61V59.86H159.5V59.86Z" fill="white"/>
<path d="M163.62 61.24C163.62 61.57 163.96 61.83 164.63 62.01C164.88 62.06 165.1 62.12 165.27 62.18C165.44 62.24 165.63 62.33 165.84 62.44C166.05 62.56 166.21 62.71 166.32 62.9C166.43 63.09 166.48 63.32 166.48 63.58C166.48 64.04 166.3 64.42 165.94 64.7C165.58 64.98 165.12 65.12 164.57 65.12C164.08 65.12 163.65 65.01 163.29 64.8C162.93 64.58 162.68 64.29 162.53 63.92L163.3 63.48C163.38 63.73 163.53 63.92 163.76 64.07C163.99 64.21 164.26 64.28 164.57 64.28C164.88 64.28 165.12 64.22 165.31 64.11C165.49 63.99 165.59 63.82 165.59 63.59C165.59 63.24 165.25 62.99 164.57 62.83C164.34 62.77 164.17 62.72 164.06 62.69C163.94 62.66 163.78 62.59 163.58 62.5C163.38 62.41 163.23 62.32 163.12 62.22C163.02 62.12 162.92 61.99 162.84 61.82C162.75 61.65 162.71 61.47 162.71 61.26C162.71 60.82 162.88 60.45 163.22 60.16C163.57 59.87 164 59.73 164.52 59.73C164.94 59.73 165.31 59.83 165.63 60.01C165.96 60.2 166.2 60.46 166.36 60.79L165.61 61.21C165.43 60.77 165.06 60.55 164.51 60.55C164.25 60.55 164.03 60.61 163.86 60.73C163.71 60.86 163.62 61.03 163.62 61.24Z" fill="white"/>
<path d="M169.46 64.98H168.57V57.5H169.46V64.98Z" fill="white"/>
<path d="M172.35 58.92C172.18 58.92 172.03 58.86 171.92 58.75C171.8 58.63 171.75 58.49 171.75 58.33C171.75 58.17 171.81 58.02 171.92 57.9C172.04 57.78 172.18 57.72 172.35 57.72C172.51 57.72 172.65 57.78 172.77 57.9C172.89 58.02 172.94 58.16 172.94 58.33C172.94 58.5 172.88 58.63 172.77 58.75C172.66 58.87 172.52 58.92 172.35 58.92ZM172.79 64.98H171.9V59.85H172.79V64.98Z" fill="white"/>
<path d="M175.8 65.09C175.61 65.09 175.46 65.02 175.33 64.89C175.2 64.76 175.14 64.6 175.14 64.42C175.14 64.24 175.21 64.08 175.33 63.95C175.46 63.82 175.62 63.75 175.8 63.75C175.99 63.75 176.15 63.82 176.28 63.95C176.41 64.08 176.47 64.24 176.47 64.42C176.47 64.6 176.41 64.76 176.28 64.89C176.15 65.03 175.99 65.09 175.8 65.09Z" fill="white"/>
<path d="M182.63 60.74V59.86H183.52V64.99H182.63V64.1C182.19 64.78 181.55 65.12 180.69 65.12C179.96 65.12 179.35 64.86 178.85 64.34C178.35 63.81 178.09 63.18 178.09 62.42C178.09 61.68 178.34 61.04 178.85 60.51C179.36 59.98 179.97 59.72 180.69 59.72C181.55 59.72 182.2 60.06 182.63 60.74ZM180.81 64.25C181.33 64.25 181.76 64.08 182.11 63.73C182.46 63.37 182.63 62.93 182.63 62.42C182.63 61.9 182.46 61.47 182.11 61.12C181.76 60.76 181.33 60.59 180.81 60.59C180.3 60.59 179.87 60.77 179.52 61.12C179.17 61.47 179 61.9 179 62.42C179 62.93 179.17 63.37 179.52 63.73C179.87 64.08 180.3 64.25 180.81 64.25Z" fill="white"/>
<path d="M186.41 58.92C186.24 58.92 186.09 58.86 185.98 58.75C185.86 58.63 185.81 58.49 185.81 58.33C185.81 58.17 185.87 58.02 185.98 57.9C186.1 57.78 186.24 57.72 186.41 57.72C186.57 57.72 186.71 57.78 186.83 57.9C186.95 58.02 187 58.16 187 58.33C187 58.5 186.94 58.63 186.83 58.75C186.71 58.87 186.57 58.92 186.41 58.92ZM186.85 64.98H185.96V59.85H186.85V64.98Z" fill="white"/>
</svg>
