<svg width="187" height="22" viewBox="0 0 187 22" fill="none" xmlns="http://www.w3.org/2000/svg">
<path d="M32.4291 6.73307H36.1523V20.8095H32.566V19.1631H32.4838C32.0088 19.8034 31.4661 20.3019 30.8546 20.6588C30.2431 21.0153 29.4447 21.1937 28.4592 21.1937C26.8891 21.1937 25.6849 20.7368 24.8452 19.8217C24.0056 18.9071 23.5859 17.6723 23.5859 16.1175V6.73307H27.2822V15.4862C27.2822 16.3094 27.4692 16.9406 27.8432 17.3796C28.2172 17.8185 28.8058 18.0378 29.6092 18.0378C30.4851 18.0378 31.1736 17.7409 31.6759 17.1461C32.1779 16.5519 32.4288 15.788 32.4288 14.855V6.73307H32.4291ZM50.4432 20.6727V20.8098H46.857C46.7474 20.6637 46.6561 20.4444 46.5832 20.1512C46.5099 19.8592 46.4553 19.5571 46.419 19.2456H46.3644C46.1816 19.52 45.9762 19.7719 45.7484 20.0002C45.5203 20.2288 45.2462 20.4256 44.9272 20.5898C44.6077 20.7547 44.2288 20.8871 43.7909 20.9875C43.3529 21.088 42.8328 21.1386 42.2306 21.1386C40.7884 21.1386 39.6111 20.7727 38.6989 20.041C37.786 19.3097 37.33 18.2395 37.33 16.8308C37.33 16.0624 37.4759 15.4131 37.7684 14.8823C38.0601 14.3519 38.4618 13.913 38.973 13.5651C39.4839 13.218 40.0819 12.9477 40.7664 12.7554C41.4508 12.5635 42.1853 12.4124 42.9704 12.3026C44.1383 12.138 44.9963 11.9645 45.5439 11.7812C46.0914 11.5983 46.3651 11.2418 46.3651 10.711C46.3651 10.1993 46.1688 9.79186 45.7765 9.48973C45.3838 9.18835 44.7951 9.03691 44.0109 9.03691C43.135 9.03691 42.4778 9.19734 42.0398 9.51709C41.6019 9.83759 41.3555 10.3361 41.3005 11.0127H37.9879C38.0058 10.3909 38.1428 9.80123 38.3985 9.24307C38.654 8.6853 39.0284 8.19612 39.5213 7.77478C40.0139 7.35457 40.6344 7.01609 41.3831 6.75969C42.1311 6.50366 43.0163 6.37546 44.0385 6.37546C46.137 6.37546 47.6476 6.82828 48.5695 7.73355C49.4911 8.63919 49.9522 9.91481 49.9522 11.5615V18.7234C49.9503 19.7854 50.1149 20.435 50.4432 20.6727ZM46.446 13.73C46.1175 13.9317 45.7204 14.0918 45.2551 14.2102C44.7899 14.3298 44.3197 14.4438 43.8452 14.5532C42.8597 14.7729 42.1292 15.0293 41.655 15.3217C41.18 15.6144 40.9429 16.0901 40.9429 16.7483C40.9429 17.407 41.1437 17.8691 41.5454 18.1342C41.9467 18.3996 42.4763 18.5319 43.1335 18.5319C43.6626 18.5319 44.1327 18.4543 44.5434 18.2983C44.9541 18.1432 45.3007 17.9415 45.5839 17.6948C45.8666 17.4478 46.0809 17.1644 46.2271 16.8443C46.373 16.5246 46.4463 16.1906 46.4463 15.8427V13.73H46.446ZM63.1462 7.84451C62.7261 7.37782 62.2197 7.01196 61.6266 6.74657C61.0335 6.48155 60.3714 6.34885 59.6417 6.34885C58.6743 6.34885 57.8574 6.54077 57.1913 6.925C56.5249 7.30922 55.9549 7.88574 55.4803 8.65381H55.3983V6.73307H51.7571V20.8095H55.4803V12.8248C55.4803 11.8554 55.7495 11.0731 56.2881 10.479C56.8263 9.88444 57.5066 9.58719 58.3279 9.58719C59.1126 9.58719 59.7147 9.82522 60.1347 10.3005C60.5543 10.7766 60.7645 11.3985 60.7645 12.1665V20.8098H64.4881V11.6174C64.4881 10.8493 64.3691 10.1453 64.1321 9.50434C63.8942 8.86447 63.5658 8.31119 63.1462 7.84451ZM72.1259 18.0659C71.7058 18.0659 71.3681 17.9655 71.1128 17.7638C70.8569 17.5629 70.7294 17.197 70.7294 16.6662V9.20297H73.1387V6.73345H70.7294V2.34282H67.0882V6.73307H65.1445V9.20259H67.0882V17.4617C67.0882 18.1203 67.2018 18.6691 67.4303 19.108C67.6581 19.547 67.9547 19.8948 68.32 20.1505C68.6851 20.4073 69.0909 20.5853 69.5386 20.6858C69.9856 20.7862 70.4373 20.8365 70.8936 20.8365C71.2586 20.8365 71.5869 20.8365 71.8791 20.8365C72.1707 20.8365 72.4173 20.8271 72.6181 20.8091C72.8372 20.8091 73.0377 20.8001 73.2202 20.7817V18.0375C73.0923 18.0562 72.9644 18.0652 72.8369 18.0652H72.1259V18.0659ZM83.2408 14.8553C83.2408 15.7883 82.9899 16.5523 82.4879 17.1464C81.9856 17.7413 81.2971 18.0382 80.4213 18.0382C79.6179 18.0382 79.0292 17.8189 78.6552 17.38C78.2808 16.941 78.0942 16.3098 78.0942 15.4866V6.73307H74.3979V16.1175C74.3979 17.6723 74.8176 18.9075 75.6572 19.8217C76.4965 20.7368 77.7011 21.1937 79.2712 21.1937C80.2567 21.1937 81.0551 21.0153 81.6666 20.6588C82.2781 20.3019 82.8208 19.8037 83.2958 19.1631H83.3781V20.8095H86.9643V6.73307H83.2411V14.8553H83.2408ZM104.732 6.34885C103.837 6.34885 103.03 6.56851 102.309 7.00746C101.588 7.44641 100.99 8.04992 100.516 8.81837H100.461C100.114 8.06829 99.6029 7.46928 98.9278 7.02133C98.2524 6.57301 97.4674 6.34885 96.5735 6.34885C95.5881 6.34885 94.7574 6.56851 94.0823 7.00746C93.4072 7.44641 92.8777 7.9862 92.4947 8.62607H92.4128V6.73307H88.8265V20.8095H92.5496V12.6329C92.5496 11.6998 92.7778 10.9546 93.2341 10.3965C93.69 9.83871 94.3019 9.55945 95.0686 9.55945C95.762 9.55945 96.2956 9.76074 96.6701 10.163C97.0441 10.5655 97.231 11.1694 97.231 11.9739V20.8095H100.955V12.6329C100.955 11.6998 101.178 10.9546 101.625 10.3965C102.072 9.83871 102.688 9.55945 103.473 9.55945C104.166 9.55945 104.7 9.76074 105.075 10.163C105.449 10.5655 105.636 11.1694 105.636 11.9739V20.8095H109.359V11.343C109.359 9.78848 108.958 8.56722 108.154 7.67957C107.351 6.79267 106.21 6.34885 104.732 6.34885ZM126.305 11.0412C126.122 11.6635 125.963 12.2857 125.826 12.9069C125.689 13.5291 125.566 14.0963 125.457 14.6079C125.328 15.2118 125.21 15.788 125.101 16.3368H125.046C124.936 15.788 124.817 15.2118 124.69 14.6079C124.58 14.0963 124.447 13.5287 124.294 12.9069C124.138 12.2854 123.978 11.6631 123.814 11.0412L121.049 1.19053H115.464V20.8098H119.106V9.55945C119.106 9.15686 119.096 8.72241 119.078 8.25572C119.06 7.7894 119.042 7.34595 119.023 6.925C118.986 6.44969 118.959 5.97437 118.941 5.49831H118.996C119.087 5.95563 119.178 6.40395 119.27 6.8429C119.361 7.22713 119.452 7.62972 119.544 8.0503C119.635 8.47126 119.735 8.86448 119.845 9.23033L123.13 20.8098H126.936L130.304 9.23033C130.394 8.86448 130.491 8.47163 130.59 8.0503C130.691 7.62972 130.786 7.22713 130.878 6.8429C130.969 6.40395 131.061 5.95563 131.152 5.49831H131.207C131.17 5.97437 131.142 6.44969 131.125 6.925C131.088 7.34595 131.065 7.7894 131.056 8.25572C131.047 8.72241 131.043 9.15686 131.043 9.55945V20.8095H134.739V1.19053H129.071L126.305 11.0412ZM150.069 14.828H139.884C140.03 15.9259 140.4 16.7854 140.993 17.4073C141.586 18.0296 142.413 18.3403 143.471 18.3403C144.2 18.3403 144.785 18.1855 145.223 17.874C145.661 17.5633 145.98 17.1427 146.182 16.6119H149.849C149.722 17.2341 149.489 17.8238 149.152 18.3816C148.814 18.9397 148.375 19.4289 147.838 19.8499C147.299 20.2704 146.664 20.6044 145.934 20.8511C145.205 21.0981 144.392 21.2214 143.498 21.2214C142.33 21.2214 141.295 21.0295 140.391 20.6453C139.487 20.2611 138.725 19.7352 138.105 19.0675C137.484 18.3999 137.014 17.609 136.695 16.694C136.375 15.7797 136.215 14.801 136.215 13.7578C136.215 12.7153 136.384 11.7411 136.722 10.8358C137.06 9.9298 137.534 9.14824 138.146 8.48962C138.757 7.83101 139.488 7.30959 140.336 6.92537C141.185 6.54115 142.12 6.34923 143.142 6.34923C144.274 6.34923 145.269 6.55502 146.126 6.9666C146.984 7.37819 147.705 7.95921 148.289 8.70929C148.873 9.45936 149.315 10.3511 149.617 11.3846C149.918 12.4181 150.069 13.5655 150.069 14.828ZM146.181 12.2486C146.126 11.3527 145.829 10.6255 145.291 10.0674C144.753 9.50959 144.054 9.23033 143.197 9.23033C142.211 9.23033 141.462 9.50022 140.952 10.04C140.441 10.5794 140.103 11.316 139.939 12.249H146.181V12.2486ZM157.132 18.0659C156.712 18.0659 156.374 17.9655 156.119 17.7638C155.863 17.5629 155.736 17.197 155.736 16.6662V9.20297H158.145V6.73345H155.736V2.34282H152.094V6.73307H150.151V9.20259H152.094V17.4617C152.094 18.1203 152.208 18.6691 152.436 19.108C152.664 19.547 152.961 19.8948 153.326 20.1505C153.691 20.4073 154.097 20.5853 154.544 20.6858C154.992 20.7862 155.443 20.8365 155.9 20.8365C156.265 20.8365 156.593 20.8365 156.885 20.8365C157.177 20.8365 157.423 20.8271 157.624 20.8091C157.843 20.8091 158.044 20.8001 158.227 20.7817V18.0375C158.098 18.0562 157.971 18.0652 157.843 18.0652H157.132V18.0659ZM164.605 7.17202C164.076 7.57461 163.602 8.1785 163.182 8.98293H163.1V6.73307H159.514V20.8095H163.237V13.9497C163.237 12.4679 163.629 11.3977 164.414 10.7391C165.198 10.0809 166.203 9.81585 167.425 9.9433H167.508V6.67834C167.307 6.60525 167.015 6.56851 166.632 6.56851C165.81 6.56851 165.134 6.77018 164.605 7.17202ZM168.575 20.8098H172.298V6.73307H168.575V20.8098ZM168.575 4.53795H172.298V1.19053H168.575V4.53795ZM183.414 15.8431C183.286 16.6483 182.975 17.2473 182.483 17.6405C181.99 18.0337 181.361 18.2301 180.594 18.2301C179.444 18.2301 178.6 17.823 178.061 17.0089C177.523 16.1951 177.254 15.1204 177.254 13.7844C177.254 12.4124 177.536 11.3287 178.102 10.5329C178.667 9.73713 179.516 9.33941 180.648 9.33941C181.342 9.33941 181.912 9.54558 182.359 9.95679C182.807 10.3684 183.094 10.8857 183.222 11.5072H186.863C186.736 10.7387 186.502 10.0393 186.165 9.40801C185.827 8.77713 185.388 8.23735 184.851 7.78903C184.312 7.34108 183.678 6.9891 182.947 6.7327C182.217 6.47667 181.396 6.34848 180.484 6.34848C179.406 6.34848 178.439 6.5404 177.582 6.92462C176.724 7.30884 175.989 7.83513 175.378 8.50237C174.767 9.17035 174.297 9.95642 173.968 10.8624C173.64 11.7681 173.475 12.7419 173.475 13.7844C173.475 14.8272 173.644 15.8015 173.981 16.7067C174.319 17.6124 174.799 18.3992 175.419 19.0668C176.039 19.7348 176.792 20.2603 177.678 20.6445C178.563 21.0288 179.562 21.2207 180.675 21.2207C181.606 21.2207 182.451 21.0786 183.208 20.7952C183.965 20.5118 184.613 20.1276 185.152 19.6426C185.69 19.1583 186.119 18.5907 186.438 17.9415C186.758 17.2922 186.945 16.5928 186.999 15.8423H183.414V15.8431ZM19.1069 18.4337L22.3046 22H17.7418L16.4848 20.6153C14.9611 21.4805 13.0911 22 10.8497 22C3.37535 22 0 16.2539 0 11C0 5.74609 3.4049 0 10.8497 0C18.2946 0 21.6994 5.74646 21.6994 11C21.6994 13.612 20.8644 16.345 19.1069 18.4337ZM13.8454 17.7072L10.2607 13.7578H14.9144L16.3662 15.3768C17.1333 14.0933 17.486 12.5354 17.486 11C17.486 7.39618 15.4323 3.66717 10.8501 3.66717C6.44776 3.66717 4.21424 7.39618 4.21424 11C4.21424 14.6038 6.4874 18.3358 10.8501 18.3358C12.0136 18.3358 13.0078 18.1064 13.8454 17.7072Z" fill="white"/>
</svg>
