<svg width="187" height="73" viewBox="0 0 187 73" fill="none" xmlns="http://www.w3.org/2000/svg">
<path d="M68.83 49.48C67.78 32.03 63.35 25.12 52.36 18.24C40.74 10.97 27.73 6.68 27.73 6.68L28.57 65.57H68.24L68.74 54.78C68.9 53.02 68.94 51.24 68.83 49.48ZM38.68 59.02H35.14V49.03L38.68 49.26V59.02ZM40 40.58L35.36 40.25L35.41 28.79L40 29.46V40.58ZM48.44 59.02H44.9V49.03L48.44 49.26V59.02ZM44.89 40.98V30.38L49.13 31.05L49.36 41.34L44.89 40.98ZM57.89 59.02H54.35V49.03L57.89 49.26V59.02ZM59.41 42.39L54.35 41.94V32.01C61.49 32.01 59.41 42.39 59.41 42.39Z" fill="white"/>
<path d="M95.3 44.31C97.09 43.57 98.48 42.45 99.48 40.97C100.48 39.49 100.98 37.79 100.98 35.87C100.98 33.07 99.97 30.82 97.94 29.11C95.91 27.38 93.32 26.51 90.18 26.51H78.58V53.7H84.38V45.26H89.1L95.78 53.7H102.74L95.3 44.31ZM93.76 38.8C92.76 39.56 91.5 39.94 89.98 39.94H84.38V31.78H89.98C91.5 31.78 92.76 32.16 93.76 32.92C94.76 33.68 95.26 34.66 95.26 35.86C95.26 37.07 94.76 38.04 93.76 38.8Z" fill="white"/>
<path d="M83.87 65.1C83.41 65.44 82.86 65.61 82.21 65.61C81.39 65.61 80.7 65.33 80.15 64.77C79.59 64.21 79.31 63.51 79.31 62.68C79.31 61.85 79.59 61.15 80.15 60.59C80.71 60.03 81.4 59.75 82.21 59.75C82.86 59.75 83.41 59.92 83.87 60.27C84.32 60.61 84.63 61.07 84.78 61.65H85.53C85.36 60.87 84.98 60.25 84.38 59.77C83.78 59.29 83.06 59.05 82.22 59.05C81.21 59.05 80.35 59.4 79.65 60.11C78.95 60.81 78.6 61.66 78.6 62.68C78.6 63.71 78.95 64.57 79.65 65.27C80.35 65.97 81.2 66.32 82.22 66.32C83.06 66.32 83.78 66.09 84.38 65.61C84.98 65.13 85.36 64.5 85.53 63.72H84.78C84.62 64.29 84.32 64.75 83.87 65.1Z" fill="white"/>
<path d="M95.33 60.11C94.62 59.4 93.76 59.04 92.77 59.04C91.77 59.04 90.91 59.4 90.2 60.11C89.49 60.81 89.14 61.67 89.14 62.67C89.14 63.68 89.49 64.54 90.2 65.24C90.9 65.95 91.76 66.3 92.77 66.3C93.77 66.3 94.63 65.95 95.33 65.24C96.04 64.53 96.4 63.67 96.4 62.67C96.4 61.67 96.04 60.82 95.33 60.11ZM94.82 64.77C94.26 65.34 93.58 65.63 92.77 65.63C91.96 65.63 91.27 65.34 90.71 64.77C90.15 64.19 89.87 63.49 89.87 62.68C89.87 61.86 90.15 61.16 90.71 60.6C91.27 60.02 91.96 59.73 92.77 59.73C93.58 59.73 94.26 60.02 94.82 60.6C95.38 61.17 95.66 61.86 95.66 62.68C95.66 63.49 95.38 64.18 94.82 64.77Z" fill="white"/>
<path d="M105.49 59.19V64.92L100.91 59.19H100.31V66.17H101.04V60.51L105.6 66.17H106.23V59.19H105.49Z" fill="white"/>
<path d="M113.63 62.39L112.57 62.18C111.61 62 111.13 61.6 111.13 60.99C111.13 60.59 111.29 60.27 111.61 60.03C111.93 59.79 112.35 59.67 112.89 59.67C114.02 59.67 114.68 60.14 114.85 61.08H115.57C115.49 60.42 115.2 59.91 114.7 59.56C114.19 59.21 113.58 59.04 112.85 59.04C112.12 59.04 111.51 59.22 111.05 59.6C110.6 59.96 110.37 60.44 110.37 61.05C110.37 62.02 111.01 62.63 112.3 62.87L113.51 63.11C114.38 63.29 114.82 63.69 114.82 64.3C114.82 64.72 114.66 65.05 114.33 65.3C114 65.55 113.56 65.67 113.01 65.67C112.38 65.67 111.88 65.52 111.5 65.23C111.12 64.93 110.88 64.51 110.79 63.95H110.07C110.15 64.7 110.45 65.29 110.96 65.7C111.47 66.12 112.14 66.33 112.97 66.33C113.75 66.33 114.37 66.14 114.85 65.75C115.33 65.36 115.57 64.85 115.57 64.21C115.57 63.24 114.92 62.63 113.63 62.39Z" fill="white"/>
<path d="M118.42 59.19V59.85H121.02V66.17H121.75V59.85H124.35V59.19H118.42V59.19Z" fill="white"/>
<path d="M131.1 63.57C131.7 63.45 132.17 63.2 132.52 62.82C132.87 62.44 133.04 61.97 133.04 61.41C133.04 60.74 132.8 60.2 132.3 59.79C131.8 59.38 131.16 59.19 130.38 59.19H127.78V66.17H128.51V63.63H130.24L132.42 66.17H133.33L131.1 63.57ZM128.51 62.96V59.85H130.36C130.94 59.85 131.41 60 131.77 60.28C132.13 60.57 132.31 60.94 132.31 61.41C132.31 61.88 132.13 62.26 131.77 62.54C131.41 62.82 130.94 62.96 130.36 62.96H128.51V62.96Z" fill="white"/>
<path d="M141.93 59.19V63.2C141.93 63.91 141.72 64.5 141.3 64.95C140.88 65.41 140.34 65.64 139.68 65.64C139.02 65.64 138.48 65.41 138.06 64.95C137.65 64.49 137.44 63.9 137.44 63.2V59.19H136.71V63.2C136.71 64.12 136.98 64.88 137.52 65.46C138.06 66.04 138.78 66.32 139.67 66.32C140.56 66.32 141.27 66.03 141.81 65.46C142.36 64.87 142.63 64.12 142.63 63.2V59.19H141.93Z" fill="white"/>
<path d="M151.65 65.1C151.2 65.44 150.64 65.61 149.99 65.61C149.17 65.61 148.49 65.33 147.93 64.77C147.37 64.21 147.1 63.51 147.1 62.68C147.1 61.85 147.38 61.15 147.93 60.59C148.49 60.03 149.18 59.75 149.99 59.75C150.64 59.75 151.19 59.92 151.65 60.27C152.1 60.61 152.41 61.07 152.56 61.65H153.31C153.15 60.87 152.76 60.25 152.16 59.77C151.56 59.29 150.84 59.05 150 59.05C148.99 59.05 148.13 59.4 147.43 60.11C146.73 60.81 146.38 61.66 146.38 62.68C146.38 63.71 146.73 64.57 147.43 65.27C148.13 65.97 148.98 66.32 150 66.32C150.84 66.32 151.57 66.09 152.16 65.61C152.76 65.13 153.15 64.5 153.31 63.72H152.56C152.4 64.29 152.1 64.75 151.65 65.1Z" fill="white"/>
<path d="M155.92 59.19V59.85H158.52V66.17H159.25V59.85H161.85V59.19H155.92V59.19Z" fill="white"/>
<path d="M165.28 59.19V66.17H166.01V59.19H165.28Z" fill="white"/>
<path d="M176.11 60.11C175.4 59.4 174.54 59.04 173.55 59.04C172.55 59.04 171.69 59.4 170.98 60.11C170.27 60.81 169.92 61.67 169.92 62.67C169.92 63.68 170.27 64.54 170.98 65.24C171.68 65.95 172.55 66.3 173.55 66.3C174.55 66.3 175.41 65.95 176.11 65.24C176.82 64.53 177.18 63.67 177.18 62.67C177.18 61.67 176.83 60.82 176.11 60.11ZM175.6 64.77C175.04 65.34 174.36 65.63 173.55 65.63C172.74 65.63 172.05 65.34 171.49 64.77C170.93 64.19 170.65 63.49 170.65 62.68C170.65 61.86 170.93 61.16 171.49 60.6C172.05 60.02 172.74 59.73 173.55 59.73C174.36 59.73 175.04 60.02 175.6 60.6C176.16 61.17 176.44 61.86 176.44 62.68C176.44 63.49 176.16 64.18 175.6 64.77Z" fill="white"/>
<path d="M186.27 59.19V64.92L181.69 59.19H181.09V66.17H181.82V60.51L186.38 66.17H187V59.19H186.27Z" fill="white"/>
<path d="M117.11 38.44C113.7 37.13 110.79 36.19 110.79 33.64C110.79 31.28 113.22 29.41 116.05 29.41C118.43 29.41 120.56 30.75 121.42 32.74L123.67 31.23C123.56 30.96 123.43 30.67 123.27 30.37C123.24 30.31 123.21 30.25 123.17 30.2C123.15 30.15 123.12 30.1 123.08 30.05C123.05 30 123.02 29.94 122.98 29.89C122.79 29.58 122.55 29.27 122.27 28.98C120.9 27.5 118.79 26.48 116.1 26.48C111.46 26.48 107.8 29.51 107.8 33.58C107.8 37.66 111.43 39.25 114.67 40.51C118.05 41.79 121.84 43.21 121.84 46.18C121.84 48.79 119.02 50.65 115.56 50.65C112.76 50.65 110.05 49.14 108.86 46.88L106.57 48.57C106.6 48.65 106.64 48.72 106.68 48.8C106.69 48.83 106.71 48.86 106.73 48.9C106.86 49.15 107.01 49.41 107.18 49.65C107.33 49.88 107.5 50.1 107.69 50.32C107.95 50.63 108.25 50.93 108.57 51.21C108.58 51.22 108.58 51.23 108.58 51.22C108.67 51.3 108.76 51.38 108.86 51.45C110.53 52.78 112.85 53.65 115.55 53.65C120.63 53.65 124.84 50.69 124.84 46.13C124.83 41.88 121.08 40.05 117.11 38.44Z" fill="white"/>
<path d="M127.07 26.87V53.3H130.05V26.87H127.07Z" fill="white"/>
<path d="M137.27 50.33V26.87H134.29V53.3H150.22V50.34H137.27V50.33Z" fill="white"/>
<path d="M165.42 26.87L156.41 47.35L147.42 26.87H144.26L156.24 53.71H156.6L168.64 26.87H165.42Z" fill="white"/>
<path d="M174.77 26.45H174.44L162.23 53.29H165.46L167.4 48.95H181.83L183.76 53.29H187L174.77 26.45ZM168.56 46.36L174.63 32.77L180.68 46.36H168.56Z" fill="white"/>
<path d="M121.42 32.74H124.06C124.06 32.74 123.85 30.66 122.26 28.98L121.42 32.74Z" fill="white"/>
<path d="M108.85 46.88H105.89C105.89 46.88 106.6 49.77 108.85 51.45L109.64 49.93L108.85 46.88Z" fill="white"/>
<path d="M22.62 41.2L16.94 40.82L22.62 41.2Z" fill="white"/>
<path d="M14.22 38.37L25.12 39.08L25 32.63L24.88 26.5V26.37L0 25.16L7.46 63.74L14.22 38.37Z" fill="white"/>
<path d="M25.61 65.18L25.32 41.11L14.93 40.4L25.61 65.18Z" fill="white"/>
</svg>
