<?xml version="1.0" encoding="utf-8"?>
<!-- Generator: Adobe Illustrator 24.1.2, SVG Export Plug-In . SVG Version: 6.00 Build 0)  -->
<svg version="1.1" id="Layer_1" xmlns="http://www.w3.org/2000/svg" xmlns:xlink="http://www.w3.org/1999/xlink" x="0px" y="0px"
	 viewBox="0 0 120 120" style="enable-background:new 0 0 120 120;" xml:space="preserve">
<g>
	<path d="M68.4,5.1l1.1,6.9L73.2,6l1.9,0.4l-1.7,8.4l-1.4-0.3l0.6-2.8l0.9-3.7l-3.8,6l-1-0.2l-1.2-6.9l-0.6,3.7l-0.6,2.8L64.8,13
		l1.7-8.4L68.4,5.1z"/>
	<path d="M83.1,14.5c-0.3,0.8-0.8,1.4-1.3,1.8s-1.1,0.7-1.7,0.8s-1.3,0-1.9-0.3c-0.6-0.3-1.1-0.7-1.5-1.2c-0.4-0.5-0.6-1.1-0.6-1.8
		c0-0.7,0.1-1.4,0.4-2.2l0.2-0.4c0.3-0.8,0.8-1.4,1.3-1.8c0.5-0.5,1.1-0.8,1.7-0.8s1.3,0,1.9,0.3c0.6,0.3,1.1,0.7,1.5,1.2
		s0.6,1.1,0.6,1.8s-0.1,1.4-0.5,2.2L83.1,14.5z M81.9,13.5c0.4-0.9,0.5-1.6,0.4-2.2c-0.1-0.6-0.5-1-1.1-1.3
		c-0.6-0.3-1.1-0.2-1.7,0.1c-0.5,0.3-1,0.9-1.4,1.7L78,12.2c-0.4,0.9-0.5,1.6-0.4,2.2c0.1,0.6,0.5,1.1,1.1,1.3
		c0.6,0.3,1.2,0.2,1.7-0.1c0.5-0.3,1-0.9,1.4-1.8L81.9,13.5z"/>
	<path d="M86.5,19.1l5.5-4.4l1.4,0.9l-7.3,5.4l-1.2-0.8l2.2-8.8l1.4,0.9L86.5,19.1z"/>
	<path d="M95.8,24.3l-2.6-2.4l-1.8,1.9l3,2.8l-0.8,0.9l-4.1-3.8l5.8-6.2l4,3.8l-0.8,0.9l-3-2.8L94.1,21l2.6,2.4L95.8,24.3z"/>
	<path d="M96.9,31.3l7.1-4.7l1.4,2.1c0.4,0.6,0.6,1.3,0.7,2c0,0.7-0.1,1.3-0.5,1.9c-0.3,0.6-0.8,1.1-1.5,1.6l-0.4,0.2
		c-0.7,0.4-1.4,0.7-2,0.8s-1.3-0.1-1.9-0.4c-0.6-0.3-1.1-0.8-1.5-1.4L96.9,31.3z M103.9,28.6l-5.1,3.4l0.5,0.8c0.4,0.6,1,1,1.6,1.1
		s1.3-0.1,2.1-0.6l0.4-0.3c0.8-0.5,1.3-1.1,1.4-1.7c0.2-0.6,0.1-1.2-0.3-1.9L103.9,28.6z"/>
	<path d="M107.6,42.9c-0.8,0.3-1.5,0.5-2.2,0.5c-0.7,0-1.3-0.2-1.8-0.6c-0.5-0.4-0.9-0.9-1.2-1.5c-0.3-0.6-0.4-1.3-0.3-1.9
		s0.4-1.2,0.8-1.7c0.5-0.5,1.1-0.9,1.8-1.3l0.4-0.2c0.8-0.3,1.5-0.5,2.2-0.4c0.7,0,1.3,0.2,1.8,0.6c0.5,0.4,0.9,0.9,1.2,1.5
		c0.3,0.6,0.4,1.3,0.3,1.9c-0.1,0.6-0.4,1.2-0.8,1.7c-0.5,0.5-1.1,0.9-1.8,1.3L107.6,42.9z M107.5,41.4c0.9-0.4,1.5-0.8,1.8-1.3
		c0.3-0.5,0.4-1.1,0.1-1.7c-0.2-0.6-0.7-1-1.3-1.1c-0.6-0.1-1.3,0-2.2,0.3l-0.5,0.2c-0.9,0.4-1.5,0.8-1.8,1.3
		c-0.3,0.5-0.4,1.1-0.1,1.7c0.3,0.6,0.7,1,1.3,1.1c0.6,0.1,1.3,0,2.2-0.4L107.5,41.4z"/>
	<path d="M107.8,52.3l6.6,0.1l0.3,1.4l-8.7-0.3l-0.3-1.4l5.8-2.8l-6.4-0.5l-0.3-1.4l8-3.5l0.3,1.4l-6,2.5l6.6,0.4l0.2,1.2
		L107.8,52.3z"/>
	<path d="M106,63.6l0-1.5l6.1-3.7l-6.1-0.1l0-1.5l8.5,0.2l0,1.5l-6.2,3.7l6.1,0.1l0,1.5L106,63.6z"/>
	<path d="M110.6,76.6l0.7-2.6l-7.1-1.9l0.4-1.4l7.1,1.9l0.7-2.5l1.2,0.3l-1.8,6.5L110.6,76.6z"/>
	<path d="M103.9,83.8c-0.8-0.4-1.4-0.8-1.8-1.3c-0.4-0.5-0.7-1.1-0.8-1.7c-0.1-0.6,0-1.3,0.3-1.9c0.3-0.6,0.7-1.1,1.2-1.5
		s1.2-0.5,1.8-0.5c0.7,0,1.4,0.2,2.1,0.5l0.4,0.2c0.8,0.4,1.4,0.8,1.8,1.3c0.4,0.5,0.7,1.1,0.8,1.8c0.1,0.6,0,1.3-0.3,1.9
		c-0.3,0.6-0.7,1.1-1.2,1.5c-0.5,0.3-1.1,0.5-1.8,0.5c-0.7,0-1.4-0.2-2.2-0.5L103.9,83.8z M104.9,82.6c0.9,0.4,1.6,0.6,2.2,0.4
		s1.1-0.5,1.3-1.1c0.3-0.6,0.3-1.1,0-1.7c-0.3-0.5-0.9-1-1.7-1.4l-0.4-0.2c-0.8-0.4-1.6-0.5-2.2-0.4c-0.6,0.1-1.1,0.5-1.3,1
		c-0.3,0.6-0.3,1.2,0,1.7c0.3,0.5,0.9,1,1.8,1.4L104.9,82.6z"/>
	<path d="M96.1,91.3c0.3,0.2,0.6,0.3,0.9,0.3c0.3-0.1,0.8-0.3,1.4-0.7c0.6-0.4,1.1-0.7,1.6-0.8c0.9-0.3,1.6-0.2,2.2,0.3
		c0.5,0.4,0.8,1,0.8,1.7s-0.3,1.4-0.9,2.1c-0.4,0.5-0.8,0.8-1.3,1c-0.5,0.2-0.9,0.3-1.4,0.2c-0.5-0.1-0.9-0.2-1.3-0.6l0.9-1.1
		c0.3,0.3,0.7,0.4,1.1,0.3s0.7-0.3,1.1-0.7c0.3-0.4,0.5-0.7,0.5-1.1c0-0.3-0.1-0.6-0.4-0.9c-0.2-0.2-0.5-0.3-0.9-0.2
		c-0.3,0.1-0.8,0.3-1.4,0.7c-0.6,0.4-1.1,0.7-1.5,0.8S96.6,93,96.2,93c-0.4-0.1-0.7-0.2-1.1-0.5c-0.5-0.5-0.8-1-0.8-1.7
		c0-0.7,0.3-1.4,0.9-2.1c0.4-0.5,0.8-0.8,1.4-1.1c0.5-0.3,1-0.4,1.5-0.3s0.9,0.2,1.4,0.6l-0.9,1.1c-0.4-0.3-0.8-0.4-1.2-0.3
		c-0.4,0.1-0.8,0.3-1.2,0.8c-0.3,0.4-0.5,0.8-0.5,1.1C95.7,90.8,95.8,91.1,96.1,91.3z"/>
	<path d="M91,98.3l2.6-2.3l-1.7-2l-3.1,2.7l-0.8-0.9l4.2-3.7l5.6,6.4l-4.2,3.6l-0.8-0.9l3-2.7l-1.6-1.8l-2.6,2.3L91,98.3z"/>
	<path d="M84.7,102.6l3-1.9l-1.4-2.2l-3.5,2.2l-0.6-1l4.7-3l4.6,7.2l-4.7,3l-0.6-1l3.4-2.2l-1.3-2l-3,1.9L84.7,102.6z"/>
	<path d="M71.8,106l0.6,6.5l-1.4,0.4l-0.6-8.7l1.4-0.4l3.4,5.5l-0.2-6.4l1.4-0.4l4.4,7.6l-1.4,0.4l-3.1-5.8l0.3,6.6l-1.2,0.4
		L71.8,106z"/>
	<path d="M60.4,105.4l1.5-0.1l0.3,3.8l3.8-0.3l-0.3-3.8l1.5-0.1l0.7,8.5l-1.5,0.1l-0.3-3.5l-3.8,0.3l0.3,3.5l-1.5,0.1L60.4,105.4z"
		/>
	<path d="M53.3,106.8l3.3,0.3l0.9-1.9l1.5,0.2l-4.1,8.2l-1.3-0.1l-2.3-8.8l1.5,0.2L53.3,106.8z M56.1,108.3l-2.5-0.3l0.9,3.6
		L56.1,108.3z"/>
	<path d="M42.8,109.9l2.6,0.7l1.9-7.1l1.4,0.4l-1.9,7.1l2.5,0.7l-0.3,1.2l-6.5-1.8L42.8,109.9z"/>
	<path d="M33.6,99.6l-4.4,4.9l-1.3-0.7l6-6.4l1.2,0.7l-1.8,6.2l4.6-4.5l1.2,0.7l-2.6,8.4l-1.3-0.7l2.1-6.2l-4.7,4.7l-1.1-0.6
		L33.6,99.6z"/>
	<path d="M25.1,94.9l2.6,2.3l1.7-2l-3.1-2.7l0.8-0.9l4.2,3.7l-5.7,6.4l-4.1-3.7l0.8-0.9l3,2.7l1.6-1.8l-2.6-2.3L25.1,94.9z"/>
	<path d="M17.8,84.1c0.8-0.4,1.6-0.6,2.3-0.4c0.8,0.2,1.4,0.7,2,1.5c0.4,0.6,0.6,1.1,0.6,1.8s-0.1,1.2-0.4,1.8s-0.8,1.1-1.4,1.5
		l-0.7,0.5c-0.7,0.5-1.3,0.7-2,0.9c-0.7,0.1-1.3,0-1.9-0.2s-1.1-0.7-1.5-1.2c-0.5-0.8-0.8-1.5-0.7-2.3c0.1-0.8,0.5-1.4,1.2-2.1
		l0.8,1.2c-0.5,0.4-0.7,0.8-0.8,1.2c-0.1,0.4,0.1,0.8,0.4,1.3c0.4,0.5,0.8,0.8,1.4,0.8c0.6,0,1.3-0.2,2-0.7l0.6-0.4
		c0.8-0.5,1.2-1.1,1.5-1.6c0.2-0.5,0.1-1.1-0.2-1.6c-0.3-0.5-0.7-0.8-1.1-0.9c-0.4-0.1-0.8,0-1.4,0.3L17.8,84.1z"/>
	<path d="M15.5,77.6l1.4,3l2.1-0.2l0.6,1.4l-9.1,0.6L10,81.2l6.4-6.5l0.6,1.4L15.5,77.6z M15.6,80.7l-1-2.2l-2.7,2.6L15.6,80.7z"/>
	<path d="M14.4,66.9l0.4,1.4l-5,5.1l5.9-1.4l0.4,1.4l-8.3,2l-0.4-1.4l5-5.2l-5.9,1.5L6.1,69L14.4,66.9z"/>
	<path d="M13.8,61.4l-8.5-0.1l0-2.5c0-0.8,0.2-1.4,0.5-2s0.8-1,1.5-1.3S8.7,55,9.5,55l0.4,0c0.8,0,1.5,0.2,2.1,0.5
		c0.6,0.3,1.1,0.8,1.4,1.4c0.3,0.6,0.5,1.3,0.5,2.1L13.8,61.4z M6.5,59.8l6.2,0.1l0-1c0-0.8-0.2-1.4-0.7-1.8
		c-0.5-0.4-1.2-0.6-2.1-0.7l-0.5,0c-0.9,0-1.6,0.2-2.1,0.6c-0.5,0.4-0.7,1-0.8,1.7L6.5,59.8z"/>
	<path d="M11.5,45.8c0.8,0.2,1.5,0.4,2.1,0.9c0.6,0.4,1,0.9,1.2,1.5c0.2,0.6,0.3,1.2,0.1,1.9c-0.1,0.7-0.4,1.2-0.9,1.7
		s-1,0.8-1.7,0.9c-0.7,0.2-1.4,0.2-2.2,0l-0.5-0.1c-0.8-0.2-1.5-0.5-2.1-0.9c-0.6-0.4-1-0.9-1.2-1.5S6.1,49,6.3,48.4
		s0.4-1.3,0.9-1.7c0.4-0.5,1-0.8,1.7-0.9c0.7-0.2,1.4-0.2,2.2,0L11.5,45.8z M10.8,47.2C9.8,47,9.1,47,8.5,47.3
		c-0.6,0.3-0.9,0.7-1,1.3c-0.1,0.6,0,1.2,0.4,1.6s1.1,0.8,2,1l0.5,0.1c0.9,0.2,1.7,0.1,2.2-0.1c0.6-0.3,0.9-0.7,1.1-1.3
		c0.1-0.6,0-1.2-0.4-1.6c-0.4-0.4-1.1-0.8-2-0.9L10.8,47.2z"/>
	<path d="M16.1,35.6l-1.5,3.1l3.3,1.5l-0.6,1.3l-7.7-3.7l2.3-4.9l1.1,0.5l-1.7,3.6l2.3,1.1l1.5-3.1L16.1,35.6z"/>
	<path d="M20.9,27.5c0.7,0.5,1.2,1,1.6,1.6c0.4,0.6,0.5,1.2,0.5,1.8c0,0.6-0.2,1.2-0.6,1.8c-0.4,0.6-0.9,1-1.5,1.2
		c-0.6,0.2-1.2,0.3-1.9,0.2s-1.4-0.4-2-0.9L16.5,33c-0.7-0.5-1.2-1-1.5-1.6c-0.4-0.6-0.5-1.2-0.5-1.9c0-0.6,0.2-1.2,0.6-1.8
		c0.4-0.6,0.9-1,1.5-1.2s1.2-0.3,1.9-0.2s1.4,0.4,2,0.9L20.9,27.5z M19.7,28.4c-0.8-0.5-1.5-0.8-2.1-0.8s-1.1,0.3-1.5,0.8
		c-0.4,0.5-0.4,1.1-0.2,1.7s0.7,1.1,1.4,1.7l0.4,0.3c0.8,0.5,1.5,0.8,2.1,0.8c0.6,0,1.1-0.3,1.5-0.8c0.4-0.5,0.5-1.1,0.3-1.7
		c-0.2-0.6-0.7-1.1-1.5-1.7L19.7,28.4z"/>
	<path d="M25.3,23.9l-1.2,1.2l2.3,2.3l-1.1,1l-6-6l2.1-2.1c0.7-0.7,1.4-1.1,2.1-1.1c0.7-0.1,1.3,0.2,1.9,0.8
		c0.4,0.4,0.6,0.8,0.7,1.3c0.1,0.5,0,0.9-0.2,1.4l3.9,1.2l0.1,0.1l-1.1,1.1L25.3,23.9z M23.3,24.3l1.1-1.1c0.4-0.4,0.5-0.7,0.6-1.1
		s-0.1-0.7-0.4-1c-0.3-0.3-0.7-0.5-1-0.5c-0.4,0-0.7,0.2-1.1,0.5l-1.1,1.1L23.3,24.3z"/>
	<path d="M34,15.7l-0.4-4.5l1.4-0.8l0.3,6.1l1.6,2.7l-1.3,0.8L34,17.3l-5.2-3.1l1.4-0.8L34,15.7z"/>
	<path d="M45.3,11c0.3,0.8,0.4,1.5,0.4,2.2c0,0.7-0.3,1.3-0.6,1.8c-0.4,0.5-0.9,0.9-1.5,1.1c-0.6,0.2-1.3,0.3-1.9,0.2
		c-0.6-0.1-1.2-0.4-1.7-0.9s-0.9-1.1-1.2-1.9l-0.2-0.4c-0.3-0.8-0.4-1.5-0.4-2.2c0-0.7,0.3-1.3,0.6-1.8c0.4-0.5,0.9-0.9,1.5-1.1
		c0.6-0.3,1.3-0.3,1.9-0.2c0.6,0.1,1.2,0.4,1.7,0.9c0.5,0.5,0.9,1.1,1.2,1.9L45.3,11z M43.7,11.2c-0.3-0.9-0.8-1.5-1.3-1.8
		c-0.5-0.3-1.1-0.4-1.7-0.2c-0.6,0.2-1,0.6-1.1,1.2c-0.2,0.6-0.1,1.3,0.2,2.2L40,13c0.3,0.9,0.8,1.5,1.3,1.8
		c0.5,0.3,1.1,0.4,1.7,0.2c0.6-0.2,1-0.7,1.1-1.2c0.1-0.6,0.1-1.3-0.3-2.2L43.7,11.2z"/>
	<path d="M53,4.8l1.1,5.6c0.2,0.9,0,1.6-0.5,2.3c-0.5,0.6-1.2,1-2.1,1.2c-1,0.2-1.8,0.1-2.4-0.3s-1.1-1.1-1.2-2L46.7,6l1.5-0.3
		l1.1,5.6c0.1,0.6,0.3,1,0.7,1.2c0.3,0.2,0.8,0.3,1.3,0.2c1.1-0.2,1.6-0.9,1.3-2.1l-1-5.6L53,4.8z"/>
</g>
</svg>
