<svg width="187" height="73" viewBox="0 0 187 73" fill="none" xmlns="http://www.w3.org/2000/svg">
<path d="M48.07 50.3H45.51V48.97H52.02V50.3H49.46V57.73H48.07V50.3V50.3Z" fill="white"/>
<path d="M59.1799 57.73V48.97H64.7699V50.26H60.5399V52.64H64.4599V53.93H60.5399V56.43H64.7799V57.72H59.1799V57.73Z" fill="white"/>
<path d="M72.4399 57.73V48.97H73.7999V56.41H78.4199V57.73H72.4399Z" fill="white"/>
<path d="M85.5901 57.73V48.97H91.1801V50.26H86.9501V52.64H90.8701V53.93H86.9501V56.43H91.1901V57.72H85.5901V57.73Z" fill="white"/>
<path d="M100.51 50.3H97.95V48.97H104.46V50.3H101.9V57.73H100.51V50.3Z" fill="white"/>
<path d="M111.62 57.73V48.97H112.98V52.61H117.15V48.97H118.51V57.73H117.15V53.93H112.98V57.73H111.62Z" fill="white"/>
<path d="M126.59 57.73V48.97H132.18V50.26H127.95V52.64H131.87V53.93H127.95V56.43H132.19V57.72H126.59V57.73Z" fill="white"/>
<path d="M144.51 57.73L142.38 54.29H141.22V57.73H139.86V48.97H142.95C143.86 48.97 144.56 49.23 145.05 49.75C145.54 50.27 145.79 50.9 145.79 51.63C145.79 52.78 145.1 53.81 143.83 54.15L146.16 57.72H144.51V57.73ZM141.21 50.27V53.03H142.73C143.83 53.03 144.37 52.43 144.37 51.63C144.37 50.86 143.85 50.27 142.95 50.27H141.21Z" fill="white"/>
<path d="M158.92 57.73L158.09 55.57H154.87L154.04 57.73H152.57L156.05 48.97H156.94L160.39 57.73H158.92V57.73ZM156.49 51.14L155.3 54.32H157.67L156.49 51.14Z" fill="white"/>
<path d="M170.54 48.97C171.5 48.97 172.22 49.24 172.71 49.79C173.21 50.32 173.46 50.97 173.46 51.75C173.46 52.52 173.2 53.16 172.69 53.69C172.18 54.22 171.42 54.48 170.43 54.48H168.89V57.73H167.53V48.97H170.54ZM170.46 53.23C171.51 53.23 172.07 52.54 172.07 51.72C172.07 50.9 171.54 50.25 170.6 50.25H168.88V53.22H170.46V53.23Z" fill="white"/>
<path d="M187 48.97L183.99 54.61V57.73H182.63V54.61L179.66 48.97H181.2L183.32 53.21L185.47 48.97H187Z" fill="white"/>
<path d="M23.36 51.47C21.68 51.47 20.06 51.24 18.52 50.8L16.28 51.93L12.68 53.75L12.34 50L12.11 47.42C8.17 44.17 5.65 39.25 5.65 33.76C5.65 23.99 13.59 16.04 23.36 16.04C27.2 16.04 30.85 17.28 33.89 19.6H41.89C37.44 13.85 30.55 10.4 23.36 10.4C10.49 10.39 0 20.88 0 33.76C0 40.57 2.94 46.72 7.62 50.99C10.74 53.84 14.62 55.85 18.92 56.68C20.36 56.96 21.84 57.11 23.36 57.11C30.57 57.11 37.46 53.68 41.89 47.91H33.89C30.87 50.23 27.23 51.47 23.36 51.47Z" fill="white"/>
<path d="M22.1801 54.82L18.9201 56.68L8.5301 62.61L7.6201 50.99L7.3501 47.55L12.3401 50L12.6801 53.74L16.2801 51.93L22.1801 54.82Z" fill="white"/>
<path d="M37.2799 27.65C39.0199 25.87 41.2399 24.99 43.9399 24.99C46.6399 24.99 48.8599 25.88 50.5999 27.65C52.3399 29.39 53.1999 31.55 53.1999 34.09C53.1999 36.66 52.3399 38.82 50.5999 40.56C48.8599 42.3 46.6399 43.19 43.9399 43.19C41.2399 43.19 39.0199 42.3 37.2799 40.56C35.5399 38.82 34.6799 36.66 34.6799 34.09C34.6799 31.55 35.5399 29.39 37.2799 27.65ZM43.9499 39.03C45.3099 39.03 46.4199 38.55 47.3399 37.6C48.2599 36.62 48.7399 35.44 48.7399 34.08C48.7399 32.72 48.2599 31.54 47.3399 30.59C46.4199 29.64 45.3099 29.16 43.9499 29.16C42.5899 29.16 41.4399 29.64 40.5199 30.59C39.5999 31.54 39.1599 32.72 39.1599 34.08C39.1599 35.44 39.5999 36.62 40.5199 37.6C41.4399 38.56 42.5799 39.03 43.9499 39.03Z" fill="white"/>
<path d="M55.6599 42.74V25.46H60.0399V27.87C60.9599 26.19 63.0199 24.98 65.4599 24.98C67.3299 24.98 68.9499 25.61 70.2499 26.85C71.5499 28.09 72.2199 29.86 72.2199 32.18V42.74H67.7499V33.38C67.7499 30.62 66.2899 29.1 64.0999 29.1C61.7199 29.1 60.1399 30.91 60.1399 33.48V42.74H55.6599Z" fill="white"/>
<path d="M74.4299 42.74V25.46H78.8099V27.87C79.7299 26.19 81.7899 24.98 84.2299 24.98C86.0999 24.98 87.7199 25.61 89.0199 26.85C90.3199 28.09 90.9899 29.86 90.9899 32.18V42.74H86.5199V33.38C86.5199 30.62 85.0599 29.1 82.8699 29.1C80.4899 29.1 78.9099 30.91 78.9099 33.48V42.74H74.4299Z" fill="white"/>
<path d="M110.4 35.67H97.4299C98.0599 38.11 99.7499 39.35 102.47 39.35C104.34 39.35 106.56 38.62 108.05 37.61L109.83 40.75C107.64 42.34 105.14 43.13 102.28 43.13C99.2399 43.13 96.9199 42.24 95.2999 40.5C93.6799 38.76 92.8899 36.6 92.8899 34.09C92.8899 31.46 93.7099 29.3 95.3999 27.59C97.0799 25.88 99.2399 25.02 101.9 25.02C104.41 25.02 106.5 25.81 108.12 27.37C109.74 28.92 110.56 31.02 110.56 33.71C110.56 34.31 110.49 34.97 110.4 35.67ZM97.4299 32.34H106.22C105.81 30.09 104.19 28.72 101.91 28.72C99.6499 28.72 97.9699 30.09 97.4299 32.34Z" fill="white"/>
<path d="M114.95 40.59C113.24 38.91 112.38 36.72 112.38 34.09C112.38 31.46 113.24 29.27 114.98 27.59C116.72 25.88 118.94 25.02 121.67 25.02C125.19 25.02 128.3 26.76 129.73 29.84L126.15 31.81C125.1 30.07 123.61 29.18 121.74 29.18C120.31 29.18 119.14 29.66 118.22 30.61C117.3 31.53 116.82 32.7 116.82 34.1C116.82 35.53 117.26 36.7 118.18 37.65C119.1 38.57 120.27 39.05 121.64 39.05C123.45 39.05 125.29 37.97 126.05 36.45L129.67 38.58C128.18 41.37 125.1 43.15 121.55 43.15C118.85 43.12 116.66 42.27 114.95 40.59Z" fill="white"/>
<path d="M144.75 29.19V25.48H139.05V19.36H134.61V25.48H131.78V29.19H134.57V36.35C134.57 40.83 136.64 43.16 140.62 43.16C142.04 43.16 143.26 42.93 144.37 42.43V38.22C143.34 38.79 142.34 39.1 141.5 39.1C139.89 39.1 139.05 38.07 139.05 36.04V29.19H144.75V29.19Z" fill="white"/>
<path d="M147.76 42.74V19.3H163.65V23.68H152.49V28.72H162.83V33.1H152.59V38.36H163.66V42.74H147.76Z" fill="white"/>
<path d="M166.54 42.74V19.3H175.71C179.23 19.3 181.99 20.35 183.99 22.47C185.99 24.56 187 27.42 187 31.07C187 34.65 185.99 37.51 183.92 39.6C181.89 41.69 179.1 42.74 175.51 42.74H166.54ZM171.24 38.24H175.74C177.77 38.24 179.32 37.54 180.43 36.18C181.54 34.82 182.11 33.07 182.11 30.98C182.11 28.92 181.54 27.24 180.43 25.87C179.32 24.51 177.77 23.81 175.74 23.81H171.24V38.24Z" fill="white"/>
<path d="M17.4499 40.59C15.7399 38.91 14.8799 36.72 14.8799 34.09C14.8799 31.46 15.7399 29.27 17.4799 27.59C19.2199 25.88 21.4399 25.02 24.1699 25.02C27.6899 25.02 30.7999 26.76 32.2299 29.84L28.6499 31.81C27.5999 30.07 26.1099 29.18 24.2399 29.18C22.8099 29.18 21.6399 29.66 20.7199 30.61C19.7999 31.53 19.3199 32.7 19.3199 34.1C19.3199 35.53 19.7599 36.7 20.6799 37.65C21.5999 38.57 22.7699 39.05 24.1399 39.05C25.9499 39.05 27.7899 37.97 28.5499 36.45L32.1699 38.58C30.6799 41.37 27.5999 43.15 24.0499 43.15C21.3499 43.12 19.1599 42.27 17.4499 40.59Z" fill="white"/>
</svg>
