<svg width="187" height="73" viewBox="0 0 187 73" fill="none" xmlns="http://www.w3.org/2000/svg">
<g opacity="0.9">
<path d="M38.9134 15.9113C38.8158 15.6202 37.6928 12.7581 36.814 11.7879C35.691 10.5752 26.5119 13.3888 22.6547 16.0083C22.6059 16.0568 22.5571 16.1053 22.5082 16.1053C22.4594 16.1539 22.4106 16.1539 22.3618 16.2024C13.9639 21.5385 8.05606 33.181 9.9114 43.0286C8.9349 43.3681 8.49548 43.9503 8.54431 44.7749L12.0597 48.2192C17.2351 52.0515 22.6059 53.7978 28.0743 53.4583C28.0743 53.4583 28.1719 53.4583 28.3672 53.4098C28.5137 53.4098 28.6602 53.4098 28.8067 53.3612C29.1973 53.3127 29.7832 53.2157 30.4179 53.1187C31.0038 53.0217 31.5409 52.9247 32.1268 52.7791C32.7127 52.6336 33.2986 52.4881 33.8845 52.294C34.1774 52.197 34.4704 52.1 34.7633 52.003C35.4957 51.7119 36.2769 51.4208 37.0093 51.0813C37.2534 50.9842 37.4487 50.8387 37.6928 50.7417C35.8863 49.0438 34.7633 46.6668 34.7145 44.0473C34.2262 44.4839 33.738 44.8719 33.2986 45.26L33.2497 45.3085C32.4685 45.9392 31.785 46.4243 31.1991 46.8609C31.1991 46.8609 31.1503 46.8609 31.1503 46.9094C31.1014 46.9579 31.0526 46.9579 31.0526 46.9579C31.8826 45.8422 33.6403 43.4651 35.0563 41.6218C36.1304 40.1664 36.9604 39.0022 36.9604 39.0022C36.6675 39.0507 36.3745 39.1477 36.0816 39.1962C35.0563 39.3903 34.0798 39.4388 33.1521 39.3418C32.3709 40.8941 31.3456 42.786 30.1249 45.0175L29.5879 45.9877L29.002 46.2787C27.2443 47.1034 25.9748 47.54 25.1936 47.4915C26.4631 48.2192 27.7325 48.6557 29.0508 48.8983C29.0508 48.8983 29.0508 48.8983 29.0996 48.8983C29.0996 48.8983 29.1484 48.8983 29.1973 48.9468C29.4414 48.9468 29.6855 48.9953 29.9296 49.0438C31.3456 49.1894 32.908 49.2864 34.7145 49.2864C28.5137 51.4208 23.4847 51.5664 19.5299 49.626C19.5787 49.626 19.5787 49.626 19.6276 49.6745C18.7975 49.3349 18.0652 48.8498 17.3816 48.2192C16.7957 46.5213 17.4304 45.163 19.2858 44.2413C20.0182 43.5622 20.3111 42.592 20.1646 41.4277C20.067 40.9426 20.2623 40.312 20.7994 39.5843C21.0923 39.3418 21.4341 39.4873 21.7759 39.9724C21.5806 39.6328 21.4341 39.2447 21.3853 38.8567C21.2876 38.4686 21.727 38.032 22.7035 37.4499C23.3871 36.9648 23.4359 36.5282 22.8988 36.0431C21.9223 35.558 21.2876 35.1214 20.9947 34.7818C20.7505 33.9571 20.9458 33.3265 21.5806 32.8414C22.8988 32.0652 24.2171 31.2406 25.5842 30.3189C27.2931 29.3972 28.2696 28.524 28.5625 27.6993C29.2461 25.2738 30.955 23.77 33.6892 23.2849C34.3239 21.8296 35.4957 20.9079 37.2534 20.5198C38.767 22.1206 41.7941 26.6321 42.8194 34.5878C43.2589 34.5393 43.6983 34.4907 44.1377 34.4907C44.333 34.4907 44.4795 34.4907 44.6748 34.4907C44.8213 29.7852 41.5012 22.3147 38.9134 15.9113ZM11.1809 34.4907C14.501 22.4602 21.6782 15.7173 32.6638 14.2134C33.4939 15.1836 34.568 16.2994 35.8863 17.5607C26.2189 16.736 17.9675 22.3632 11.1809 34.4907ZM53.805 35.4124C53.5609 35.4124 51.2662 35.5095 48.9714 35.8005C51.7544 37.4499 53.5609 40.409 53.5609 43.8532C53.5609 49.0438 49.3132 53.2157 44.1377 53.2157C42.8194 53.2157 41.55 52.9247 40.3782 52.4395C41.6965 53.7493 43.6495 55.2531 45.9931 55.7382C50.4849 56.6599 55.9045 51.8089 55.9045 51.8089C55.9045 51.8089 58.1505 43.0286 58.1505 42.786C58.1505 42.592 54.2933 35.4609 53.805 35.4124Z" fill="white"/>
<path d="M87.4943 46.5213H80.2193H79.1452L64.693 17.5122H74.3115L83.4906 36.0916L92.6697 17.5122H102.239L88.129 46.5213H87.4943Z" fill="white"/>
<path d="M123.136 17.512H114.25C105.364 17.512 100.97 21.1503 100.97 28.3783V35.6064C100.97 42.8829 105.413 46.4727 114.25 46.4727H123.136C132.023 46.4727 136.466 42.8344 136.466 35.6064V28.3783C136.417 21.1503 132.023 17.512 123.136 17.512ZM127.58 35.8004C127.58 38.2259 126.115 39.4387 123.136 39.4387H114.25C111.272 39.4387 109.807 38.2259 109.807 35.8004V28.2813C109.807 25.8558 111.272 24.643 114.25 24.643H123.136C126.115 24.643 127.58 25.8558 127.58 28.2813V35.8004Z" fill="white"/>
<path d="M139.542 46.5212V17.512H148.428V46.5212H139.542Z" fill="white"/>
<path d="M173.719 17.512H151.553V24.643H173.719C176.697 24.643 178.162 25.8558 178.162 28.2813V35.7519C178.162 38.1774 176.697 39.3902 173.719 39.3902H160.39V29.5426H151.504V46.5212H173.67C182.556 46.5212 187 42.8829 187 35.6549V28.3783C187.048 21.1503 182.605 17.512 173.719 17.512Z" fill="white"/>
<path d="M82.4653 57.5811H82.4165L79.1452 53.6518V59.6186H78.1687V52.245H79.194L82.4653 56.2713L85.7366 52.245H86.7619V59.6186H85.7366V53.6518L82.4653 57.5811Z" fill="white"/>
<path d="M100.237 52.9726H94.7203V55.4952H99.6516V56.2713H94.7203V58.8424H100.286V59.6186H93.6949V52.245H100.237V52.9726Z" fill="white"/>
<path d="M114.299 57.3386C114.055 57.7752 113.762 58.1633 113.323 58.5029C112.883 58.8424 112.395 59.085 111.809 59.279C111.223 59.4731 110.588 59.5701 109.856 59.5701H106.731V52.1965H109.856C110.54 52.1965 111.223 52.2935 111.809 52.4876C112.395 52.6816 112.883 52.9242 113.323 53.2637C113.762 53.6033 114.055 53.9914 114.299 54.428C114.543 54.8646 114.641 55.3497 114.641 55.8833C114.641 56.4169 114.543 56.902 114.299 57.3386ZM113.323 54.7676C113.127 54.428 112.883 54.0884 112.59 53.8459C112.248 53.6033 111.858 53.3608 111.418 53.2152C110.93 53.0697 110.442 52.9727 109.856 52.9727H107.757V58.7939H109.856C110.442 58.7939 110.93 58.6969 111.418 58.5514C111.858 58.4058 112.297 58.2118 112.59 57.9207C112.932 57.6782 113.176 57.3386 113.323 56.999C113.518 56.6595 113.567 56.2714 113.567 55.8348C113.567 55.4952 113.518 55.1071 113.323 54.7676Z" fill="white"/>
<path d="M122.306 52.1965V59.5701H121.281V52.1965H122.306Z" fill="white"/>
<path d="M137.735 59.5701H136.661L135.587 57.6297H130.656L129.581 59.5701H128.556L132.657 52.148H133.634L137.735 59.5701ZM133.097 53.1668L131.046 56.9021H135.147L133.097 53.1668Z" fill="white"/>
<path d="M47.5067 35.2185C47.5555 35.267 47.6532 35.3155 47.7508 35.364C48.2391 35.558 48.7273 35.8006 49.1668 36.0431C48.3367 35.5095 47.702 35.267 47.5067 35.2185Z" fill="white"/>
<path d="M10.9367 52.5852L10.5461 52.6337C10.4485 52.5852 10.3997 52.4881 10.3508 52.4396C10.5461 52.4881 10.7414 52.5366 10.9367 52.5852Z" fill="white"/>
<path d="M49.4596 28.0391C57.0763 35.7037 59.2246 42.5921 59.7617 46.57C58.9805 48.4134 57.9064 50.3538 56.4904 52.2942C56.344 52.4882 56.1975 52.6823 56.0998 52.8278L56.051 52.8763C54.9769 54.2831 53.8051 55.6414 52.5844 56.9027C52.0962 57.3878 51.3638 57.6303 50.6314 57.4848C45.6025 56.5146 40.3294 56.6601 35.1051 57.8729C33.9821 58.1154 32.8592 58.358 31.785 58.5035C32.615 58.455 33.4451 58.358 34.2751 58.261H34.3239C39.2064 57.5818 44.2354 58.0184 48.9714 59.3767C48.6784 59.2797 48.239 59.3767 47.8972 59.3767C47.5066 59.3767 47.116 59.3767 46.7254 59.3767C45.9442 59.3767 45.2119 59.3767 44.4307 59.3767C43.0147 59.3767 41.55 59.4252 40.1341 59.6192C37.5952 59.8618 35.1539 60.4439 32.6639 60.8805C32.4197 60.929 32.1756 60.929 31.9315 60.9775C27.4884 61.5111 22.6547 61.1716 18.407 59.7648C15.2822 58.6975 12.1085 57.3393 8.6908 55.3988C9.13022 55.4959 16.2587 57.5333 18.9929 57.8729C21.0923 58.261 23.2406 58.4065 25.4378 58.358C20.2135 57.6788 15.0869 55.7869 10.4485 52.6823C10.4485 52.6823 26.9513 59.5222 41.3547 51.7121C43.7959 52.6338 46.6766 52.4882 49.069 51.0329C50.0944 50.4023 50.9732 49.6261 51.6079 48.7044C54.9769 41.3794 51.5591 37.7411 49.2155 36.1888C49.1667 36.1403 49.1179 36.1403 49.1179 36.0918C48.2878 35.5581 47.6043 35.3156 47.4578 35.2671H47.409C47.3113 35.1701 47.2625 35.0245 47.2137 34.879C46.286 26.8748 43.6983 19.1132 39.5482 12.0792C39.5482 12.0792 49.4596 13.1464 56.051 20.7625C56.0998 20.811 56.1487 20.8595 56.1487 20.908C57.0763 22.0723 57.9064 23.285 58.5899 24.5463C58.5899 24.5463 58.5899 24.5463 58.5899 24.5948C58.7364 24.8859 59.8594 26.7293 60.6894 29.6399C60.7382 29.7369 60.7382 29.7854 60.7382 29.8824C60.9823 30.7071 61.1776 31.6288 61.3241 32.599C57.9064 24.4493 50.4361 21.6842 50.192 21.6357C57.0275 28.5242 59.4688 34.782 60.25 38.8568C56.9787 30.7556 49.6549 28.0876 49.4596 28.0391Z" fill="white"/>
<path d="M47.4579 35.17C47.5116 35.2233 47.4579 35.17 47.4579 35.17V35.17Z" fill="white"/>
<path d="M31.8339 0C31.6874 0.533613 31.6386 1.11574 31.3456 1.55233C31.0527 1.98892 30.5156 2.23147 29.9785 2.61956C31.3456 2.52254 32.1756 3.15317 32.5174 4.51146C32.7127 3.88082 32.7127 3.25019 33.0057 2.8136C33.2986 2.377 33.8357 2.18296 34.4704 1.74637C33.1033 1.74637 32.2245 1.26127 31.8339 0Z" fill="white"/>
<path d="M0 41.5247C0.683549 41.7673 1.51357 41.8643 2.05065 42.3009C2.58772 42.7375 2.88067 43.4651 3.36892 44.2413C3.36892 42.3979 4.24777 41.3792 6.15195 40.9911C5.22427 40.7 4.39425 40.603 3.80835 40.1664C3.27127 39.7784 3.02715 39.0022 2.49007 38.1775C2.49007 40.0209 1.70887 41.1366 0 41.5247Z" fill="white"/>
<path d="M64.7418 56.6111C65.523 56.9021 66.4019 56.9992 66.9878 57.4843C67.5737 57.9209 67.9154 58.7455 68.4525 59.5702C68.4525 57.5813 69.429 56.417 71.4797 56.029C70.4543 55.6894 69.5755 55.5924 68.9408 55.1558C68.3549 54.7192 68.0619 53.846 67.5248 52.9728C67.4272 54.9617 66.646 56.1745 64.7418 56.6111Z" fill="white"/>
<path d="M27.9767 47.4915C28.2208 47.54 28.4649 47.54 28.6602 47.5885C28.4649 47.54 28.2208 47.4915 27.9767 47.4915ZM27.9767 47.4915C28.2208 47.54 28.4649 47.54 28.6602 47.5885C28.4649 47.54 28.2208 47.4915 27.9767 47.4915Z" fill="white"/>
<path d="M44.0401 37.0136C43.9913 37.1106 43.8937 37.2562 43.8448 37.3532C43.8448 37.2562 43.8937 37.1592 44.0401 37.0136Z" fill="white"/>
<path d="M50.8267 45.4547C50.8267 45.5032 50.8267 45.5517 50.7779 45.6002C50.7779 45.6002 50.8267 45.5517 50.8267 45.4547C50.8267 45.4547 50.8267 45.5032 50.8267 45.4547C50.8755 45.3576 50.8755 45.2606 50.8755 45.2121C50.8755 45.3091 50.8267 45.4062 50.8267 45.4547ZM50.9244 42.5926C50.3873 39.5849 47.946 37.402 45.0166 37.0139C45.0166 37.0139 45.0654 37.0139 45.0654 37.0624C48.239 37.499 50.7291 40.07 50.9732 43.3687C50.9732 43.4657 50.9732 43.5628 50.9732 43.6598C51.022 43.3202 50.9732 42.9806 50.9244 42.5926ZM48.0925 41.5253C48.0437 41.5253 48.0437 41.5253 48.0437 41.5253C48.5808 42.35 48.8249 43.3687 48.6784 44.436C48.3366 46.91 46.0907 48.6563 43.6006 48.3168C42.8683 48.2198 42.1847 47.9287 41.5988 47.5406C41.5988 47.5406 41.5988 47.5406 41.5988 47.5891C41.1106 49.2385 42.2335 50.3057 42.5265 50.4997C43.4542 50.7423 44.4307 50.7908 45.456 50.5968C47.6043 50.2087 49.3132 48.8989 50.2897 47.104C50.9732 44.1449 49.1179 41.4283 48.0925 41.5253ZM47.7019 41.8164C47.7019 41.7679 47.6531 41.6709 47.6531 41.6224C46.9207 41.9619 47.1649 43.2232 45.163 44.9696C43.0636 46.8615 41.8918 46.6189 41.55 47.4436C42.2335 47.6376 42.9659 47.6861 43.7471 47.5406C46.4325 47.007 48.1902 44.4845 47.7019 41.8164Z" fill="white"/>
<path d="M51.022 43.6592V43.9987C51.022 44.0473 51.022 44.0958 51.022 44.1443C51.022 44.4838 50.9732 44.8719 50.8756 45.163C50.8756 45.26 50.8267 45.357 50.8267 45.4055C50.8267 45.4541 50.8267 45.5026 50.7779 45.5511C50.7779 45.5996 50.7291 45.6481 50.7291 45.6966C50.6314 45.9877 50.5338 46.2787 50.3873 46.5698C50.3385 46.7153 50.2408 46.8609 50.192 46.9579C50.9244 44.0473 49.1179 41.3307 48.0437 41.3792C47.9949 41.3792 47.9949 41.3792 47.9949 41.3792C47.8484 41.3792 47.7508 41.4277 47.6531 41.4762C46.9207 41.8158 47.1649 43.0771 45.1631 44.8234C43.0636 46.7153 41.8918 46.4728 41.55 47.2974C41.4524 47.2489 41.3547 47.2489 41.2571 47.2004C41.3547 47.2489 41.4035 47.346 41.5012 47.3945C41.5012 47.3945 41.5012 47.3945 41.5012 47.443C41.0129 49.0923 42.1359 50.1596 42.4289 50.3536C42.4777 50.4021 42.4777 50.4021 42.4777 50.4021C39.6458 49.723 37.4487 47.2974 37.2046 44.2413C37.1069 43.1741 37.3022 42.2039 37.644 41.2822C37.644 41.2337 37.644 41.2337 37.6928 41.1852C38.6693 38.8567 40.8665 37.1103 43.6007 36.9162C44.0889 36.8677 44.5772 36.9162 45.0654 36.9648C48.239 37.4013 50.7291 39.9724 50.9732 43.2711C51.022 43.4651 51.022 43.5622 51.022 43.6592Z" fill="white"/>
<path d="M36.9117 38.8567C36.9117 38.8567 36.0817 40.0209 35.0075 41.4762C33.6404 43.3681 31.8827 45.7452 31.0039 46.8124L28.9532 46.1332L29.5391 45.8422L30.0762 44.872L33.1034 39.1963C33.1034 39.1963 34.2263 39.3903 36.0329 39.0507C36.277 39.0022 36.5699 38.9537 36.9117 38.8567Z" fill="white"/>
<path d="M33.2986 45.163C33.738 44.8234 34.1774 44.4353 34.7145 43.9502C34.3239 44.3383 33.7868 44.7749 33.2986 45.163Z" fill="white"/>
</g>
</svg>
