<svg width="128" height="126" viewBox="0 0 128 126" fill="none" xmlns="http://www.w3.org/2000/svg">
<path d="M48.2891 115.264C48.245 115.419 48.2197 115.561 48.2134 115.691C48.207 115.821 48.2356 115.953 48.299 116.085C48.3571 116.221 48.4572 116.364 48.599 116.514C48.7369 116.664 48.9299 116.835 49.1782 117.029C49.4759 117.251 49.7541 117.486 50.0128 117.736C50.2675 117.985 50.4795 118.252 50.6487 118.538C50.8128 118.827 50.9227 119.136 50.9787 119.464C51.0293 119.795 50.9995 120.154 50.8892 120.541C50.7835 120.911 50.618 121.229 50.3925 121.495C50.1659 121.765 49.8978 121.972 49.588 122.117C49.2741 122.26 48.9295 122.343 48.554 122.363C48.1732 122.386 47.7753 122.339 47.3603 122.22C46.933 122.099 46.5682 121.92 46.2658 121.684C45.9582 121.451 45.7192 121.178 45.5488 120.865C45.3732 120.555 45.2684 120.213 45.2346 119.838C45.1996 119.467 45.2396 119.081 45.3545 118.678L47.143 119.188C47.0896 119.375 47.0612 119.552 47.0577 119.718C47.0491 119.887 47.0718 120.039 47.1259 120.173C47.1748 120.31 47.2556 120.428 47.3684 120.526C47.48 120.629 47.6274 120.706 47.8105 120.758C47.9815 120.807 48.1375 120.823 48.2788 120.806C48.416 120.788 48.5386 120.744 48.6467 120.673C48.7536 120.607 48.8454 120.516 48.9221 120.402C48.9988 120.287 49.0575 120.159 49.0981 120.016C49.1399 119.87 49.1471 119.729 49.1198 119.594C49.0883 119.457 49.0302 119.322 48.9452 119.187C48.8563 119.052 48.7432 118.916 48.6059 118.78C48.4646 118.643 48.3065 118.503 48.1315 118.361C47.7593 118.092 47.4448 117.822 47.1878 117.55C46.9307 117.279 46.7316 116.998 46.5902 116.707C46.4489 116.416 46.3691 116.109 46.351 115.787C46.3317 115.469 46.3743 115.127 46.4788 114.761C46.5903 114.37 46.7547 114.041 46.972 113.773C47.1852 113.503 47.4421 113.297 47.7425 113.154C48.0378 113.014 48.3705 112.935 48.7408 112.917C49.1099 112.904 49.5061 112.958 49.9293 113.078C50.3118 113.188 50.672 113.352 51.0098 113.571C51.3423 113.794 51.6188 114.067 51.8392 114.389C52.0596 114.712 52.2071 115.082 52.2817 115.499C52.3522 115.915 52.3154 116.375 52.1714 116.88L50.3707 116.366C50.4474 116.098 50.4859 115.862 50.4865 115.66C50.487 115.458 50.4512 115.282 50.379 115.134C50.3017 114.989 50.1912 114.867 50.0476 114.769C49.9028 114.675 49.7246 114.598 49.513 114.537C49.3421 114.488 49.1907 114.472 49.0587 114.487C48.9215 114.505 48.8041 114.546 48.7065 114.611C48.6036 114.678 48.5185 114.768 48.4511 114.881C48.3837 114.994 48.3297 115.122 48.2891 115.264Z" fill="white"/>
<path d="M32.9938 108.693C33.5778 107.814 34.2434 107.284 34.9906 107.102C35.7378 106.92 36.5372 107.086 37.3888 107.6C37.8273 107.864 38.175 108.173 38.4318 108.525C38.6887 108.878 38.8485 109.268 38.9115 109.696C38.9744 110.125 38.9425 110.587 38.8158 111.084C38.6833 111.582 38.451 112.107 38.1188 112.658L37.3059 114.006C36.9737 114.557 36.6164 115.006 36.2338 115.353C35.8477 115.699 35.4469 115.941 35.0315 116.081C34.616 116.221 34.1925 116.26 33.7608 116.197C33.3269 116.138 32.8944 115.978 32.4631 115.718C31.6007 115.198 31.0919 114.563 30.9368 113.812C30.7781 113.059 30.94 112.213 31.4226 111.273L33.0261 112.24C32.8629 112.527 32.7462 112.778 32.6761 112.993C32.6001 113.209 32.5718 113.399 32.591 113.564C32.6102 113.729 32.6763 113.878 32.7892 114.01C32.8985 114.14 33.0564 114.267 33.263 114.392C33.4768 114.521 33.6816 114.595 33.8775 114.614C34.0698 114.632 34.2623 114.587 34.4548 114.481C34.6452 114.378 34.8437 114.209 35.0503 113.973C35.2512 113.738 35.4663 113.43 35.6958 113.05L36.5153 111.691C36.7382 111.321 36.9102 110.995 37.0313 110.712C37.1524 110.429 37.2179 110.177 37.2279 109.956C37.2356 109.738 37.1881 109.547 37.0855 109.381C36.9828 109.215 36.8173 109.064 36.589 108.926C36.3933 108.808 36.2146 108.727 36.0528 108.684C35.8853 108.642 35.7245 108.647 35.5706 108.697C35.4166 108.748 35.2603 108.851 35.1018 109.007C34.9432 109.164 34.7732 109.38 34.5919 109.656L32.9938 108.693Z" fill="white"/>
<path d="M24.5229 101.755L25.1717 102.417L27.5831 100.053L28.8896 101.386L22.2897 107.856L20.2057 105.73C19.8828 105.401 19.6392 105.064 19.475 104.722C19.3049 104.379 19.217 104.035 19.2115 103.691C19.1999 103.347 19.2721 103.006 19.4281 102.67C19.5811 102.33 19.8208 102 20.1472 101.681C20.3859 101.446 20.6242 101.257 20.862 101.113C21.0939 100.969 21.3268 100.865 21.5608 100.801C21.7889 100.738 22.0166 100.71 22.244 100.718C22.4713 100.727 22.6983 100.765 22.9251 100.833L24.4935 97.0286L24.557 96.9663L25.9612 98.3987L24.5229 101.755ZM24.0611 103.506L23.319 102.749C23.0583 102.483 22.7752 102.369 22.4695 102.408C22.1609 102.45 21.8585 102.616 21.5624 102.907C21.4113 103.055 21.2901 103.203 21.1988 103.352C21.1016 103.5 21.0418 103.648 21.0194 103.794C20.991 103.941 21.0015 104.084 21.051 104.226C21.0975 104.37 21.1859 104.508 21.3162 104.641L22.0938 105.434L24.0611 103.506Z" fill="white"/>
<path d="M14.3739 88.1272C14.9387 87.8107 15.4746 87.6026 15.9814 87.5029C16.4883 87.4032 16.9552 87.4011 17.3822 87.4965C17.8071 87.5883 18.1919 87.7729 18.5365 88.0503C18.8791 88.324 19.1714 88.6768 19.4134 89.1088C19.6554 89.5407 19.8048 89.9761 19.8615 90.4148C19.9182 90.8536 19.8768 91.2818 19.7373 91.6995C19.5958 92.1135 19.3513 92.5125 19.0037 92.8965C18.6541 93.2767 18.1968 93.6251 17.632 93.9416L16.2919 94.6925C15.7123 95.0173 15.1636 95.2326 14.6456 95.3385C14.124 95.4464 13.6442 95.4558 13.2061 95.3666C12.7681 95.2773 12.3749 95.095 12.0265 94.8197C11.6745 94.5464 11.3775 94.1938 11.1355 93.7619C10.8934 93.3299 10.7488 92.8944 10.7016 92.4552C10.6486 92.0143 10.6984 91.5838 10.851 91.1636C11.0015 90.7397 11.259 90.3334 11.6234 89.9449C11.9841 89.5585 12.4542 89.2029 13.0338 88.8781L14.3739 88.1272ZM13.9381 90.5179C13.5542 90.733 13.243 90.9438 13.0045 91.1502C12.7624 91.3586 12.5845 91.565 12.471 91.7693C12.3575 91.9735 12.3046 92.1778 12.3123 92.3821C12.3201 92.5863 12.3818 92.7918 12.4977 92.9985C12.6156 93.209 12.7596 93.3708 12.9298 93.484C13.1 93.5973 13.3018 93.6588 13.5353 93.6686C13.7688 93.6785 14.0377 93.6345 14.3419 93.5368C14.6424 93.4412 14.9846 93.2858 15.3686 93.0707L16.7197 92.3135C17.0852 92.1088 17.3835 91.9052 17.6146 91.703C17.842 91.5028 18.0087 91.3026 18.1149 91.1025C18.2189 90.8987 18.2653 90.6956 18.2538 90.4935C18.2403 90.2876 18.1746 90.0794 18.0567 89.869C17.9409 89.6623 17.8007 89.5031 17.6363 89.3915C17.4699 89.2762 17.2736 89.2115 17.0474 89.1976C16.8213 89.1836 16.5646 89.2232 16.2772 89.3163C15.9841 89.4078 15.6548 89.5559 15.2893 89.7607L13.9381 90.5179Z" fill="white"/>
<path d="M12.7331 77.0862L11.8972 73.9193L13.3947 73.524L14.707 78.4953L5.77087 80.8542L5.29457 79.0498L12.7331 77.0862Z" fill="white"/>
<path d="M11.0595 65.752L10.9236 62.4794L12.4711 62.4151L12.6844 67.5523L3.45021 67.9358L3.37278 66.0712L11.0595 65.752Z" fill="white"/>
<path d="M15.3223 46.7522L6.82299 43.1217L7.78295 40.8743C7.9924 40.384 8.26445 39.9733 8.59912 39.6423C8.93155 39.3057 9.31216 39.061 9.74094 38.9083C10.1675 38.75 10.6378 38.6885 11.1518 38.724C11.6636 38.754 12.2055 38.8911 12.7776 39.1355L14.0969 39.699C14.6689 39.9433 15.1436 40.2381 15.5207 40.5833C15.8979 40.9284 16.1787 41.3107 16.3631 41.73C16.5436 42.1476 16.6272 42.5929 16.6139 43.0657C16.6006 43.5386 16.4875 44.0241 16.2748 44.5223L15.3223 46.7522ZM8.98622 42.0164L14.631 44.4276L14.8504 43.9139C14.9801 43.6103 15.0492 43.3407 15.0578 43.1051C15.0625 42.8679 15.0031 42.6515 14.8795 42.4561C14.7559 42.2606 14.5687 42.0794 14.3179 41.9125C14.0671 41.7455 13.7491 41.5798 13.3638 41.4152L12.0329 40.8467C11.6437 40.6805 11.3021 40.5645 11.0081 40.4987C10.7141 40.4329 10.4557 40.4238 10.2329 40.4713C10.0102 40.5188 9.81664 40.6271 9.65237 40.7962C9.48587 40.9598 9.33946 41.1895 9.21312 41.4852L8.98622 42.0164Z" fill="white"/>
<path d="M23.4093 26.1582C23.9077 26.5715 24.2944 26.9968 24.5696 27.434C24.8447 27.8711 25.0145 28.3061 25.0789 28.7389C25.146 29.1684 25.112 29.5938 24.977 30.0151C24.8446 30.4332 24.6204 30.8327 24.3043 31.2138C23.9882 31.5949 23.6356 31.8907 23.2465 32.1013C22.8574 32.3119 22.4429 32.4271 22.003 32.4471C21.5658 32.4638 21.1056 32.379 20.6224 32.1926C20.1419 32.003 19.6525 31.7015 19.1542 31.2881L17.9718 30.3074C17.4605 29.8833 17.0623 29.4486 16.7774 29.0033C16.4892 28.5553 16.308 28.1109 16.2339 27.67C16.1597 27.2291 16.1885 26.7967 16.3203 26.3727C16.4488 25.946 16.6711 25.5421 16.9872 25.161C17.3033 24.7799 17.6578 24.4884 18.0507 24.2865C18.4431 24.0786 18.8628 23.9704 19.3097 23.9618C19.7594 23.9499 20.231 24.0442 20.7245 24.2446C21.2148 24.4424 21.7156 24.7533 22.227 25.1775L23.4093 26.1582ZM21.0217 26.6106C20.683 26.3297 20.3745 26.115 20.0962 25.9666C19.8146 25.8156 19.5581 25.7238 19.3267 25.6913C19.0953 25.6587 18.8856 25.6828 18.6978 25.7634C18.51 25.844 18.3404 25.9755 18.1891 26.1579C18.0351 26.3436 17.9359 26.5362 17.8914 26.7356C17.8468 26.9351 17.8619 27.1456 17.9367 27.367C18.0114 27.5885 18.149 27.8236 18.3495 28.0724C18.5468 28.3184 18.8148 28.582 19.1535 28.8629L20.3456 29.8518C20.6681 30.1192 20.9652 30.3244 21.237 30.4674C21.5055 30.6077 21.7522 30.6914 21.9771 30.7185C22.2048 30.7423 22.4109 30.7126 22.5954 30.6293C22.7827 30.5427 22.9533 30.4066 23.1073 30.2209C23.2586 30.0385 23.3568 29.8506 23.4019 29.657C23.4496 29.4602 23.4394 29.2538 23.3712 29.0378C23.303 28.8218 23.1738 28.5964 22.9836 28.3617C22.7929 28.121 22.5363 27.8669 22.2138 27.5995L21.0217 26.6106Z" fill="white"/>
<path d="M35.6787 16.7034L33.306 11.3301L34.8656 10.3403L38.4299 19.0246L36.8489 20.028L33.0194 16.0078L35.0374 21.1777L33.451 22.1845L27.1052 15.2655L28.6755 14.2689L32.5186 18.7014L30.3262 13.2213L31.65 12.3811L35.6787 16.7034Z" fill="white"/>
<path d="M52.705 9.95693L52.1012 4.11426L53.8897 3.65248L54.6083 13.0122L52.7952 13.4803L50.3889 8.47675L50.7179 14.0167L48.8986 14.4864L44.9901 5.95028L46.7909 5.48532L49.0834 10.8855L48.6839 4.99656L50.202 4.60461L52.705 9.95693Z" fill="white"/>
<path d="M79.5515 6.49478L77.3085 6.05757L75.8378 13.6026L73.9999 13.2443L75.4706 5.6993L73.265 5.26937L73.5626 3.74293L79.849 4.96833L79.5515 6.49478Z" fill="white"/>
<path d="M90.5078 15.148C90.229 15.7324 89.9113 16.2114 89.5548 16.5852C89.1983 16.959 88.8181 17.2301 88.4142 17.3984C88.0142 17.5686 87.5934 17.6398 87.1519 17.612C86.7142 17.586 86.2719 17.4664 85.825 17.2532C85.3781 17.04 85.005 16.7705 84.7056 16.4448C84.4062 16.1191 84.193 15.7454 84.066 15.3237C83.9428 14.9039 83.9124 14.4369 83.9748 13.9228C84.0411 13.4105 84.2136 12.8622 84.4924 12.2779L85.1539 10.8915C85.44 10.2918 85.764 9.79939 86.126 9.41414C86.4898 9.02507 86.8764 8.74064 87.2857 8.56083C87.695 8.38103 88.1214 8.30312 88.5648 8.32712C89.0099 8.34729 89.456 8.46398 89.9028 8.67719C90.3497 8.8904 90.7191 9.16278 91.011 9.49431C91.3086 9.82384 91.5163 10.2043 91.634 10.6355C91.7556 11.0686 91.7796 11.549 91.706 12.0765C91.6343 12.6003 91.4554 13.162 91.1693 13.7616L90.5078 15.148ZM89.4847 12.9438C89.6742 12.5466 89.8069 12.1949 89.8826 11.8887C89.9602 11.5788 89.9864 11.3076 89.9613 11.0753C89.9362 10.8429 89.8616 10.6455 89.7374 10.4832C89.6133 10.3208 89.4443 10.1886 89.2304 10.0865C89.0127 9.98264 88.8017 9.93354 88.5974 9.9392C88.393 9.94487 88.1927 10.011 87.9963 10.1377C87.7999 10.2644 87.6056 10.4553 87.4134 10.7106C87.2231 10.9621 87.0332 11.2864 86.8437 11.6836L86.1767 13.0815C85.9963 13.4596 85.8701 13.7979 85.798 14.0964C85.7277 14.3911 85.7069 14.6508 85.7357 14.8755C85.7683 15.1021 85.8475 15.2946 85.9735 15.4532C86.1033 15.6136 86.277 15.7457 86.4947 15.8496C86.7086 15.9516 86.9149 16.0008 87.1135 15.9971C87.316 15.9953 87.5137 15.9349 87.7064 15.8158C87.8992 15.6968 88.0861 15.5164 88.2671 15.2746C88.4538 15.0307 88.6373 14.7197 88.8178 14.3416L89.4847 12.9438Z" fill="white"/>
<path d="M107.313 31.6279C107.441 31.5298 107.546 31.4303 107.628 31.3293C107.711 31.2284 107.766 31.1058 107.794 30.9615C107.827 30.8181 107.832 30.6436 107.807 30.4383C107.785 30.2363 107.732 29.9834 107.648 29.6798C107.54 29.3249 107.456 28.97 107.396 28.6153C107.339 28.2639 107.328 27.9229 107.362 27.5924C107.401 27.2626 107.496 26.9491 107.647 26.6517C107.803 26.3552 108.04 26.0842 108.359 25.8389C108.664 25.6039 108.986 25.4466 109.325 25.3669C109.668 25.2846 110.007 25.2773 110.342 25.3449C110.68 25.4159 111.006 25.5548 111.32 25.7615C111.64 25.969 111.932 26.2437 112.195 26.5856C112.466 26.9377 112.653 27.2984 112.756 27.6678C112.865 28.038 112.895 28.3994 112.846 28.7522C112.803 29.1057 112.684 29.4432 112.488 29.7648C112.296 30.0839 112.034 30.3712 111.702 30.6269L110.567 29.1535C110.721 29.0347 110.849 28.9094 110.951 28.7778C111.058 28.6469 111.13 28.5114 111.167 28.3713C111.209 28.2319 111.214 28.0892 111.181 27.9432C111.152 27.7946 111.08 27.6449 110.964 27.494C110.855 27.3532 110.739 27.2476 110.615 27.1773C110.494 27.1103 110.37 27.073 110.241 27.0653C110.115 27.0551 109.988 27.0732 109.858 27.1197C109.728 27.1663 109.605 27.2347 109.487 27.3251C109.367 27.4181 109.277 27.5271 109.219 27.6523C109.163 27.7808 109.129 27.9243 109.118 28.0828C109.109 28.2445 109.119 28.4209 109.148 28.6118C109.181 28.8061 109.225 29.0124 109.281 29.2309C109.42 29.6684 109.513 30.0727 109.558 30.4437C109.603 30.8147 109.596 31.1593 109.537 31.4774C109.478 31.7956 109.36 32.0896 109.183 32.3593C109.009 32.6265 108.772 32.8763 108.47 33.1087C108.148 33.3566 107.82 33.5237 107.486 33.6101C107.155 33.6999 106.825 33.713 106.499 33.6495C106.178 33.5868 105.864 33.4524 105.555 33.2465C105.25 33.0379 104.964 32.7593 104.695 32.4107C104.452 32.0955 104.261 31.7493 104.119 31.3719C103.984 30.9953 103.924 30.6118 103.938 30.2214C103.953 29.831 104.054 29.4458 104.242 29.0659C104.433 28.6894 104.736 28.341 105.152 28.0207L106.294 29.5042C106.073 29.6747 105.902 29.8411 105.782 30.0034C105.661 30.1658 105.586 30.328 105.555 30.4901C105.531 30.6529 105.548 30.8165 105.605 30.9808C105.665 31.1425 105.763 31.3106 105.897 31.4849C106.006 31.6257 106.117 31.7292 106.232 31.7954C106.353 31.8624 106.472 31.899 106.589 31.9051C106.712 31.912 106.834 31.8901 106.955 31.8395C107.077 31.7888 107.196 31.7183 107.313 31.6279Z" fill="white"/>
<path d="M115.995 44.3346L114.917 41.6344L112.641 42.5424L113.916 45.7378L112.478 46.3118L110.511 41.3829L119.096 37.9581L121.057 42.8751L119.613 43.4514L118.343 40.2677L116.315 41.0769L117.392 43.7772L115.995 44.3346Z" fill="white"/>
<path d="M119.364 59.937L119.1 57.0418L116.66 57.2641L116.972 60.6903L115.429 60.8308L114.948 55.5461L124.152 54.7076L124.632 59.9797L123.084 60.1208L122.773 56.7072L120.598 56.9053L120.862 59.8005L119.364 59.937Z" fill="white"/>
<path d="M120.491 86.1813L113.684 85.0052L119.049 89.354L118.041 91.5731L109.627 87.7494L110.401 86.0447L112.678 87.0793L116.115 88.8294L111.095 84.519L111.62 83.3632L118.169 84.3103L114.59 82.8723L112.313 81.8376L113.085 80.1386L121.499 83.9622L120.491 86.1813Z" fill="white"/>
<path d="M102.359 103.616C101.886 103.174 101.525 102.727 101.276 102.274C101.027 101.822 100.883 101.378 100.845 100.942C100.803 100.509 100.862 100.086 101.022 99.6737C101.178 99.2642 101.426 98.8785 101.764 98.5167C102.102 98.1549 102.471 97.8804 102.872 97.6931C103.273 97.5058 103.693 97.4151 104.134 97.4211C104.571 97.4302 105.025 97.542 105.497 97.7565C105.965 97.9741 106.436 98.3039 106.909 98.7459L108.032 99.7945C108.517 100.248 108.889 100.705 109.147 101.167C109.409 101.631 109.563 102.085 109.611 102.53C109.659 102.974 109.605 103.404 109.449 103.82C109.295 104.238 109.05 104.628 108.712 104.99C108.374 105.352 108.002 105.622 107.598 105.8C107.194 105.985 106.769 106.068 106.322 106.05C105.873 106.036 105.408 105.914 104.927 105.685C104.449 105.458 103.967 105.118 103.482 104.665L102.359 103.616ZM104.769 103.305C105.091 103.606 105.386 103.838 105.655 104.003C105.928 104.17 106.178 104.277 106.407 104.323C106.636 104.369 106.847 104.357 107.039 104.288C107.232 104.218 107.409 104.097 107.57 103.924C107.735 103.748 107.846 103.561 107.902 103.365C107.958 103.168 107.955 102.957 107.894 102.732C107.832 102.506 107.709 102.264 107.523 102.003C107.341 101.746 107.089 101.467 106.767 101.167L105.635 100.11C105.329 99.8236 105.045 99.6012 104.782 99.4425C104.522 99.2867 104.281 99.1886 104.058 99.1483C103.832 99.111 103.624 99.1286 103.435 99.2009C103.243 99.2763 103.065 99.4021 102.9 99.5784C102.738 99.7515 102.629 99.9334 102.573 100.124C102.514 100.318 102.512 100.524 102.567 100.744C102.622 100.964 102.738 101.196 102.914 101.442C103.09 101.693 103.332 101.962 103.638 102.248L104.769 103.305Z" fill="white"/>
<path d="M92.4836 110.595L93.2714 110.107L91.4928 107.236L93.0792 106.253L97.9469 114.11L95.4162 115.677C95.0241 115.92 94.6429 116.084 94.2725 116.17C93.9007 116.261 93.5463 116.271 93.2093 116.201C92.8708 116.137 92.5545 115.992 92.2602 115.766C91.9623 115.542 91.693 115.236 91.4523 114.848C91.2763 114.564 91.1439 114.29 91.0552 114.026C90.9651 113.768 90.9148 113.518 90.904 113.276C90.892 113.039 90.9148 112.811 90.9726 112.591C91.0305 112.371 91.1174 112.158 91.2335 111.952L87.865 109.588L87.8182 109.513L89.5233 108.456L92.4836 110.595ZM94.0905 111.429L93.1894 111.987C92.8728 112.183 92.7 112.434 92.671 112.741C92.6442 113.051 92.7401 113.383 92.9585 113.735C93.0699 113.915 93.1882 114.066 93.3133 114.188C93.4371 114.315 93.5679 114.406 93.7059 114.46C93.8425 114.519 93.985 114.541 94.1336 114.523C94.2844 114.509 94.4389 114.454 94.5972 114.355L95.5414 113.77L94.0905 111.429Z" fill="white"/>
<path d="M78.6852 117.22L81.471 116.388L80.7704 114.041L77.4736 115.024L77.0308 113.54L82.1158 112.023L84.7586 120.879L79.6856 122.393L79.241 120.903L82.5256 119.922L81.9012 117.83L79.1153 118.661L78.6852 117.22Z" fill="white"/>
</svg>
